<?xml version="1.0" standalone="no"?>
<!DOCTYPE svg PUBLIC "-//W3C//DTD SVG 20010904//EN"
 "http://www.w3.org/TR/2001/REC-SVG-20010904/DTD/svg10.dtd">
<svg version="1.0" xmlns="http://www.w3.org/2000/svg"
 width="384.000000pt" height="384.000000pt" viewBox="0 0 384.000000 384.000000"
 preserveAspectRatio="xMidYMid meet">
<metadata>
Created by potrace 1.16, written by Peter Selinger 2001-2019
</metadata>
<g transform="translate(0.000000,384.000000) scale(0.100000,-0.100000)"
fill="#000000" stroke="none">
<path d="M0 1920 l0 -1920 1920 0 1920 0 0 1920 0 1920 -1920 0 -1920 0 0
-1920z m923 374 l57 -6 0 -58 c0 -32 3 -65 6 -74 12 -31 -40 -19 -59 13 -43
73 -224 113 -342 76 -118 -37 -150 -104 -78 -164 21 -17 41 -31 46 -31 5 0 23
-6 40 -14 18 -8 59 -22 92 -32 94 -27 236 -85 278 -112 75 -50 98 -132 56
-202 -27 -44 -41 -55 -107 -86 -86 -39 -220 -56 -354 -44 -62 5 -134 15 -160
21 -47 11 -48 12 -48 50 0 21 2 39 4 39 2 0 24 -8 48 -18 69 -30 138 -44 209
-43 151 2 249 44 260 113 13 80 -35 113 -292 199 -124 41 -179 70 -217 114
-27 30 -32 44 -32 85 0 45 4 54 43 93 43 44 82 61 202 85 49 10 234 8 348 -4z
m1652 0 c28 -3 53 -9 57 -12 4 -4 8 -36 9 -72 3 -60 1 -65 -19 -68 -15 -2 -25
5 -37 27 -26 51 -94 79 -211 88 -158 11 -282 -64 -240 -146 13 -24 126 -91
155 -91 18 0 234 -76 285 -100 72 -34 113 -80 121 -134 25 -165 -209 -259
-544 -219 -138 16 -153 23 -149 66 4 37 9 38 93 6 80 -31 264 -34 337 -6 48
19 108 76 108 103 0 62 -70 106 -283 178 -195 66 -231 88 -262 156 -15 34 -16
46 -7 79 23 75 79 112 217 142 79 18 227 19 370 3z m800 -4 c44 -6 84 -15 89
-20 5 -5 11 -45 14 -90 4 -76 4 -80 -17 -80 -11 0 -21 6 -21 13 0 27 -70 95
-122 117 -72 31 -185 38 -262 16 -119 -35 -176 -126 -176 -282 0 -169 62 -268
200 -325 48 -20 74 -23 205 -24 130 -1 150 -3 153 -17 5 -24 -6 -27 -120 -37
-289 -25 -478 48 -570 221 -21 39 -23 56 -23 173 0 114 3 135 22 171 45 85
140 147 252 165 36 5 68 13 71 15 8 8 213 -2 305 -16z m-1750 -10 c146 -25
229 -72 282 -159 41 -69 61 -195 43 -273 -31 -132 -100 -200 -255 -251 -51
-17 -95 -21 -297 -24 l-238 -5 0 330 c0 373 4 354 -82 367 -27 4 -48 11 -48
16 0 11 528 10 595 -1z"/>
<path d="M1340 2237 l-25 -13 -3 -290 c-2 -247 0 -293 12 -304 17 -13 169 -16
233 -4 66 12 138 50 170 89 44 53 63 119 63 219 0 197 -83 284 -291 306 -120
12 -129 12 -159 -3z"/>
</g>
</svg>
