<svg id="svg" version="1.1" xmlns="http://www.w3.org/2000/svg" xmlns:xlink="http://www.w3.org/1999/xlink" width="400" height="76.0797342192691" viewBox="0, 0, 400,76.0797342192691"><g id="svgg"><path id="path0" d="M0.500 73.167 L 0.500 74.500 165.917 74.500 L 331.333 74.500 331.333 74.080 C 331.333 73.793,331.044 73.370,330.420 72.746 L 329.507 71.833 165.004 71.833 L 0.500 71.833 0.500 73.167 M367.379 72.638 C 366.927 73.080,366.432 73.491,366.279 73.549 C 366.120 73.610,366.000 73.838,366.000 74.078 L 366.000 74.500 382.583 74.500 L 399.167 74.500 399.167 73.167 L 399.167 71.833 383.684 71.833 L 368.200 71.833 367.379 72.638 " stroke="none" fill="#c9942c" fill-rule="evenodd"></path><path id="path1" d="M76.000 0.667 C 76.000 0.767,75.333 0.833,74.333 0.833 C 73.333 0.833,72.667 0.900,72.667 1.000 C 72.667 1.092,72.292 1.167,71.833 1.167 C 71.375 1.167,71.000 1.242,71.000 1.333 C 71.000 1.425,70.700 1.500,70.333 1.500 C 69.967 1.500,69.667 1.575,69.667 1.667 C 69.667 1.758,69.442 1.833,69.167 1.833 C 68.892 1.833,68.667 1.908,68.667 2.000 C 68.667 2.092,68.442 2.167,68.167 2.167 C 67.892 2.167,67.667 2.242,67.667 2.333 C 67.667 2.425,67.517 2.500,67.333 2.500 C 67.150 2.500,67.000 2.575,67.000 2.667 C 67.000 2.758,66.850 2.833,66.667 2.833 C 66.483 2.833,66.333 2.908,66.333 3.000 C 66.333 3.092,66.183 3.167,66.000 3.167 C 65.817 3.167,65.667 3.242,65.667 3.333 C 65.667 3.425,65.517 3.500,65.333 3.500 C 65.150 3.500,65.000 3.575,65.000 3.667 C 65.000 3.758,64.867 3.833,64.703 3.833 C 64.540 3.833,64.299 3.983,64.167 4.167 C 64.035 4.350,63.825 4.500,63.700 4.500 C 63.576 4.500,63.186 4.800,62.833 5.167 C 62.481 5.533,62.109 5.833,62.008 5.833 C 61.767 5.833,60.667 6.933,60.667 7.174 C 60.667 7.276,60.367 7.648,60.000 8.000 C 59.633 8.352,59.333 8.742,59.333 8.867 C 59.333 8.991,59.183 9.201,59.000 9.333 C 58.817 9.465,58.667 9.707,58.667 9.870 C 58.667 10.033,58.592 10.167,58.500 10.167 C 58.408 10.167,58.333 10.317,58.333 10.500 C 58.333 10.683,58.258 10.833,58.167 10.833 C 58.075 10.833,58.000 10.983,58.000 11.167 C 58.000 11.350,57.925 11.500,57.833 11.500 C 57.742 11.500,57.667 11.650,57.667 11.833 C 57.667 12.017,57.592 12.167,57.500 12.167 C 57.408 12.167,57.333 12.317,57.333 12.500 C 57.333 12.683,57.258 12.833,57.167 12.833 C 57.075 12.833,57.000 13.058,57.000 13.333 C 57.000 13.608,56.925 13.833,56.833 13.833 C 56.742 13.833,56.667 14.058,56.667 14.333 C 56.667 14.608,56.592 14.833,56.500 14.833 C 56.408 14.833,56.333 15.058,56.333 15.333 C 56.333 15.608,56.258 15.833,56.167 15.833 C 56.075 15.833,56.000 16.133,56.000 16.500 C 56.000 16.867,55.925 17.167,55.833 17.167 C 55.742 17.167,55.667 17.542,55.667 18.000 C 55.667 18.458,55.592 18.833,55.500 18.833 C 55.406 18.833,55.333 19.302,55.333 19.907 C 55.333 20.497,55.258 21.027,55.167 21.083 C 55.073 21.141,55.000 21.943,55.000 22.917 C 55.000 23.890,54.927 24.692,54.833 24.750 C 54.731 24.813,54.667 26.224,54.667 28.427 C 54.667 30.698,54.727 32.000,54.833 32.000 C 54.934 32.000,55.000 32.722,55.000 33.833 C 55.000 34.944,55.066 35.667,55.167 35.667 C 55.259 35.667,55.333 36.111,55.333 36.667 C 55.333 37.222,55.407 37.667,55.500 37.667 C 55.593 37.667,55.667 38.111,55.667 38.667 C 55.667 39.222,55.741 39.667,55.833 39.667 C 55.925 39.667,56.000 39.967,56.000 40.333 C 56.000 40.700,56.075 41.000,56.167 41.000 C 56.258 41.000,56.333 41.225,56.333 41.500 C 56.333 41.775,56.408 42.000,56.500 42.000 C 56.592 42.000,56.667 42.300,56.667 42.667 C 56.667 43.033,56.742 43.333,56.833 43.333 C 56.925 43.333,57.000 43.483,57.000 43.667 C 57.000 43.850,57.075 44.000,57.167 44.000 C 57.258 44.000,57.333 44.225,57.333 44.500 C 57.333 44.775,57.408 45.000,57.500 45.000 C 57.592 45.000,57.667 45.225,57.667 45.500 C 57.667 45.775,57.742 46.000,57.833 46.000 C 57.925 46.000,58.000 46.150,58.000 46.333 C 58.000 46.517,58.075 46.667,58.167 46.667 C 58.258 46.667,58.333 46.817,58.333 47.000 C 58.333 47.183,58.408 47.333,58.500 47.333 C 58.592 47.333,58.667 47.483,58.667 47.667 C 58.667 47.850,58.742 48.000,58.833 48.000 C 58.925 48.000,59.000 48.133,59.000 48.297 C 59.000 48.460,59.150 48.701,59.333 48.833 C 59.517 48.965,59.667 49.207,59.667 49.370 C 59.667 49.533,59.742 49.667,59.833 49.667 C 59.925 49.667,60.000 49.787,60.000 49.933 C 60.000 50.080,60.225 50.410,60.500 50.667 C 60.775 50.924,61.000 51.222,61.000 51.330 C 61.000 51.438,61.300 51.814,61.667 52.167 C 62.033 52.519,62.333 52.879,62.333 52.968 C 62.333 53.056,62.631 53.380,62.995 53.689 C 63.358 53.998,64.033 54.601,64.494 55.030 C 64.955 55.459,65.482 55.858,65.666 55.916 C 65.850 55.975,66.000 56.083,66.000 56.158 C 66.000 56.232,66.225 56.386,66.500 56.500 C 66.775 56.614,67.000 56.773,67.000 56.854 C 67.000 56.934,67.145 57.000,67.321 57.000 C 67.498 57.000,67.755 57.112,67.893 57.250 C 68.030 57.387,68.261 57.500,68.405 57.500 C 68.549 57.500,68.667 57.575,68.667 57.667 C 68.667 57.758,68.817 57.833,69.000 57.833 C 69.183 57.833,69.333 57.908,69.333 58.000 C 69.333 58.092,69.558 58.167,69.833 58.167 C 70.108 58.167,70.333 58.242,70.333 58.333 C 70.333 58.425,70.483 58.500,70.667 58.500 C 70.850 58.500,71.000 58.575,71.000 58.667 C 71.000 58.758,71.225 58.833,71.500 58.833 C 71.775 58.833,72.000 58.908,72.000 59.000 C 72.000 59.092,72.300 59.167,72.667 59.167 C 73.033 59.167,73.333 59.242,73.333 59.333 C 73.333 59.425,73.708 59.500,74.167 59.500 C 74.625 59.500,75.000 59.575,75.000 59.667 C 75.000 59.761,75.469 59.833,76.073 59.833 C 76.664 59.833,77.193 59.908,77.250 60.000 C 77.314 60.103,78.835 60.167,81.260 60.167 C 83.753 60.167,85.167 60.106,85.167 60.000 C 85.167 59.900,85.833 59.833,86.833 59.833 C 87.833 59.833,88.500 59.767,88.500 59.667 C 88.500 59.574,88.944 59.500,89.500 59.500 C 90.056 59.500,90.500 59.426,90.500 59.333 C 90.500 59.242,90.875 59.167,91.333 59.167 C 91.792 59.167,92.167 59.092,92.167 59.000 C 92.167 58.908,92.467 58.833,92.833 58.833 C 93.200 58.833,93.500 58.758,93.500 58.667 C 93.500 58.575,93.800 58.500,94.167 58.500 C 94.533 58.500,94.833 58.425,94.833 58.333 C 94.833 58.242,95.026 58.167,95.262 58.167 C 96.058 58.167,96.167 57.868,96.167 55.679 L 96.167 53.667 95.500 53.667 C 95.133 53.667,94.833 53.742,94.833 53.833 C 94.833 53.925,94.683 54.000,94.500 54.000 C 94.317 54.000,94.167 54.075,94.167 54.167 C 94.167 54.258,93.942 54.333,93.667 54.333 C 93.392 54.333,93.167 54.408,93.167 54.500 C 93.167 54.592,92.867 54.667,92.500 54.667 C 92.133 54.667,91.833 54.742,91.833 54.833 C 91.833 54.925,91.533 55.000,91.167 55.000 C 90.800 55.000,90.500 55.075,90.500 55.167 C 90.500 55.259,90.056 55.333,89.500 55.333 C 88.944 55.333,88.500 55.407,88.500 55.500 C 88.500 55.606,87.222 55.667,85.000 55.667 C 82.778 55.667,81.500 55.606,81.500 55.500 C 81.500 55.407,81.056 55.333,80.500 55.333 C 79.944 55.333,79.500 55.259,79.500 55.167 C 79.500 55.075,79.200 55.000,78.833 55.000 C 78.467 55.000,78.167 54.925,78.167 54.833 C 78.167 54.742,77.942 54.667,77.667 54.667 C 77.392 54.667,77.167 54.592,77.167 54.500 C 77.167 54.408,76.942 54.333,76.667 54.333 C 76.392 54.333,76.167 54.258,76.167 54.167 C 76.167 54.075,76.017 54.000,75.833 54.000 C 75.650 54.000,75.500 53.925,75.500 53.833 C 75.500 53.742,75.387 53.667,75.250 53.667 C 75.112 53.667,75.000 53.592,75.000 53.500 C 75.000 53.408,74.850 53.333,74.667 53.333 C 74.483 53.333,74.333 53.258,74.333 53.167 C 74.333 53.075,74.221 53.000,74.083 53.000 C 73.946 53.000,73.833 52.925,73.833 52.833 C 73.833 52.742,73.721 52.667,73.583 52.667 C 73.446 52.667,73.333 52.592,73.333 52.500 C 73.333 52.408,73.221 52.333,73.083 52.333 C 72.946 52.333,72.833 52.258,72.833 52.167 C 72.833 52.075,72.757 52.000,72.665 52.000 C 72.431 52.000,69.333 48.882,69.333 48.647 C 69.333 48.542,69.202 48.334,69.041 48.186 C 68.879 48.038,68.642 47.710,68.512 47.458 C 68.383 47.206,68.215 47.000,68.139 47.000 C 68.062 47.000,68.000 46.850,68.000 46.667 C 68.000 46.483,67.925 46.333,67.833 46.333 C 67.742 46.333,67.667 46.183,67.667 46.000 C 67.667 45.817,67.592 45.667,67.500 45.667 C 67.408 45.667,67.333 45.517,67.333 45.333 C 67.333 45.150,67.258 45.000,67.167 45.000 C 67.075 45.000,67.000 44.850,67.000 44.667 C 67.000 44.483,66.925 44.333,66.833 44.333 C 66.742 44.333,66.667 44.183,66.667 44.000 C 66.667 43.817,66.592 43.667,66.500 43.667 C 66.408 43.667,66.333 43.442,66.333 43.167 C 66.333 42.892,66.258 42.667,66.167 42.667 C 66.075 42.667,66.000 42.442,66.000 42.167 C 66.000 41.892,65.925 41.667,65.833 41.667 C 65.742 41.667,65.667 41.442,65.667 41.167 C 65.667 40.892,65.592 40.667,65.500 40.667 C 65.408 40.667,65.333 40.367,65.333 40.000 C 65.333 39.633,65.258 39.333,65.167 39.333 C 65.075 39.333,65.000 38.958,65.000 38.500 C 65.000 38.042,64.925 37.667,64.833 37.667 C 64.741 37.667,64.667 37.222,64.667 36.667 C 64.667 36.111,64.593 35.667,64.500 35.667 C 64.401 35.667,64.333 35.056,64.333 34.167 C 64.333 33.278,64.265 32.667,64.167 32.667 C 64.059 32.667,64.000 30.833,64.000 27.500 C 64.000 24.167,64.059 22.333,64.167 22.333 C 64.264 22.333,64.333 21.778,64.333 21.000 C 64.333 20.222,64.403 19.667,64.500 19.667 C 64.592 19.667,64.667 19.259,64.667 18.760 C 64.667 18.261,64.742 17.807,64.833 17.750 C 64.925 17.693,65.000 17.351,65.000 16.990 C 65.000 16.629,65.075 16.333,65.167 16.333 C 65.258 16.333,65.333 16.075,65.333 15.760 C 65.333 15.444,65.408 15.140,65.500 15.083 C 65.592 15.027,65.667 14.837,65.667 14.662 C 65.667 14.487,65.817 14.076,66.000 13.750 C 66.183 13.424,66.333 13.009,66.333 12.828 C 66.333 12.648,66.408 12.500,66.500 12.500 C 66.592 12.500,66.667 12.350,66.667 12.167 C 66.667 11.983,66.742 11.833,66.833 11.833 C 66.925 11.833,67.000 11.683,67.000 11.500 C 67.000 11.317,67.062 11.167,67.139 11.167 C 67.215 11.167,67.383 10.960,67.514 10.708 C 67.644 10.456,67.881 10.105,68.042 9.927 C 68.202 9.749,68.333 9.536,68.333 9.453 C 68.333 9.284,70.409 7.167,70.575 7.167 C 70.633 7.167,70.842 7.017,71.038 6.833 C 71.235 6.650,71.495 6.500,71.615 6.500 C 71.735 6.500,71.833 6.425,71.833 6.333 C 71.833 6.242,71.983 6.167,72.167 6.167 C 72.350 6.167,72.500 6.092,72.500 6.000 C 72.500 5.908,72.650 5.833,72.833 5.833 C 73.017 5.833,73.167 5.758,73.167 5.667 C 73.167 5.575,73.312 5.500,73.490 5.500 C 73.668 5.500,73.860 5.425,73.917 5.333 C 73.973 5.242,74.278 5.167,74.593 5.167 C 74.909 5.167,75.167 5.092,75.167 5.000 C 75.167 4.905,75.667 4.833,76.333 4.833 C 77.000 4.833,77.500 4.762,77.500 4.667 C 77.500 4.574,77.941 4.500,78.490 4.500 C 79.035 4.500,79.527 4.575,79.583 4.667 C 79.640 4.758,80.244 4.833,80.927 4.833 C 81.642 4.833,82.167 4.904,82.167 5.000 C 82.167 5.092,82.387 5.167,82.657 5.167 C 82.926 5.167,83.193 5.242,83.250 5.333 C 83.307 5.425,83.532 5.500,83.750 5.500 C 83.968 5.500,84.193 5.575,84.250 5.667 C 84.307 5.758,84.536 5.833,84.760 5.833 C 84.984 5.833,85.167 5.908,85.167 6.000 C 85.167 6.092,85.317 6.167,85.500 6.167 C 85.683 6.167,85.833 6.242,85.833 6.333 C 85.833 6.425,85.967 6.500,86.130 6.500 C 86.293 6.500,86.535 6.650,86.667 6.833 C 86.799 7.017,87.010 7.167,87.135 7.167 C 87.384 7.167,90.500 10.210,90.500 10.454 C 90.500 10.536,90.632 10.749,90.793 10.927 C 91.142 11.311,92.503 13.993,92.501 14.292 C 92.501 14.406,92.575 14.500,92.667 14.500 C 92.758 14.500,92.833 14.725,92.833 15.000 C 92.833 15.275,92.908 15.500,93.000 15.500 C 93.092 15.500,93.169 15.744,93.172 16.042 C 93.181 16.986,93.457 17.167,94.893 17.167 L 96.167 17.167 96.167 14.667 C 96.167 13.111,96.104 12.167,96.000 12.167 C 95.895 12.167,95.833 11.056,95.833 9.167 C 95.833 7.278,95.772 6.167,95.667 6.167 C 95.567 6.167,95.500 5.500,95.500 4.500 L 95.500 2.833 94.833 2.833 C 94.467 2.833,94.167 2.758,94.167 2.667 C 94.167 2.575,93.867 2.500,93.500 2.500 C 93.133 2.500,92.833 2.425,92.833 2.333 C 92.833 2.242,92.533 2.167,92.167 2.167 C 91.800 2.167,91.500 2.092,91.500 2.000 C 91.500 1.908,91.125 1.833,90.667 1.833 C 90.208 1.833,89.833 1.758,89.833 1.667 C 89.833 1.574,89.389 1.500,88.833 1.500 C 88.278 1.500,87.833 1.426,87.833 1.333 C 87.833 1.238,87.333 1.167,86.667 1.167 C 86.000 1.167,85.500 1.095,85.500 1.000 C 85.500 0.899,84.778 0.833,83.667 0.833 C 82.556 0.833,81.833 0.768,81.833 0.667 C 81.833 0.562,80.750 0.500,78.917 0.500 C 77.083 0.500,76.000 0.562,76.000 0.667 M127.500 0.667 C 127.500 0.765,126.889 0.833,126.000 0.833 C 125.111 0.833,124.500 0.901,124.500 1.000 C 124.500 1.092,124.125 1.167,123.667 1.167 C 123.208 1.167,122.833 1.242,122.833 1.333 C 122.833 1.425,122.533 1.500,122.167 1.500 C 121.800 1.500,121.500 1.575,121.500 1.667 C 121.500 1.758,121.275 1.833,121.000 1.833 C 120.725 1.833,120.500 1.908,120.500 2.000 C 120.500 2.092,120.275 2.167,120.000 2.167 C 119.725 2.167,119.500 2.242,119.500 2.333 C 119.500 2.425,119.350 2.500,119.167 2.500 C 118.983 2.500,118.833 2.575,118.833 2.667 C 118.833 2.758,118.683 2.833,118.500 2.833 C 118.317 2.833,118.167 2.908,118.167 3.000 C 118.167 3.092,118.017 3.167,117.833 3.167 C 117.650 3.167,117.500 3.242,117.500 3.333 C 117.500 3.425,117.350 3.500,117.167 3.500 C 116.983 3.500,116.833 3.575,116.833 3.667 C 116.833 3.758,116.715 3.833,116.570 3.833 C 116.426 3.833,116.019 4.133,115.667 4.500 C 115.314 4.867,114.942 5.167,114.839 5.167 C 114.594 5.167,113.833 5.930,113.833 6.176 C 113.833 6.280,113.608 6.576,113.333 6.833 C 113.058 7.090,112.833 7.404,112.833 7.530 C 112.833 7.656,112.683 7.868,112.500 8.000 C 112.317 8.132,112.167 8.374,112.167 8.537 C 112.167 8.700,112.092 8.833,112.000 8.833 C 111.908 8.833,111.833 9.058,111.833 9.333 C 111.833 9.608,111.758 9.833,111.667 9.833 C 111.575 9.833,111.500 9.983,111.500 10.167 C 111.500 10.350,111.425 10.500,111.333 10.500 C 111.242 10.500,111.167 10.800,111.167 11.167 C 111.167 11.533,111.092 11.833,111.000 11.833 C 110.894 11.833,110.833 13.194,110.833 15.583 C 110.833 17.972,110.894 19.333,111.000 19.333 C 111.092 19.333,111.167 19.633,111.167 20.000 C 111.167 20.367,111.242 20.667,111.333 20.667 C 111.425 20.667,111.500 20.892,111.500 21.167 C 111.500 21.442,111.575 21.667,111.667 21.667 C 111.758 21.667,111.833 21.817,111.833 22.000 C 111.833 22.183,111.908 22.333,112.000 22.333 C 112.092 22.333,112.167 22.467,112.167 22.630 C 112.167 22.793,112.317 23.035,112.500 23.167 C 112.683 23.299,112.833 23.509,112.833 23.633 C 112.833 23.758,113.133 24.148,113.500 24.500 C 113.867 24.852,114.167 25.227,114.167 25.332 C 114.167 25.579,114.587 26.000,114.832 26.000 C 114.936 26.000,115.387 26.375,115.833 26.833 C 116.280 27.292,116.746 27.667,116.869 27.667 C 116.992 27.667,117.201 27.817,117.333 28.000 C 117.465 28.183,117.690 28.333,117.833 28.333 C 117.976 28.333,118.201 28.483,118.333 28.667 C 118.465 28.850,118.707 29.000,118.870 29.000 C 119.033 29.000,119.167 29.075,119.167 29.167 C 119.167 29.258,119.300 29.333,119.463 29.333 C 119.626 29.333,119.868 29.483,120.000 29.667 C 120.132 29.850,120.374 30.000,120.537 30.000 C 120.700 30.000,120.833 30.075,120.833 30.167 C 120.833 30.258,120.983 30.333,121.167 30.333 C 121.350 30.333,121.500 30.408,121.500 30.500 C 121.500 30.592,121.650 30.667,121.833 30.667 C 122.017 30.667,122.167 30.742,122.167 30.833 C 122.167 30.925,122.317 31.000,122.500 31.000 C 122.683 31.000,122.833 31.075,122.833 31.167 C 122.833 31.258,122.983 31.333,123.167 31.333 C 123.350 31.333,123.500 31.408,123.500 31.500 C 123.500 31.592,123.650 31.667,123.833 31.667 C 124.017 31.667,124.167 31.742,124.167 31.833 C 124.167 31.925,124.317 32.000,124.500 32.000 C 124.683 32.000,124.833 32.075,124.833 32.167 C 124.833 32.258,124.983 32.333,125.167 32.333 C 125.350 32.333,125.500 32.390,125.501 32.458 C 125.501 32.527,125.913 32.771,126.417 33.000 C 126.920 33.229,127.332 33.473,127.333 33.542 C 127.333 33.610,127.483 33.667,127.667 33.667 C 127.850 33.667,128.000 33.742,128.000 33.833 C 128.000 33.925,128.112 34.000,128.250 34.000 C 128.387 34.000,128.500 34.075,128.500 34.167 C 128.500 34.258,128.650 34.333,128.833 34.333 C 129.017 34.333,129.167 34.394,129.167 34.469 C 129.167 34.543,129.429 34.707,129.750 34.833 C 130.071 34.959,130.333 35.123,130.333 35.198 C 130.333 35.272,130.467 35.333,130.630 35.333 C 130.793 35.333,131.035 35.483,131.167 35.667 C 131.299 35.850,131.540 36.000,131.703 36.000 C 131.867 36.000,132.000 36.062,132.000 36.139 C 132.000 36.215,132.206 36.383,132.458 36.512 C 132.710 36.642,133.038 36.879,133.186 37.041 C 133.334 37.202,133.542 37.333,133.647 37.333 C 133.925 37.333,137.000 40.452,137.000 40.734 C 137.000 40.865,137.056 40.997,137.125 41.028 C 137.330 41.119,138.000 42.507,138.000 42.839 C 138.000 43.009,138.075 43.193,138.167 43.250 C 138.263 43.309,138.333 44.196,138.333 45.343 C 138.333 46.559,138.268 47.333,138.167 47.333 C 138.075 47.333,138.000 47.633,138.000 48.000 C 138.000 48.367,137.925 48.667,137.833 48.667 C 137.742 48.667,137.667 48.817,137.667 49.000 C 137.667 49.183,137.592 49.333,137.500 49.333 C 137.408 49.333,137.333 49.483,137.333 49.667 C 137.333 49.850,137.258 50.000,137.167 50.000 C 137.075 50.000,137.000 50.113,137.000 50.252 C 137.000 50.581,133.914 53.667,133.585 53.667 C 133.447 53.667,133.333 53.742,133.333 53.833 C 133.333 53.925,133.183 54.000,133.000 54.000 C 132.817 54.000,132.667 54.075,132.667 54.167 C 132.667 54.258,132.517 54.333,132.333 54.333 C 132.150 54.333,132.000 54.408,132.000 54.500 C 132.000 54.592,131.850 54.667,131.667 54.667 C 131.483 54.667,131.333 54.742,131.333 54.833 C 131.333 54.925,131.108 55.000,130.833 55.000 C 130.558 55.000,130.333 55.075,130.333 55.167 C 130.333 55.258,130.033 55.333,129.667 55.333 C 129.300 55.333,129.000 55.408,129.000 55.500 C 129.000 55.604,127.972 55.667,126.250 55.667 C 124.528 55.667,123.500 55.604,123.500 55.500 C 123.500 55.408,123.125 55.333,122.667 55.333 C 122.208 55.333,121.833 55.258,121.833 55.167 C 121.833 55.075,121.608 55.000,121.333 55.000 C 121.058 55.000,120.833 54.925,120.833 54.833 C 120.833 54.742,120.608 54.667,120.333 54.667 C 120.058 54.667,119.833 54.592,119.833 54.500 C 119.833 54.408,119.683 54.333,119.500 54.333 C 119.317 54.333,119.167 54.258,119.167 54.167 C 119.167 54.075,119.017 54.000,118.833 54.000 C 118.650 54.000,118.500 53.925,118.500 53.833 C 118.500 53.742,118.380 53.667,118.234 53.667 C 118.087 53.667,117.757 53.442,117.500 53.167 C 117.243 52.892,116.949 52.667,116.845 52.667 C 116.601 52.667,115.167 51.232,115.167 50.988 C 115.167 50.885,114.942 50.590,114.667 50.333 C 114.392 50.076,114.167 49.746,114.167 49.600 C 114.167 49.453,114.092 49.333,114.000 49.333 C 113.908 49.333,113.833 49.183,113.833 49.000 C 113.833 48.817,113.758 48.667,113.667 48.667 C 113.575 48.667,113.500 48.442,113.500 48.167 C 113.500 47.892,113.425 47.667,113.333 47.667 C 113.242 47.667,113.167 47.442,113.167 47.167 C 113.167 46.892,113.092 46.667,113.000 46.667 C 112.908 46.667,112.833 46.442,112.833 46.167 L 112.833 45.667 111.500 45.667 L 110.167 45.667 110.167 49.333 C 110.167 51.667,110.227 53.000,110.333 53.000 C 110.438 53.000,110.500 54.028,110.500 55.750 L 110.500 58.500 111.000 58.500 C 111.275 58.500,111.500 58.575,111.500 58.667 C 111.500 58.762,112.000 58.833,112.667 58.833 C 113.333 58.833,113.833 58.905,113.833 59.000 C 113.833 59.093,114.278 59.167,114.833 59.167 C 115.389 59.167,115.833 59.241,115.833 59.333 C 115.833 59.431,116.389 59.500,117.167 59.500 C 117.944 59.500,118.500 59.569,118.500 59.667 C 118.500 59.767,119.167 59.833,120.167 59.833 C 121.167 59.833,121.833 59.900,121.833 60.000 C 121.833 60.106,123.139 60.167,125.417 60.167 C 127.694 60.167,129.000 60.106,129.000 60.000 C 129.000 59.903,129.556 59.833,130.333 59.833 C 131.111 59.833,131.667 59.764,131.667 59.667 C 131.667 59.574,132.111 59.500,132.667 59.500 C 133.222 59.500,133.667 59.426,133.667 59.333 C 133.667 59.242,133.967 59.167,134.333 59.167 C 134.700 59.167,135.000 59.092,135.000 59.000 C 135.000 58.908,135.225 58.833,135.500 58.833 C 135.775 58.833,136.000 58.758,136.000 58.667 C 136.000 58.575,136.225 58.500,136.500 58.500 C 136.775 58.500,137.000 58.425,137.000 58.333 C 137.000 58.242,137.150 58.167,137.333 58.167 C 137.517 58.167,137.667 58.092,137.667 58.000 C 137.667 57.908,137.817 57.833,138.000 57.833 C 138.183 57.833,138.333 57.758,138.333 57.667 C 138.333 57.575,138.483 57.500,138.667 57.500 C 138.850 57.500,139.000 57.433,139.000 57.352 C 139.000 57.270,139.249 57.157,139.554 57.100 C 139.859 57.043,140.268 56.847,140.464 56.665 C 140.659 56.482,140.900 56.333,140.999 56.333 C 141.097 56.333,141.433 56.090,141.745 55.792 C 142.057 55.494,142.692 54.913,143.156 54.501 C 143.620 54.089,144.000 53.694,144.000 53.624 C 144.000 53.554,144.225 53.262,144.500 52.974 C 144.775 52.686,145.000 52.349,145.000 52.225 C 145.000 52.101,145.075 52.000,145.167 52.000 C 145.258 52.000,145.333 51.884,145.333 51.743 C 145.333 51.602,145.483 51.325,145.667 51.128 C 145.850 50.931,146.000 50.597,146.000 50.385 C 146.000 50.173,146.075 50.000,146.167 50.000 C 146.258 50.000,146.333 49.854,146.333 49.677 C 146.333 49.499,146.408 49.307,146.500 49.250 C 146.592 49.193,146.667 48.889,146.667 48.573 C 146.667 48.258,146.742 48.000,146.833 48.000 C 146.926 48.000,147.000 47.556,147.000 47.000 C 147.000 46.444,147.074 46.000,147.167 46.000 C 147.270 46.000,147.333 45.111,147.333 43.667 C 147.333 42.222,147.270 41.333,147.167 41.333 C 147.074 41.333,147.000 40.889,147.000 40.333 C 147.000 39.778,146.926 39.333,146.833 39.333 C 146.742 39.333,146.667 39.108,146.667 38.833 C 146.667 38.558,146.592 38.333,146.500 38.333 C 146.408 38.333,146.333 38.108,146.333 37.833 C 146.333 37.558,146.258 37.333,146.167 37.333 C 146.075 37.333,146.000 37.183,146.000 37.000 C 146.000 36.817,145.925 36.667,145.833 36.667 C 145.742 36.667,145.667 36.517,145.667 36.333 C 145.667 36.150,145.592 36.000,145.500 36.000 C 145.408 36.000,145.333 35.880,145.333 35.734 C 145.333 35.587,145.108 35.257,144.833 35.000 C 144.558 34.743,144.333 34.449,144.333 34.347 C 144.333 34.105,141.561 31.333,141.319 31.333 C 141.217 31.333,140.924 31.108,140.667 30.833 C 140.410 30.558,140.096 30.333,139.970 30.333 C 139.844 30.333,139.632 30.183,139.500 30.000 C 139.368 29.817,139.143 29.667,139.000 29.667 C 138.857 29.667,138.632 29.517,138.500 29.333 C 138.368 29.150,138.126 29.000,137.963 29.000 C 137.800 29.000,137.667 28.925,137.667 28.833 C 137.667 28.742,137.533 28.667,137.370 28.667 C 137.207 28.667,136.965 28.517,136.833 28.333 C 136.701 28.150,136.460 28.000,136.297 28.000 C 136.133 28.000,136.000 27.925,136.000 27.833 C 136.000 27.742,135.850 27.667,135.667 27.667 C 135.483 27.667,135.333 27.592,135.333 27.500 C 135.333 27.408,135.200 27.333,135.037 27.333 C 134.874 27.333,134.632 27.183,134.500 27.000 C 134.368 26.817,134.126 26.667,133.963 26.667 C 133.800 26.667,133.667 26.592,133.667 26.500 C 133.667 26.408,133.517 26.333,133.333 26.333 C 133.150 26.333,133.000 26.258,133.000 26.167 C 133.000 26.075,132.850 26.000,132.667 26.000 C 132.483 26.000,132.333 25.925,132.333 25.833 C 132.333 25.742,132.183 25.667,132.000 25.667 C 131.817 25.667,131.667 25.592,131.667 25.500 C 131.667 25.408,131.517 25.333,131.333 25.333 C 131.150 25.333,131.000 25.258,131.000 25.167 C 131.000 25.075,130.775 25.000,130.500 25.000 C 130.225 25.000,130.000 24.925,130.000 24.833 C 130.000 24.742,129.850 24.667,129.667 24.667 C 129.483 24.667,129.333 24.592,129.333 24.500 C 129.333 24.408,129.183 24.333,129.000 24.333 C 128.817 24.333,128.667 24.258,128.667 24.167 C 128.667 24.075,128.517 24.000,128.333 24.000 C 128.150 24.000,128.000 23.925,128.000 23.833 C 128.000 23.742,127.850 23.667,127.667 23.667 C 127.483 23.667,127.333 23.592,127.333 23.500 C 127.333 23.408,127.183 23.333,127.000 23.333 C 126.817 23.333,126.667 23.258,126.667 23.167 C 126.667 23.075,126.551 23.000,126.410 23.000 C 126.268 23.000,125.992 22.850,125.795 22.667 C 125.598 22.483,125.339 22.333,125.219 22.333 C 125.098 22.333,125.000 22.277,125.000 22.207 C 125.000 22.138,124.756 21.977,124.458 21.850 C 124.160 21.722,123.785 21.504,123.624 21.366 C 123.463 21.227,123.194 21.031,123.027 20.931 C 121.722 20.153,120.357 18.957,120.013 18.292 C 119.883 18.040,119.715 17.833,119.639 17.833 C 119.562 17.833,119.500 17.735,119.500 17.615 C 119.500 17.495,119.350 17.235,119.167 17.038 C 118.983 16.842,118.833 16.490,118.833 16.257 C 118.833 16.024,118.758 15.833,118.667 15.833 C 118.575 15.833,118.500 15.533,118.500 15.167 C 118.500 14.800,118.425 14.500,118.333 14.500 C 118.242 14.500,118.167 14.129,118.167 13.677 C 118.167 13.224,118.242 12.807,118.333 12.750 C 118.425 12.693,118.500 12.393,118.500 12.083 C 118.500 11.773,118.575 11.473,118.667 11.417 C 118.758 11.360,118.833 11.175,118.833 11.006 C 118.833 10.609,119.476 9.369,119.958 8.835 C 120.165 8.607,120.333 8.375,120.333 8.319 C 120.333 8.170,120.936 7.500,121.070 7.500 C 121.133 7.500,121.424 7.275,121.717 7.001 C 122.010 6.726,122.344 6.501,122.458 6.501 C 122.573 6.500,122.667 6.425,122.667 6.333 C 122.667 6.242,122.779 6.167,122.917 6.167 C 123.054 6.167,123.167 6.092,123.167 6.000 C 123.167 5.908,123.354 5.833,123.583 5.833 C 123.813 5.833,124.000 5.758,124.000 5.667 C 124.000 5.575,124.146 5.500,124.323 5.500 C 124.501 5.500,124.693 5.425,124.750 5.333 C 124.807 5.242,125.036 5.167,125.260 5.167 C 125.484 5.167,125.667 5.092,125.667 5.000 C 125.667 4.907,126.111 4.833,126.667 4.833 C 127.222 4.833,127.667 4.759,127.667 4.667 C 127.667 4.449,129.615 4.449,129.750 4.667 C 129.807 4.758,130.411 4.833,131.093 4.833 C 131.809 4.833,132.333 4.904,132.333 5.000 C 132.333 5.092,132.633 5.167,133.000 5.167 C 133.367 5.167,133.667 5.242,133.667 5.333 C 133.667 5.425,133.892 5.500,134.167 5.500 C 134.442 5.500,134.667 5.575,134.667 5.667 C 134.667 5.758,134.817 5.833,135.000 5.833 C 135.183 5.833,135.333 5.908,135.333 6.000 C 135.333 6.092,135.483 6.167,135.667 6.167 C 135.850 6.167,136.000 6.242,136.000 6.333 C 136.000 6.425,136.150 6.500,136.333 6.500 C 136.517 6.500,136.667 6.562,136.667 6.639 C 136.667 6.715,136.872 6.883,137.122 7.014 C 137.711 7.319,139.514 9.122,139.820 9.711 C 139.950 9.962,140.119 10.167,140.195 10.167 C 140.271 10.167,140.333 10.317,140.333 10.500 C 140.333 10.683,140.408 10.833,140.500 10.833 C 140.592 10.833,140.667 10.983,140.667 11.167 C 140.667 11.350,140.742 11.500,140.833 11.500 C 140.925 11.500,141.000 11.650,141.000 11.833 C 141.000 12.017,141.075 12.167,141.167 12.167 C 141.258 12.167,141.333 12.392,141.333 12.667 C 141.333 12.942,141.408 13.167,141.500 13.167 C 141.592 13.167,141.667 13.467,141.667 13.833 L 141.667 14.500 143.167 14.500 L 144.667 14.500 144.667 13.167 C 144.667 12.389,144.597 11.833,144.500 11.833 C 144.394 11.833,144.333 10.611,144.333 8.500 C 144.333 6.389,144.272 5.167,144.167 5.167 C 144.069 5.167,144.000 4.579,144.000 3.738 C 144.000 2.046,143.862 1.833,142.762 1.833 C 142.343 1.833,142.000 1.758,142.000 1.667 C 142.000 1.574,141.556 1.500,141.000 1.500 C 140.444 1.500,140.000 1.426,140.000 1.333 C 140.000 1.238,139.500 1.167,138.833 1.167 C 138.167 1.167,137.667 1.095,137.667 1.000 C 137.667 0.899,136.944 0.833,135.833 0.833 C 134.722 0.833,134.000 0.768,134.000 0.667 C 134.000 0.561,132.806 0.500,130.750 0.500 C 128.694 0.500,127.500 0.561,127.500 0.667 M0.500 2.666 L 0.500 3.833 1.833 3.833 C 2.611 3.833,3.167 3.903,3.167 4.000 C 3.167 4.092,3.542 4.167,4.000 4.167 C 4.458 4.167,4.833 4.242,4.833 4.333 C 4.833 4.425,4.947 4.500,5.087 4.500 C 5.417 4.500,7.167 6.250,7.167 6.580 C 7.167 6.719,7.242 6.833,7.333 6.833 C 7.425 6.833,7.500 7.133,7.500 7.500 C 7.500 7.867,7.575 8.167,7.667 8.167 C 7.777 8.167,7.833 14.194,7.833 25.917 C 7.833 37.639,7.890 43.667,8.000 43.667 C 8.099 43.667,8.167 44.278,8.167 45.167 C 8.167 46.056,8.235 46.667,8.333 46.667 C 8.425 46.667,8.500 47.042,8.500 47.500 C 8.500 47.958,8.575 48.333,8.667 48.333 C 8.758 48.333,8.833 48.633,8.833 49.000 C 8.833 49.367,8.908 49.667,9.000 49.667 C 9.092 49.667,9.167 49.850,9.167 50.073 C 9.167 50.297,9.242 50.527,9.333 50.583 C 9.425 50.640,9.500 50.832,9.500 51.010 C 9.500 51.188,9.575 51.333,9.667 51.333 C 9.758 51.333,9.833 51.483,9.833 51.667 C 9.833 51.850,9.908 52.000,10.000 52.000 C 10.092 52.000,10.167 52.150,10.167 52.333 C 10.167 52.517,10.242 52.667,10.333 52.667 C 10.425 52.667,10.500 52.800,10.500 52.963 C 10.500 53.126,10.650 53.368,10.833 53.500 C 11.017 53.632,11.167 53.829,11.167 53.936 C 11.167 54.506,14.218 57.167,14.872 57.167 C 14.993 57.167,15.201 57.317,15.333 57.500 C 15.465 57.683,15.707 57.833,15.870 57.833 C 16.033 57.833,16.167 57.908,16.167 58.000 C 16.167 58.092,16.392 58.167,16.667 58.167 C 16.942 58.167,17.167 58.242,17.167 58.333 C 17.167 58.425,17.317 58.500,17.500 58.500 C 17.683 58.500,17.833 58.575,17.833 58.667 C 17.833 58.758,18.058 58.833,18.333 58.833 C 18.608 58.833,18.833 58.908,18.833 59.000 C 18.833 59.092,19.133 59.167,19.500 59.167 C 19.867 59.167,20.167 59.242,20.167 59.333 C 20.167 59.426,20.611 59.500,21.167 59.500 C 21.722 59.500,22.167 59.574,22.167 59.667 C 22.167 59.764,22.722 59.833,23.500 59.833 C 24.278 59.833,24.833 59.903,24.833 60.000 C 24.833 60.106,26.250 60.167,28.750 60.167 C 31.250 60.167,32.667 60.106,32.667 60.000 C 32.667 59.903,33.222 59.833,34.000 59.833 C 34.778 59.833,35.333 59.764,35.333 59.667 C 35.333 59.575,35.708 59.500,36.167 59.500 C 36.625 59.500,37.000 59.425,37.000 59.333 C 37.000 59.242,37.300 59.167,37.667 59.167 C 38.033 59.167,38.333 59.092,38.333 59.000 C 38.333 58.908,38.558 58.833,38.833 58.833 C 39.108 58.833,39.333 58.758,39.333 58.667 C 39.333 58.575,39.558 58.500,39.833 58.500 C 40.108 58.500,40.333 58.425,40.333 58.333 C 40.333 58.242,40.483 58.167,40.667 58.167 C 40.850 58.167,41.000 58.092,41.000 58.000 C 41.000 57.908,41.133 57.833,41.297 57.833 C 41.460 57.833,41.701 57.683,41.833 57.500 C 41.965 57.317,42.192 57.167,42.336 57.167 C 42.755 57.167,45.325 54.980,45.331 54.618 C 45.332 54.545,45.483 54.325,45.667 54.128 C 45.850 53.931,46.000 53.672,46.000 53.552 C 46.000 53.432,46.075 53.333,46.167 53.333 C 46.258 53.333,46.333 53.183,46.333 53.000 C 46.333 52.817,46.408 52.667,46.500 52.667 C 46.592 52.667,46.667 52.517,46.667 52.333 C 46.667 52.150,46.742 52.000,46.833 52.000 C 46.925 52.000,47.000 51.850,47.000 51.667 C 47.000 51.483,47.075 51.333,47.167 51.333 C 47.258 51.333,47.333 51.108,47.333 50.833 C 47.333 50.558,47.408 50.333,47.500 50.333 C 47.592 50.333,47.667 50.113,47.667 49.843 C 47.667 49.574,47.742 49.307,47.833 49.250 C 47.925 49.193,48.000 48.814,48.000 48.407 C 48.000 48.000,48.075 47.667,48.167 47.667 C 48.265 47.667,48.333 47.056,48.333 46.167 C 48.333 45.278,48.401 44.667,48.500 44.667 C 48.610 44.667,48.667 38.528,48.667 26.583 C 48.667 14.639,48.723 8.500,48.833 8.500 C 48.925 8.500,49.000 8.200,49.000 7.833 C 49.000 7.467,49.075 7.167,49.167 7.167 C 49.258 7.167,49.333 7.017,49.333 6.833 C 49.333 6.650,49.408 6.500,49.500 6.500 C 49.592 6.500,49.667 6.386,49.667 6.246 C 49.667 5.816,51.108 4.500,51.579 4.500 C 51.811 4.500,52.000 4.425,52.000 4.333 C 52.000 4.242,52.300 4.167,52.667 4.167 C 53.033 4.167,53.333 4.092,53.333 4.000 C 53.333 3.901,53.944 3.833,54.833 3.833 L 56.333 3.833 56.333 2.667 L 56.333 1.500 46.000 1.500 L 35.667 1.500 35.667 2.667 L 35.667 3.833 37.167 3.833 C 38.056 3.833,38.667 3.901,38.667 4.000 C 38.667 4.092,38.967 4.167,39.333 4.167 C 39.700 4.167,40.000 4.242,40.000 4.333 C 40.000 4.425,40.116 4.500,40.257 4.500 C 40.398 4.500,40.675 4.650,40.872 4.833 C 41.069 5.017,41.328 5.167,41.448 5.167 C 41.568 5.167,41.667 5.265,41.667 5.385 C 41.667 5.505,41.817 5.765,42.000 5.962 C 42.183 6.158,42.333 6.435,42.333 6.576 C 42.333 6.718,42.408 6.833,42.500 6.833 C 42.592 6.833,42.667 7.091,42.667 7.407 C 42.667 7.722,42.742 8.027,42.833 8.083 C 42.943 8.151,43.000 14.391,43.000 26.260 C 43.000 38.198,42.943 44.333,42.833 44.333 C 42.741 44.333,42.667 44.778,42.667 45.333 C 42.667 45.889,42.593 46.333,42.500 46.333 C 42.408 46.333,42.333 46.633,42.333 47.000 C 42.333 47.367,42.258 47.667,42.167 47.667 C 42.075 47.667,42.000 47.892,42.000 48.167 C 42.000 48.442,41.925 48.667,41.833 48.667 C 41.742 48.667,41.667 48.892,41.667 49.167 C 41.667 49.442,41.592 49.667,41.500 49.667 C 41.408 49.667,41.333 49.817,41.333 50.000 C 41.333 50.183,41.258 50.333,41.167 50.333 C 41.075 50.333,41.000 50.467,41.000 50.630 C 41.000 50.793,40.850 51.035,40.667 51.167 C 40.483 51.299,40.333 51.504,40.333 51.623 C 40.333 51.927,38.228 54.000,37.920 54.000 C 37.781 54.000,37.667 54.075,37.667 54.167 C 37.667 54.258,37.533 54.333,37.370 54.333 C 37.207 54.333,36.965 54.483,36.833 54.667 C 36.692 54.862,36.402 55.000,36.130 55.000 C 35.875 55.000,35.667 55.075,35.667 55.167 C 35.667 55.258,35.442 55.333,35.167 55.333 C 34.892 55.333,34.667 55.408,34.667 55.500 C 34.667 55.592,34.367 55.667,34.000 55.667 C 33.633 55.667,33.333 55.742,33.333 55.833 C 33.333 55.929,32.833 56.000,32.167 56.000 C 31.500 56.000,31.000 56.071,31.000 56.167 C 31.000 56.268,30.278 56.333,29.167 56.333 C 28.056 56.333,27.333 56.268,27.333 56.167 C 27.333 56.074,26.889 56.000,26.333 56.000 C 25.778 56.000,25.333 55.926,25.333 55.833 C 25.333 55.742,25.108 55.667,24.833 55.667 C 24.558 55.667,24.333 55.592,24.333 55.500 C 24.333 55.408,24.146 55.333,23.917 55.333 C 23.688 55.333,23.500 55.258,23.500 55.167 C 23.500 55.075,23.402 55.000,23.283 55.000 C 22.977 55.000,22.170 54.608,22.168 54.458 C 22.167 54.390,22.054 54.333,21.917 54.333 C 21.779 54.333,21.667 54.258,21.667 54.167 C 21.667 54.075,21.590 54.000,21.497 54.000 C 21.248 54.000,19.167 51.877,19.167 51.623 C 19.167 51.504,19.017 51.299,18.833 51.167 C 18.650 51.035,18.500 50.793,18.500 50.630 C 18.500 50.467,18.425 50.333,18.333 50.333 C 18.242 50.333,18.167 50.183,18.167 50.000 C 18.167 49.817,18.092 49.667,18.000 49.667 C 17.908 49.667,17.833 49.484,17.833 49.260 C 17.833 49.036,17.758 48.807,17.667 48.750 C 17.575 48.693,17.500 48.468,17.500 48.250 C 17.500 48.032,17.425 47.807,17.333 47.750 C 17.242 47.693,17.167 47.426,17.167 47.157 C 17.167 46.887,17.092 46.667,17.000 46.667 C 16.908 46.667,16.833 46.292,16.833 45.833 C 16.833 45.375,16.758 45.000,16.667 45.000 C 16.569 45.000,16.500 44.420,16.500 43.593 C 16.500 42.819,16.425 42.140,16.333 42.083 C 16.103 41.941,16.103 8.833,16.333 8.833 C 16.425 8.833,16.500 8.458,16.500 8.000 C 16.500 7.542,16.575 7.167,16.667 7.167 C 16.758 7.167,16.833 7.053,16.833 6.914 C 16.833 5.947,18.982 4.167,20.149 4.167 C 20.397 4.167,20.672 4.095,20.759 4.007 C 20.847 3.920,21.556 3.826,22.334 3.799 L 23.750 3.750 23.750 2.667 L 23.750 1.583 12.125 1.541 L 0.500 1.498 0.500 2.666 M231.000 2.667 L 231.000 3.833 232.323 3.833 C 233.051 3.833,233.693 3.908,233.750 4.000 C 233.807 4.092,234.186 4.167,234.593 4.167 C 235.000 4.167,235.333 4.242,235.333 4.333 C 235.333 4.425,235.465 4.502,235.625 4.504 C 235.993 4.509,237.667 6.194,237.667 6.560 C 237.667 6.710,237.742 6.833,237.833 6.833 C 237.925 6.833,238.000 7.133,238.000 7.500 C 238.000 7.867,238.075 8.167,238.167 8.167 C 238.277 8.167,238.333 15.694,238.333 30.417 C 238.333 45.139,238.277 52.667,238.167 52.667 C 238.075 52.667,238.000 52.967,238.000 53.333 C 238.000 53.700,237.925 54.000,237.833 54.000 C 237.742 54.000,237.667 54.133,237.667 54.297 C 237.667 54.460,237.517 54.701,237.333 54.833 C 237.150 54.965,237.000 55.175,237.000 55.299 C 237.000 55.604,236.583 56.000,236.262 56.000 C 236.118 56.000,236.000 56.075,236.000 56.167 C 236.000 56.258,235.850 56.333,235.667 56.333 C 235.483 56.333,235.333 56.408,235.333 56.500 C 235.333 56.592,235.033 56.667,234.667 56.667 C 234.300 56.667,234.000 56.742,234.000 56.833 C 234.000 56.932,233.389 57.000,232.500 57.000 L 231.000 57.000 231.000 58.083 L 231.000 59.167 244.500 59.167 C 253.389 59.167,258.000 59.110,258.000 59.000 C 258.000 58.903,258.556 58.833,259.333 58.833 C 260.111 58.833,260.667 58.764,260.667 58.667 C 260.667 58.575,261.042 58.500,261.500 58.500 C 261.958 58.500,262.333 58.425,262.333 58.333 C 262.333 58.242,262.633 58.167,263.000 58.167 C 263.367 58.167,263.667 58.092,263.667 58.000 C 263.667 57.908,263.967 57.833,264.333 57.833 C 264.700 57.833,265.000 57.758,265.000 57.667 C 265.000 57.575,265.225 57.500,265.500 57.500 C 265.775 57.500,266.000 57.425,266.000 57.333 C 266.000 57.242,266.195 57.167,266.433 57.167 C 266.976 57.167,268.148 56.675,269.917 55.705 C 271.580 54.794,275.167 51.800,275.167 51.324 C 275.167 51.220,275.392 50.924,275.667 50.667 C 275.942 50.410,276.167 50.096,276.167 49.970 C 276.167 49.844,276.317 49.632,276.500 49.500 C 276.683 49.368,276.833 49.143,276.833 49.000 C 276.833 48.857,276.983 48.632,277.167 48.500 C 277.350 48.368,277.500 48.126,277.500 47.963 C 277.500 47.800,277.575 47.667,277.667 47.667 C 277.758 47.667,277.833 47.517,277.833 47.333 C 277.833 47.150,277.908 47.000,278.000 47.000 C 278.092 47.000,278.167 46.850,278.167 46.667 C 278.167 46.483,278.242 46.333,278.333 46.333 C 278.425 46.333,278.500 46.108,278.500 45.833 C 278.500 45.558,278.575 45.333,278.667 45.333 C 278.758 45.333,278.833 45.183,278.833 45.000 C 278.833 44.817,278.908 44.667,279.000 44.667 C 279.092 44.667,279.167 44.442,279.167 44.167 C 279.167 43.892,279.242 43.667,279.333 43.667 C 279.425 43.667,279.500 43.367,279.500 43.000 C 279.500 42.633,279.575 42.333,279.667 42.333 C 279.758 42.333,279.833 42.108,279.833 41.833 C 279.833 41.558,279.908 41.333,280.000 41.333 C 280.092 41.333,280.167 40.958,280.167 40.500 C 280.167 40.042,280.242 39.667,280.333 39.667 C 280.426 39.667,280.500 39.222,280.500 38.667 C 280.500 38.111,280.574 37.667,280.667 37.667 C 280.768 37.667,280.833 36.944,280.833 35.833 C 280.833 34.722,280.899 34.000,281.000 34.000 C 281.106 34.000,281.167 32.667,281.167 30.333 C 281.167 28.000,281.106 26.667,281.000 26.667 C 280.900 26.667,280.833 25.976,280.833 24.927 C 280.833 23.946,280.761 23.141,280.667 23.083 C 280.575 23.027,280.500 22.577,280.500 22.083 C 280.500 21.590,280.425 21.140,280.333 21.083 C 280.242 21.027,280.167 20.647,280.167 20.240 C 280.167 19.833,280.092 19.500,280.000 19.500 C 279.908 19.500,279.833 19.200,279.833 18.833 C 279.833 18.467,279.758 18.167,279.667 18.167 C 279.575 18.167,279.500 17.942,279.500 17.667 C 279.500 17.392,279.425 17.167,279.333 17.167 C 279.242 17.167,279.167 16.942,279.167 16.667 C 279.167 16.392,279.092 16.167,279.000 16.167 C 278.908 16.167,278.833 15.942,278.833 15.667 C 278.833 15.392,278.758 15.167,278.667 15.167 C 278.575 15.167,278.500 15.017,278.500 14.833 C 278.500 14.650,278.425 14.500,278.333 14.500 C 278.242 14.500,278.167 14.350,278.167 14.167 C 278.167 13.983,278.092 13.833,278.000 13.833 C 277.908 13.833,277.833 13.683,277.833 13.500 C 277.833 13.317,277.758 13.167,277.667 13.167 C 277.575 13.167,277.500 13.017,277.500 12.833 C 277.500 12.650,277.425 12.500,277.333 12.500 C 277.242 12.500,277.167 12.367,277.167 12.203 C 277.167 12.040,277.017 11.799,276.833 11.667 C 276.650 11.535,276.500 11.323,276.500 11.197 C 276.500 11.070,276.275 10.757,276.000 10.500 C 275.725 10.243,275.500 9.951,275.500 9.851 C 275.500 9.459,272.923 6.833,272.538 6.833 C 272.466 6.833,272.299 6.683,272.167 6.500 C 272.035 6.317,271.830 6.167,271.713 6.167 C 271.596 6.167,271.500 6.092,271.500 6.000 C 271.500 5.908,271.422 5.833,271.326 5.833 C 271.231 5.833,270.992 5.683,270.795 5.500 C 270.598 5.317,270.339 5.167,270.219 5.167 C 270.098 5.167,270.000 5.092,270.000 5.000 C 270.000 4.908,269.850 4.833,269.667 4.833 C 269.483 4.833,269.333 4.758,269.333 4.667 C 269.333 4.575,269.183 4.500,269.000 4.500 C 268.817 4.500,268.667 4.425,268.667 4.333 C 268.667 4.242,268.521 4.167,268.343 4.167 C 268.165 4.167,267.973 4.092,267.917 4.000 C 267.860 3.908,267.631 3.833,267.407 3.833 C 267.183 3.833,267.000 3.758,267.000 3.667 C 267.000 3.575,266.775 3.500,266.500 3.500 C 266.225 3.500,266.000 3.425,266.000 3.333 C 266.000 3.242,265.775 3.167,265.500 3.167 C 265.225 3.167,265.000 3.092,265.000 3.000 C 265.000 2.908,264.779 2.833,264.510 2.833 C 264.240 2.833,263.973 2.758,263.917 2.667 C 263.860 2.575,263.481 2.500,263.073 2.500 C 262.666 2.500,262.333 2.425,262.333 2.333 C 262.333 2.241,261.889 2.167,261.333 2.167 C 260.778 2.167,260.333 2.093,260.333 2.000 C 260.333 1.903,259.778 1.833,259.000 1.833 C 258.222 1.833,257.667 1.764,257.667 1.667 C 257.667 1.557,253.111 1.500,244.333 1.500 L 231.000 1.500 231.000 2.667 M254.667 5.667 C 254.667 5.762,255.167 5.833,255.833 5.833 C 256.500 5.833,257.000 5.905,257.000 6.000 C 257.000 6.092,257.375 6.167,257.833 6.167 C 258.292 6.167,258.667 6.242,258.667 6.333 C 258.667 6.425,258.892 6.500,259.167 6.500 C 259.442 6.500,259.667 6.575,259.667 6.667 C 259.667 6.758,259.892 6.833,260.167 6.833 C 260.442 6.833,260.667 6.908,260.667 7.000 C 260.667 7.092,260.892 7.167,261.167 7.167 C 261.442 7.167,261.667 7.242,261.667 7.333 C 261.667 7.425,261.817 7.500,262.000 7.500 C 262.183 7.500,262.333 7.575,262.333 7.667 C 262.333 7.758,262.467 7.833,262.630 7.833 C 262.793 7.833,263.035 7.983,263.167 8.167 C 263.299 8.350,263.524 8.500,263.667 8.500 C 263.810 8.500,264.035 8.650,264.167 8.833 C 264.299 9.017,264.504 9.167,264.623 9.167 C 264.904 9.167,267.667 11.930,267.667 12.211 C 267.667 12.329,267.817 12.535,268.000 12.667 C 268.183 12.799,268.333 13.040,268.333 13.203 C 268.333 13.367,268.408 13.500,268.500 13.500 C 268.592 13.500,268.667 13.598,268.667 13.719 C 268.667 13.839,268.817 14.098,269.000 14.295 C 269.183 14.492,269.333 14.801,269.333 14.983 C 269.333 15.165,269.408 15.360,269.500 15.417 C 269.592 15.473,269.667 15.665,269.667 15.843 C 269.667 16.021,269.742 16.167,269.833 16.167 C 269.925 16.167,270.000 16.354,270.000 16.583 C 270.000 16.813,270.075 17.000,270.167 17.000 C 270.258 17.000,270.333 17.225,270.333 17.500 C 270.333 17.775,270.408 18.000,270.500 18.000 C 270.592 18.000,270.667 18.225,270.667 18.500 C 270.667 18.775,270.742 19.000,270.833 19.000 C 270.925 19.000,271.000 19.300,271.000 19.667 C 271.000 20.033,271.075 20.333,271.167 20.333 C 271.259 20.333,271.333 20.778,271.333 21.333 C 271.333 21.889,271.407 22.333,271.500 22.333 C 271.599 22.333,271.667 22.944,271.667 23.833 C 271.667 24.722,271.735 25.333,271.833 25.333 C 271.941 25.333,272.000 27.111,272.000 30.333 C 272.000 33.556,271.941 35.333,271.833 35.333 C 271.735 35.333,271.667 35.944,271.667 36.833 C 271.667 37.722,271.599 38.333,271.500 38.333 C 271.408 38.333,271.333 38.708,271.333 39.167 C 271.333 39.625,271.258 40.000,271.167 40.000 C 271.075 40.000,271.000 40.375,271.000 40.833 C 271.000 41.292,270.925 41.667,270.833 41.667 C 270.742 41.667,270.667 41.892,270.667 42.167 C 270.667 42.442,270.592 42.667,270.500 42.667 C 270.408 42.667,270.333 42.892,270.333 43.167 C 270.333 43.442,270.258 43.667,270.167 43.667 C 270.075 43.667,270.000 43.892,270.000 44.167 C 270.000 44.442,269.925 44.667,269.833 44.667 C 269.742 44.667,269.667 44.817,269.667 45.000 C 269.667 45.183,269.592 45.333,269.500 45.333 C 269.408 45.333,269.333 45.483,269.333 45.667 C 269.333 45.850,269.258 46.000,269.167 46.000 C 269.075 46.000,269.000 46.150,269.000 46.333 C 269.000 46.517,268.925 46.667,268.833 46.667 C 268.742 46.667,268.667 46.817,268.667 47.000 C 268.667 47.183,268.592 47.333,268.500 47.333 C 268.408 47.333,268.333 47.453,268.333 47.600 C 268.333 47.746,268.108 48.076,267.833 48.333 C 267.558 48.590,267.333 48.884,267.333 48.986 C 267.333 49.247,264.886 51.667,264.623 51.667 C 264.504 51.667,264.299 51.817,264.167 52.000 C 264.035 52.183,263.810 52.333,263.667 52.333 C 263.524 52.333,263.299 52.483,263.167 52.667 C 263.035 52.850,262.793 53.000,262.630 53.000 C 262.467 53.000,262.333 53.075,262.333 53.167 C 262.333 53.258,262.183 53.333,262.000 53.333 C 261.817 53.333,261.667 53.408,261.667 53.500 C 261.667 53.592,261.442 53.667,261.167 53.667 C 260.892 53.667,260.667 53.742,260.667 53.833 C 260.667 53.925,260.517 54.000,260.333 54.000 C 260.150 54.000,260.000 54.075,260.000 54.167 C 260.000 54.258,259.700 54.333,259.333 54.333 C 258.967 54.333,258.667 54.408,258.667 54.500 C 258.667 54.592,258.367 54.667,258.000 54.667 C 257.633 54.667,257.333 54.742,257.333 54.833 C 257.333 54.926,256.889 55.000,256.333 55.000 C 255.778 55.000,255.333 55.074,255.333 55.167 C 255.333 55.272,254.222 55.333,252.333 55.333 C 250.444 55.333,249.333 55.272,249.333 55.167 C 249.333 55.075,249.143 55.000,248.911 55.000 C 248.348 55.000,247.333 53.985,247.333 53.422 C 247.333 53.190,247.258 53.000,247.167 53.000 C 247.075 53.000,247.000 52.625,247.000 52.167 C 247.000 51.708,246.925 51.333,246.833 51.333 C 246.723 51.333,246.667 44.250,246.667 30.417 C 246.667 16.583,246.723 9.500,246.833 9.500 C 246.926 9.500,247.000 9.056,247.000 8.500 C 247.000 7.944,247.074 7.500,247.167 7.500 C 247.258 7.500,247.333 7.385,247.333 7.244 C 247.333 6.913,248.413 5.833,248.744 5.833 C 248.885 5.833,249.000 5.758,249.000 5.667 C 249.000 5.562,250.056 5.500,251.833 5.500 C 253.611 5.500,254.667 5.562,254.667 5.667 M290.500 7.333 C 290.500 7.425,290.386 7.500,290.246 7.500 C 289.810 7.500,288.167 9.275,288.167 9.746 C 288.167 9.978,288.092 10.167,288.000 10.167 C 287.901 10.167,287.833 10.802,287.833 11.740 C 287.833 12.609,287.908 13.360,288.000 13.417 C 288.092 13.473,288.167 13.665,288.167 13.843 C 288.167 14.021,288.242 14.167,288.333 14.167 C 288.425 14.167,288.500 14.264,288.500 14.384 C 288.500 14.845,290.218 16.167,290.818 16.167 C 290.999 16.167,291.193 16.242,291.250 16.333 C 291.307 16.425,291.911 16.500,292.593 16.500 C 293.309 16.500,293.833 16.430,293.833 16.333 C 293.833 16.242,293.981 16.167,294.162 16.167 C 294.883 16.167,296.499 14.928,296.500 14.375 C 296.500 14.260,296.575 14.167,296.667 14.167 C 296.758 14.167,296.833 14.017,296.833 13.833 C 296.833 13.650,296.908 13.500,297.000 13.500 C 297.100 13.500,297.167 12.833,297.167 11.833 C 297.167 10.833,297.100 10.167,297.000 10.167 C 296.908 10.167,296.833 9.978,296.833 9.746 C 296.833 9.275,295.190 7.500,294.754 7.500 C 294.614 7.500,294.500 7.425,294.500 7.333 C 294.500 7.231,293.722 7.167,292.500 7.167 C 291.278 7.167,290.500 7.231,290.500 7.333 M363.333 16.667 C 363.333 16.758,363.108 16.833,362.833 16.833 C 362.558 16.833,362.333 16.908,362.333 17.000 C 362.333 17.092,362.200 17.167,362.037 17.167 C 361.874 17.167,361.632 17.317,361.500 17.500 C 361.368 17.683,361.161 17.833,361.041 17.833 C 360.757 17.833,359.667 18.923,359.667 19.208 C 359.667 19.328,359.517 19.535,359.333 19.667 C 359.150 19.799,359.000 20.003,359.000 20.120 C 359.000 20.237,358.925 20.333,358.833 20.333 C 358.742 20.333,358.667 20.483,358.667 20.667 C 358.667 20.850,358.592 21.000,358.500 21.000 C 358.408 21.000,358.333 21.112,358.333 21.250 C 358.333 21.387,358.258 21.500,358.167 21.500 C 358.075 21.500,358.000 21.688,358.000 21.917 C 358.000 22.146,357.925 22.333,357.833 22.333 C 357.742 22.333,357.667 22.483,357.667 22.667 C 357.667 22.850,357.592 23.000,357.500 23.000 C 357.408 23.000,357.333 23.114,357.333 23.252 C 357.333 23.391,357.240 23.672,357.125 23.877 C 357.010 24.082,356.907 24.272,356.895 24.300 C 356.882 24.327,356.599 24.196,356.265 24.008 C 355.930 23.820,355.509 23.667,355.328 23.667 C 355.148 23.667,355.000 23.592,355.000 23.500 C 355.000 23.408,354.779 23.333,354.510 23.333 C 354.240 23.333,353.973 23.258,353.917 23.167 C 353.860 23.075,353.485 23.000,353.083 23.000 C 352.682 23.000,352.307 22.925,352.250 22.833 C 352.187 22.732,350.918 22.667,349.000 22.667 C 347.082 22.667,345.813 22.732,345.750 22.833 C 345.693 22.925,345.243 23.000,344.750 23.000 C 344.257 23.000,343.807 23.075,343.750 23.167 C 343.693 23.258,343.351 23.333,342.990 23.333 C 342.629 23.333,342.333 23.408,342.333 23.500 C 342.333 23.592,342.108 23.667,341.833 23.667 C 341.558 23.667,341.333 23.742,341.333 23.833 C 341.333 23.925,341.190 24.000,341.016 24.000 C 340.638 24.000,339.333 24.670,339.333 24.864 C 339.333 24.939,339.200 25.000,339.037 25.000 C 338.874 25.000,338.632 25.150,338.500 25.333 C 338.368 25.517,338.179 25.667,338.080 25.667 C 337.881 25.667,336.667 26.859,336.667 27.056 C 336.667 27.124,336.517 27.342,336.333 27.538 C 336.150 27.735,336.000 27.995,336.000 28.115 C 336.000 28.235,335.925 28.333,335.833 28.333 C 335.742 28.333,335.667 28.483,335.667 28.667 C 335.667 28.850,335.592 29.000,335.500 29.000 C 335.408 29.000,335.333 29.146,335.333 29.323 C 335.333 29.501,335.258 29.693,335.167 29.750 C 335.075 29.807,335.000 30.111,335.000 30.427 C 335.000 30.742,334.925 31.000,334.833 31.000 C 334.742 31.000,334.667 31.375,334.667 31.833 C 334.667 32.292,334.592 32.667,334.500 32.667 C 334.397 32.667,334.333 33.580,334.333 35.073 C 334.333 36.498,334.401 37.522,334.500 37.583 C 334.592 37.640,334.667 38.090,334.667 38.583 C 334.667 39.077,334.742 39.527,334.833 39.583 C 334.925 39.640,335.000 39.907,335.000 40.177 C 335.000 40.446,335.075 40.667,335.167 40.667 C 335.258 40.667,335.333 40.810,335.333 40.984 C 335.333 41.362,336.003 42.667,336.198 42.667 C 336.272 42.667,336.333 42.783,336.333 42.926 C 336.333 43.068,336.783 43.627,337.333 44.167 C 338.251 45.067,338.584 45.667,338.167 45.667 C 338.075 45.667,338.000 45.800,338.000 45.963 C 338.000 46.126,337.850 46.368,337.667 46.500 C 337.483 46.632,337.333 46.857,337.333 47.000 C 337.333 47.143,337.183 47.368,337.000 47.500 C 336.817 47.632,336.667 47.874,336.667 48.037 C 336.667 48.200,336.592 48.333,336.500 48.333 C 336.408 48.333,336.333 48.483,336.333 48.667 C 336.333 48.850,336.258 49.000,336.167 49.000 C 336.075 49.000,336.000 49.225,336.000 49.500 C 336.000 49.775,335.925 50.000,335.833 50.000 C 335.732 50.000,335.667 50.770,335.667 51.977 C 335.667 54.536,336.636 56.650,338.008 57.086 C 338.457 57.229,338.415 57.410,337.875 57.654 C 335.865 58.561,333.333 61.266,333.333 62.506 C 333.333 62.675,333.258 62.860,333.167 62.917 C 333.068 62.978,333.000 64.002,333.000 65.427 C 333.000 66.920,333.063 67.833,333.167 67.833 C 333.258 67.833,333.333 68.058,333.333 68.333 C 333.333 68.608,333.408 68.833,333.500 68.833 C 333.592 68.833,333.667 68.983,333.667 69.167 C 333.667 69.350,333.742 69.500,333.833 69.500 C 333.925 69.500,334.000 69.614,334.000 69.753 C 334.000 70.060,336.407 72.500,336.711 72.500 C 336.829 72.500,337.035 72.650,337.167 72.833 C 337.299 73.017,337.540 73.167,337.703 73.167 C 337.867 73.167,338.000 73.242,338.000 73.333 C 338.000 73.425,338.150 73.500,338.333 73.500 C 338.517 73.500,338.667 73.575,338.667 73.667 C 338.667 73.758,338.817 73.833,339.000 73.833 C 339.183 73.833,339.333 73.908,339.333 74.000 C 339.333 74.092,339.558 74.167,339.833 74.167 C 340.108 74.167,340.333 74.242,340.333 74.333 C 340.333 74.425,340.633 74.500,341.000 74.500 C 341.367 74.500,341.667 74.575,341.667 74.667 C 341.667 74.758,341.967 74.833,342.333 74.833 C 342.700 74.833,343.000 74.908,343.000 75.000 C 343.000 75.095,343.500 75.167,344.167 75.167 C 344.833 75.167,345.333 75.238,345.333 75.333 C 345.333 75.439,346.500 75.500,348.500 75.500 C 350.500 75.500,351.667 75.439,351.667 75.333 C 351.667 75.236,352.222 75.167,353.000 75.167 C 353.778 75.167,354.333 75.097,354.333 75.000 C 354.333 74.908,354.633 74.833,355.000 74.833 C 355.367 74.833,355.667 74.758,355.667 74.667 C 355.667 74.575,355.967 74.500,356.333 74.500 C 356.700 74.500,357.000 74.425,357.000 74.333 C 357.000 74.242,357.225 74.167,357.500 74.167 C 357.775 74.167,358.000 74.092,358.000 74.000 C 358.000 73.908,358.150 73.833,358.333 73.833 C 358.517 73.833,358.667 73.758,358.667 73.667 C 358.667 73.575,358.892 73.500,359.167 73.500 C 359.442 73.500,359.667 73.425,359.667 73.333 C 359.667 73.242,359.817 73.167,360.000 73.167 C 360.183 73.167,360.333 73.092,360.333 73.000 C 360.333 72.908,360.467 72.833,360.630 72.833 C 360.793 72.833,361.035 72.683,361.167 72.500 C 361.299 72.317,361.524 72.167,361.667 72.167 C 361.810 72.167,362.035 72.017,362.167 71.833 C 362.299 71.650,362.504 71.500,362.623 71.500 C 362.880 71.500,365.667 68.749,365.667 68.495 C 365.667 68.399,365.817 68.158,366.000 67.962 C 366.183 67.765,366.333 67.505,366.333 67.385 C 366.333 67.265,366.408 67.167,366.500 67.167 C 366.592 67.167,366.667 66.942,366.667 66.667 C 366.667 66.392,366.742 66.167,366.833 66.167 C 366.925 66.167,367.000 66.021,367.000 65.843 C 367.000 65.665,367.075 65.473,367.167 65.417 C 367.258 65.360,367.333 65.060,367.333 64.750 C 367.333 64.440,367.408 64.140,367.500 64.083 C 367.598 64.023,367.667 63.029,367.667 61.667 C 367.667 60.304,367.598 59.311,367.500 59.250 C 367.408 59.193,367.333 58.889,367.333 58.573 C 367.333 58.258,367.258 58.000,367.167 58.000 C 367.075 58.000,367.000 57.850,367.000 57.667 C 367.000 57.483,366.925 57.333,366.833 57.333 C 366.742 57.333,366.667 57.183,366.667 57.000 C 366.667 56.817,366.592 56.667,366.500 56.667 C 366.408 56.667,366.333 56.552,366.333 56.411 C 366.333 56.099,365.263 55.000,364.959 55.000 C 364.839 55.000,364.632 54.850,364.500 54.667 C 364.368 54.483,364.126 54.333,363.963 54.333 C 363.800 54.333,363.667 54.258,363.667 54.167 C 363.667 54.075,363.517 54.000,363.333 54.000 C 363.150 54.000,363.000 53.925,363.000 53.833 C 363.000 53.742,362.850 53.667,362.667 53.667 C 362.483 53.667,362.333 53.592,362.333 53.500 C 362.333 53.408,362.033 53.333,361.667 53.333 C 361.300 53.333,361.000 53.258,361.000 53.167 C 361.000 53.075,360.625 53.000,360.167 53.000 C 359.708 53.000,359.333 52.925,359.333 52.833 C 359.333 52.725,356.611 52.667,351.500 52.667 C 346.389 52.667,343.667 52.609,343.667 52.500 C 343.667 52.408,343.292 52.333,342.833 52.333 C 342.375 52.333,342.000 52.258,342.000 52.167 C 342.000 52.075,341.885 52.000,341.744 52.000 C 341.333 52.000,340.333 50.892,340.333 50.436 C 340.333 50.212,340.240 49.984,340.125 49.931 C 339.958 49.853,339.958 49.814,340.125 49.736 C 340.240 49.683,340.333 49.345,340.333 48.986 C 340.333 48.627,340.408 48.333,340.500 48.333 C 340.592 48.333,340.667 48.217,340.667 48.076 C 340.667 47.934,340.851 47.634,341.076 47.409 C 341.490 46.995,342.000 46.861,342.000 47.167 C 342.000 47.258,342.221 47.333,342.490 47.333 C 342.760 47.333,343.027 47.408,343.083 47.500 C 343.140 47.592,343.744 47.667,344.427 47.667 C 345.142 47.667,345.667 47.737,345.667 47.833 C 345.667 47.937,346.611 48.000,348.167 48.000 C 349.722 48.000,350.667 47.937,350.667 47.833 C 350.667 47.738,351.167 47.667,351.833 47.667 C 352.500 47.667,353.000 47.595,353.000 47.500 C 353.000 47.408,353.300 47.333,353.667 47.333 C 354.033 47.333,354.333 47.258,354.333 47.167 C 354.333 47.075,354.558 47.000,354.833 47.000 C 355.108 47.000,355.333 46.925,355.333 46.833 C 355.333 46.742,355.476 46.667,355.650 46.667 C 356.071 46.667,357.812 45.742,358.171 45.328 C 358.328 45.148,358.536 45.000,358.633 45.000 C 358.841 45.000,360.333 43.501,360.333 43.293 C 360.333 43.216,360.483 42.992,360.667 42.795 C 360.850 42.598,361.000 42.339,361.000 42.219 C 361.000 42.098,361.075 42.000,361.167 42.000 C 361.258 42.000,361.333 41.850,361.333 41.667 C 361.333 41.483,361.408 41.333,361.500 41.333 C 361.592 41.333,361.667 41.108,361.667 40.833 C 361.667 40.558,361.742 40.333,361.833 40.333 C 361.925 40.333,362.000 40.108,362.000 39.833 C 362.000 39.558,362.075 39.333,362.167 39.333 C 362.262 39.333,362.333 38.833,362.333 38.167 C 362.333 37.500,362.405 37.000,362.500 37.000 C 362.599 37.000,362.667 36.389,362.667 35.500 C 362.667 34.611,362.599 34.000,362.500 34.000 C 362.405 34.000,362.333 33.500,362.333 32.833 C 362.333 32.167,362.262 31.667,362.167 31.667 C 362.075 31.667,362.000 31.442,362.000 31.167 C 362.000 30.892,361.925 30.667,361.833 30.667 C 361.742 30.667,361.667 30.442,361.667 30.167 C 361.667 29.892,361.592 29.667,361.500 29.667 C 361.408 29.667,361.333 29.517,361.333 29.333 C 361.333 29.150,361.258 29.000,361.167 29.000 C 361.075 29.000,361.000 28.850,361.000 28.667 C 361.000 28.483,360.925 28.333,360.833 28.333 C 360.742 28.333,360.667 28.211,360.667 28.061 C 360.667 27.912,360.535 27.668,360.374 27.520 C 360.213 27.371,359.975 27.044,359.846 26.792 C 359.716 26.540,359.548 26.333,359.472 26.333 C 359.396 26.333,359.333 26.108,359.333 25.833 C 359.333 25.558,359.408 25.333,359.500 25.333 C 359.592 25.333,359.667 25.183,359.667 25.000 C 359.667 24.817,359.742 24.667,359.833 24.667 C 359.925 24.667,360.000 24.551,360.000 24.409 C 360.000 24.083,360.740 23.333,361.062 23.333 C 361.196 23.333,361.349 23.240,361.403 23.125 C 361.481 22.958,361.519 22.958,361.597 23.125 C 361.651 23.240,361.838 23.333,362.014 23.333 C 362.190 23.333,362.333 23.408,362.333 23.500 C 362.333 23.592,362.483 23.667,362.667 23.667 C 362.850 23.667,363.000 23.742,363.000 23.833 C 363.000 23.925,363.225 24.000,363.500 24.000 C 363.775 24.000,364.000 24.075,364.000 24.167 C 364.000 24.259,364.444 24.333,365.000 24.333 C 365.556 24.333,366.000 24.259,366.000 24.167 C 366.000 24.075,366.225 24.000,366.500 24.000 C 366.775 24.000,367.000 23.925,367.000 23.833 C 367.000 23.742,367.115 23.667,367.256 23.667 C 367.675 23.667,368.667 22.558,368.667 22.089 C 368.667 21.857,368.742 21.667,368.833 21.667 C 368.930 21.667,369.000 21.139,369.000 20.417 C 369.000 19.694,368.930 19.167,368.833 19.167 C 368.742 19.167,368.667 19.017,368.667 18.833 C 368.667 18.650,368.592 18.500,368.500 18.500 C 368.408 18.500,368.333 18.384,368.333 18.242 C 368.333 17.909,367.591 17.167,367.258 17.167 C 367.116 17.167,367.000 17.092,367.000 17.000 C 367.000 16.908,366.850 16.833,366.667 16.833 C 366.483 16.833,366.333 16.758,366.333 16.667 C 366.333 16.568,365.722 16.500,364.833 16.500 C 363.944 16.500,363.333 16.568,363.333 16.667 M161.667 22.833 C 161.667 22.925,161.259 23.000,160.760 23.000 C 160.261 23.000,159.807 23.075,159.750 23.167 C 159.693 23.258,159.393 23.333,159.083 23.333 C 158.773 23.333,158.473 23.408,158.417 23.500 C 158.360 23.592,158.135 23.667,157.917 23.667 C 157.698 23.667,157.473 23.742,157.417 23.833 C 157.360 23.925,157.168 24.000,156.990 24.000 C 156.812 24.000,156.667 24.075,156.667 24.167 C 156.667 24.258,156.517 24.333,156.333 24.333 C 156.150 24.333,156.000 24.408,156.000 24.500 C 156.000 24.592,155.850 24.667,155.667 24.667 C 155.483 24.667,155.333 24.742,155.333 24.833 C 155.333 24.925,155.183 25.000,155.000 25.000 C 154.817 25.000,154.667 25.075,154.667 25.167 C 154.667 25.258,154.558 25.333,154.426 25.333 C 154.112 25.333,152.000 27.446,152.000 27.759 C 152.000 27.892,151.925 28.000,151.833 28.000 C 151.742 28.000,151.667 28.225,151.667 28.500 C 151.667 28.775,151.592 29.000,151.500 29.000 C 151.401 29.000,151.333 29.611,151.333 30.500 C 151.333 31.389,151.401 32.000,151.500 32.000 C 151.592 32.000,151.667 32.114,151.667 32.254 C 151.667 32.585,153.082 34.000,153.412 34.000 C 153.552 34.000,153.667 34.075,153.667 34.167 C 153.667 34.265,154.278 34.333,155.167 34.333 C 156.056 34.333,156.667 34.265,156.667 34.167 C 156.667 34.075,156.857 34.000,157.089 34.000 C 157.558 34.000,158.667 33.009,158.667 32.589 C 158.667 32.448,158.742 32.333,158.833 32.333 C 158.925 32.333,159.000 32.183,159.000 32.000 C 159.000 31.817,159.075 31.667,159.167 31.667 C 159.267 31.667,159.333 31.000,159.333 30.000 C 159.333 29.000,159.400 28.333,159.500 28.333 C 159.592 28.333,159.667 28.219,159.667 28.079 C 159.667 27.649,161.108 26.333,161.579 26.333 C 161.811 26.333,162.000 26.258,162.000 26.167 C 162.000 26.064,162.833 26.000,164.167 26.000 C 165.500 26.000,166.333 26.064,166.333 26.167 C 166.333 26.258,166.483 26.333,166.667 26.333 C 166.850 26.333,167.000 26.408,167.000 26.500 C 167.000 26.592,167.133 26.667,167.297 26.667 C 167.460 26.667,167.701 26.817,167.833 27.000 C 167.965 27.183,168.207 27.333,168.370 27.333 C 168.543 27.333,168.667 27.457,168.667 27.630 C 168.667 27.793,168.817 28.035,169.000 28.167 C 169.183 28.299,169.333 28.540,169.333 28.703 C 169.333 28.867,169.408 29.000,169.500 29.000 C 169.592 29.000,169.667 29.150,169.667 29.333 C 169.667 29.517,169.742 29.667,169.833 29.667 C 169.925 29.667,170.000 29.967,170.000 30.333 C 170.000 30.700,170.075 31.000,170.167 31.000 C 170.268 31.000,170.333 31.722,170.333 32.833 C 170.333 33.944,170.399 34.667,170.500 34.667 C 170.603 34.667,170.667 35.556,170.667 37.000 L 170.667 39.333 168.667 39.333 C 167.444 39.333,166.667 39.398,166.667 39.500 C 166.667 39.599,166.056 39.667,165.167 39.667 C 164.278 39.667,163.667 39.735,163.667 39.833 C 163.667 39.926,163.222 40.000,162.667 40.000 C 162.111 40.000,161.667 40.074,161.667 40.167 C 161.667 40.258,161.292 40.333,160.833 40.333 C 160.375 40.333,160.000 40.408,160.000 40.500 C 160.000 40.592,159.775 40.667,159.500 40.667 C 159.225 40.667,159.000 40.742,159.000 40.833 C 159.000 40.925,158.775 41.000,158.500 41.000 C 158.225 41.000,158.000 41.075,158.000 41.167 C 158.000 41.258,157.775 41.333,157.500 41.333 C 157.225 41.333,157.000 41.408,157.000 41.500 C 157.000 41.592,156.850 41.667,156.667 41.667 C 156.483 41.667,156.333 41.742,156.333 41.833 C 156.333 41.925,156.183 42.000,156.000 42.000 C 155.817 42.000,155.667 42.075,155.667 42.167 C 155.667 42.258,155.517 42.333,155.333 42.333 C 155.150 42.333,155.000 42.408,155.000 42.500 C 155.000 42.592,154.886 42.667,154.748 42.667 C 154.419 42.667,151.667 45.419,151.667 45.748 C 151.667 45.886,151.592 46.000,151.500 46.000 C 151.408 46.000,151.333 46.150,151.333 46.333 C 151.333 46.517,151.258 46.667,151.167 46.667 C 151.075 46.667,151.000 46.817,151.000 47.000 C 151.000 47.183,150.925 47.333,150.833 47.333 C 150.742 47.333,150.667 47.558,150.667 47.833 C 150.667 48.108,150.592 48.333,150.500 48.333 C 150.396 48.333,150.333 49.302,150.333 50.907 C 150.333 52.443,150.401 53.522,150.500 53.583 C 150.592 53.640,150.667 53.865,150.667 54.083 C 150.667 54.302,150.742 54.527,150.833 54.583 C 150.925 54.640,151.000 54.832,151.000 55.010 C 151.000 55.188,151.075 55.333,151.167 55.333 C 151.258 55.333,151.333 55.483,151.333 55.667 C 151.333 55.850,151.408 56.000,151.500 56.000 C 151.592 56.000,151.667 56.083,151.667 56.184 C 151.667 56.461,153.793 58.500,154.082 58.500 C 154.220 58.500,154.333 58.575,154.333 58.667 C 154.333 58.758,154.483 58.833,154.667 58.833 C 154.850 58.833,155.000 58.908,155.000 59.000 C 155.000 59.092,155.150 59.167,155.333 59.167 C 155.517 59.167,155.667 59.242,155.667 59.333 C 155.667 59.425,155.892 59.500,156.167 59.500 C 156.442 59.500,156.667 59.575,156.667 59.667 C 156.667 59.759,157.111 59.833,157.667 59.833 C 158.222 59.833,158.667 59.907,158.667 60.000 C 158.667 60.097,159.222 60.167,160.000 60.167 C 160.778 60.167,161.333 60.097,161.333 60.000 C 161.333 59.905,161.833 59.833,162.500 59.833 C 163.167 59.833,163.667 59.762,163.667 59.667 C 163.667 59.575,163.892 59.500,164.167 59.500 C 164.442 59.500,164.667 59.425,164.667 59.333 C 164.667 59.242,164.892 59.167,165.167 59.167 C 165.442 59.167,165.667 59.092,165.667 59.000 C 165.667 58.908,165.817 58.833,166.000 58.833 C 166.183 58.833,166.333 58.758,166.333 58.667 C 166.333 58.575,166.483 58.500,166.667 58.500 C 166.850 58.500,167.000 58.425,167.000 58.333 C 167.000 58.242,167.114 58.167,167.254 58.167 C 167.393 58.167,168.199 57.495,169.045 56.674 L 170.583 55.182 170.680 55.966 C 170.797 56.919,170.989 57.500,171.186 57.500 C 171.267 57.500,171.333 57.615,171.333 57.756 C 171.333 58.087,172.413 59.167,172.744 59.167 C 172.885 59.167,173.000 59.242,173.000 59.333 C 173.000 59.425,173.150 59.500,173.333 59.500 C 173.517 59.500,173.667 59.575,173.667 59.667 C 173.667 59.758,174.042 59.833,174.500 59.833 C 174.958 59.833,175.333 59.908,175.333 60.000 C 175.333 60.098,175.917 60.167,176.750 60.167 C 177.583 60.167,178.167 60.098,178.167 60.000 C 178.167 59.903,178.722 59.833,179.500 59.833 C 180.278 59.833,180.833 59.764,180.833 59.667 C 180.833 59.575,181.208 59.500,181.667 59.500 L 182.500 59.500 182.500 58.436 C 182.500 57.181,182.370 57.095,180.859 57.345 C 179.256 57.610,177.500 57.049,177.500 56.272 C 177.500 56.122,177.425 56.000,177.333 56.000 C 177.224 56.000,177.167 52.222,177.167 45.000 C 177.167 37.778,177.109 34.000,177.000 34.000 C 176.900 34.000,176.833 33.333,176.833 32.333 C 176.833 31.333,176.767 30.667,176.667 30.667 C 176.575 30.667,176.500 30.367,176.500 30.000 C 176.500 29.633,176.425 29.333,176.333 29.333 C 176.242 29.333,176.167 29.108,176.167 28.833 C 176.167 28.558,176.092 28.333,176.000 28.333 C 175.908 28.333,175.833 28.183,175.833 28.000 C 175.833 27.817,175.758 27.667,175.667 27.667 C 175.575 27.667,175.500 27.517,175.500 27.333 C 175.500 27.150,175.425 27.000,175.333 27.000 C 175.242 27.000,175.167 26.863,175.167 26.695 C 175.167 26.021,171.974 23.667,171.060 23.667 C 170.935 23.667,170.833 23.592,170.833 23.500 C 170.833 23.408,170.575 23.333,170.260 23.333 C 169.944 23.333,169.640 23.258,169.583 23.167 C 169.527 23.075,169.077 23.000,168.583 23.000 C 168.090 23.000,167.640 22.925,167.583 22.833 C 167.521 22.733,166.332 22.667,164.573 22.667 C 162.747 22.667,161.667 22.729,161.667 22.833 M194.250 22.833 C 194.193 22.925,193.743 23.000,193.250 23.000 C 192.757 23.000,192.307 23.075,192.250 23.167 C 192.193 23.258,191.668 23.333,191.083 23.333 C 190.498 23.333,189.973 23.408,189.917 23.500 C 189.860 23.592,189.410 23.667,188.917 23.667 C 188.423 23.667,187.973 23.742,187.917 23.833 C 187.860 23.925,187.421 24.000,186.940 24.000 C 186.460 24.000,185.995 24.071,185.908 24.158 C 185.821 24.245,185.262 24.338,184.667 24.366 L 183.583 24.417 183.534 25.542 L 183.485 26.667 184.659 26.667 C 185.331 26.667,185.833 26.738,185.833 26.833 C 185.833 26.925,186.058 27.000,186.333 27.000 C 186.608 27.000,186.833 27.075,186.833 27.167 C 186.833 27.258,186.948 27.333,187.088 27.333 C 187.517 27.333,188.833 28.775,188.833 29.246 C 188.833 29.477,188.908 29.667,189.000 29.667 C 189.110 29.667,189.167 33.833,189.167 41.833 C 189.167 49.833,189.110 54.000,189.000 54.000 C 188.908 54.000,188.833 54.225,188.833 54.500 C 188.833 54.775,188.758 55.000,188.667 55.000 C 188.575 55.000,188.500 55.115,188.500 55.256 C 188.500 55.587,187.421 56.667,187.089 56.667 C 186.948 56.667,186.833 56.729,186.833 56.805 C 186.833 57.006,185.275 57.333,184.321 57.333 L 183.500 57.333 183.500 58.250 L 183.500 59.167 192.667 59.167 L 201.833 59.167 201.833 58.250 L 201.833 57.333 201.079 57.333 C 200.140 57.333,198.167 56.969,198.167 56.795 C 198.167 56.725,198.051 56.667,197.909 56.667 C 197.576 56.667,196.833 55.924,196.833 55.591 C 196.833 55.449,196.758 55.333,196.667 55.333 C 196.575 55.333,196.500 55.183,196.500 55.000 C 196.500 54.817,196.425 54.667,196.333 54.667 C 196.242 54.667,196.167 54.367,196.167 54.000 C 196.167 53.633,196.092 53.333,196.000 53.333 C 195.892 53.333,195.833 51.222,195.833 47.333 C 195.833 43.444,195.892 41.333,196.000 41.333 C 196.093 41.333,196.167 40.889,196.167 40.333 C 196.167 39.778,196.241 39.333,196.333 39.333 C 196.425 39.333,196.500 39.033,196.500 38.667 C 196.500 38.300,196.575 38.000,196.667 38.000 C 196.758 38.000,196.833 37.775,196.833 37.500 C 196.833 37.225,196.908 37.000,197.000 37.000 C 197.092 37.000,197.167 36.775,197.167 36.500 C 197.167 36.225,197.242 36.000,197.333 36.000 C 197.425 36.000,197.500 35.850,197.500 35.667 C 197.500 35.483,197.575 35.333,197.667 35.333 C 197.758 35.333,197.833 35.183,197.833 35.000 C 197.833 34.817,197.908 34.667,198.000 34.667 C 198.092 34.667,198.167 34.517,198.167 34.333 C 198.167 34.150,198.242 34.000,198.333 34.000 C 198.425 34.000,198.500 33.850,198.500 33.667 C 198.500 33.483,198.575 33.333,198.667 33.333 C 198.758 33.333,198.833 33.183,198.833 33.000 C 198.833 32.817,198.908 32.667,199.000 32.667 C 199.092 32.667,199.167 32.533,199.167 32.370 C 199.167 32.207,199.317 31.965,199.500 31.833 C 199.683 31.701,199.833 31.496,199.833 31.378 C 199.833 31.075,202.941 28.000,203.248 28.000 C 203.387 28.000,203.500 27.925,203.500 27.833 C 203.500 27.742,203.650 27.667,203.833 27.667 C 204.017 27.667,204.167 27.592,204.167 27.500 C 204.167 27.408,204.317 27.333,204.500 27.333 C 204.683 27.333,204.833 27.258,204.833 27.167 C 204.833 27.074,205.278 27.000,205.833 27.000 C 206.389 27.000,206.833 27.074,206.833 27.167 C 206.833 27.258,207.097 27.333,207.420 27.333 C 208.164 27.333,209.833 28.887,209.833 29.580 C 209.833 29.811,209.908 30.000,210.000 30.000 C 210.095 30.000,210.167 30.500,210.167 31.167 C 210.167 31.833,210.238 32.333,210.333 32.333 C 210.443 32.333,210.500 35.944,210.500 42.833 C 210.500 49.722,210.443 53.333,210.333 53.333 C 210.242 53.333,210.167 53.633,210.167 54.000 C 210.167 54.367,210.092 54.667,210.000 54.667 C 209.908 54.667,209.833 54.817,209.833 55.000 C 209.833 55.183,209.758 55.333,209.667 55.333 C 209.575 55.333,209.500 55.449,209.500 55.591 C 209.500 55.924,208.758 56.667,208.424 56.667 C 208.283 56.667,208.167 56.725,208.167 56.795 C 208.167 56.969,206.193 57.333,205.254 57.333 L 204.500 57.333 204.500 58.250 L 204.500 59.167 213.667 59.167 L 222.833 59.167 222.833 58.250 L 222.833 57.333 221.958 57.332 C 220.050 57.330,217.833 56.215,217.833 55.256 C 217.833 55.115,217.758 55.000,217.667 55.000 C 217.575 55.000,217.500 54.775,217.500 54.500 C 217.500 54.225,217.425 54.000,217.333 54.000 C 217.224 54.000,217.167 50.056,217.167 42.500 C 217.167 34.944,217.110 31.000,217.000 31.000 C 216.904 31.000,216.833 30.476,216.833 29.760 C 216.833 29.078,216.758 28.473,216.667 28.417 C 216.575 28.360,216.500 28.093,216.500 27.823 C 216.500 27.554,216.425 27.333,216.333 27.333 C 216.242 27.333,216.167 27.186,216.167 27.005 C 216.167 25.893,213.614 23.333,212.505 23.333 C 212.330 23.333,212.140 23.258,212.083 23.167 C 212.027 23.075,211.652 23.000,211.250 23.000 C 210.848 23.000,210.473 22.925,210.417 22.833 C 210.356 22.736,209.387 22.667,208.073 22.667 C 206.691 22.667,205.833 22.730,205.833 22.833 C 205.833 22.925,205.500 23.000,205.093 23.000 C 204.686 23.000,204.307 23.075,204.250 23.167 C 204.193 23.258,204.001 23.333,203.823 23.333 C 203.646 23.333,203.500 23.408,203.500 23.500 C 203.500 23.592,203.327 23.667,203.115 23.667 C 202.903 23.667,202.569 23.817,202.372 24.000 C 202.175 24.183,201.915 24.333,201.794 24.333 C 201.673 24.333,201.465 24.483,201.333 24.667 C 201.201 24.850,201.001 25.000,200.888 25.000 C 200.620 25.000,198.167 27.454,198.167 27.721 C 198.167 27.834,198.017 28.035,197.833 28.167 C 197.650 28.299,197.500 28.506,197.500 28.627 C 197.500 28.748,197.350 29.008,197.167 29.205 C 196.983 29.402,196.833 29.661,196.833 29.781 C 196.833 29.902,196.758 30.000,196.667 30.000 C 196.575 30.000,196.500 30.150,196.500 30.333 C 196.500 30.517,196.425 30.667,196.333 30.667 C 196.242 30.667,196.167 30.817,196.167 31.000 C 196.167 31.183,196.092 31.333,196.000 31.333 C 195.893 31.333,195.833 29.778,195.833 27.000 L 195.833 22.667 195.093 22.667 C 194.686 22.667,194.307 22.742,194.250 22.833 M294.589 22.824 C 294.529 22.921,294.002 23.000,293.417 23.000 C 292.832 23.000,292.307 23.075,292.250 23.167 C 292.193 23.258,291.743 23.333,291.250 23.333 C 290.757 23.333,290.307 23.408,290.250 23.500 C 290.193 23.592,289.701 23.667,289.157 23.667 C 288.608 23.667,288.167 23.741,288.167 23.833 C 288.167 23.927,287.698 24.000,287.093 24.000 C 286.503 24.000,285.973 24.075,285.917 24.167 C 285.860 24.258,285.424 24.336,284.948 24.339 C 283.738 24.346,283.500 24.574,283.500 25.727 L 283.500 26.667 284.833 26.667 C 285.611 26.667,286.167 26.736,286.167 26.833 C 286.167 26.925,286.375 27.000,286.630 27.000 C 286.902 27.000,287.192 27.138,287.333 27.333 C 287.465 27.517,287.675 27.667,287.799 27.667 C 288.089 27.667,288.500 28.078,288.500 28.368 C 288.500 28.492,288.650 28.701,288.833 28.833 C 289.065 29.001,289.167 29.265,289.167 29.703 C 289.167 30.050,289.242 30.333,289.333 30.333 C 289.443 30.333,289.500 34.278,289.500 41.833 C 289.500 49.389,289.443 53.333,289.333 53.333 C 289.242 53.333,289.167 53.633,289.167 54.000 C 289.167 54.367,289.092 54.667,289.000 54.667 C 288.908 54.667,288.833 54.817,288.833 55.000 C 288.833 55.183,288.758 55.333,288.667 55.333 C 288.575 55.333,288.500 55.449,288.500 55.591 C 288.500 55.924,287.758 56.667,287.424 56.667 C 287.283 56.667,287.167 56.725,287.167 56.795 C 287.167 56.969,285.193 57.333,284.254 57.333 L 283.500 57.333 283.500 58.250 L 283.500 59.167 292.667 59.167 L 301.833 59.167 301.833 58.250 L 301.833 57.333 301.052 57.333 C 299.003 57.333,296.833 56.264,296.833 55.254 C 296.833 55.114,296.758 55.000,296.667 55.000 C 296.575 55.000,296.500 54.850,296.500 54.667 C 296.500 54.483,296.425 54.333,296.334 54.333 C 296.226 54.333,296.154 48.876,296.126 38.542 L 296.083 22.750 295.390 22.699 C 295.009 22.672,294.648 22.728,294.589 22.824 M314.167 22.833 C 314.167 22.926,313.722 23.000,313.167 23.000 C 312.611 23.000,312.167 23.074,312.167 23.167 C 312.167 23.258,311.867 23.333,311.500 23.333 C 311.133 23.333,310.833 23.408,310.833 23.500 C 310.833 23.592,310.608 23.667,310.333 23.667 C 310.058 23.667,309.833 23.742,309.833 23.833 C 309.833 23.925,309.690 24.000,309.516 24.000 C 309.138 24.000,307.833 24.670,307.833 24.864 C 307.833 24.939,307.700 25.000,307.537 25.000 C 307.374 25.000,307.132 25.150,307.000 25.333 C 306.868 25.517,306.683 25.668,306.588 25.671 C 306.356 25.676,304.833 27.141,304.833 27.359 C 304.833 27.455,304.608 27.743,304.333 28.000 C 304.058 28.257,303.833 28.587,303.833 28.734 C 303.833 28.880,303.758 29.000,303.667 29.000 C 303.575 29.000,303.500 29.150,303.500 29.333 C 303.500 29.517,303.425 29.667,303.333 29.667 C 303.242 29.667,303.167 29.817,303.167 30.000 C 303.167 30.183,303.092 30.333,303.000 30.333 C 302.908 30.333,302.833 30.558,302.833 30.833 C 302.833 31.108,302.758 31.333,302.667 31.333 C 302.575 31.333,302.500 31.558,302.500 31.833 C 302.500 32.108,302.425 32.333,302.333 32.333 C 302.242 32.333,302.167 32.558,302.167 32.833 C 302.167 33.108,302.092 33.333,302.000 33.333 C 301.908 33.333,301.833 33.708,301.833 34.167 C 301.833 34.625,301.758 35.000,301.667 35.000 C 301.565 35.000,301.500 35.778,301.500 37.000 C 301.500 38.222,301.435 39.000,301.333 39.000 C 301.235 39.000,301.167 39.611,301.167 40.500 C 301.167 41.389,301.235 42.000,301.333 42.000 C 301.434 42.000,301.500 42.722,301.500 43.833 C 301.500 44.944,301.566 45.667,301.667 45.667 C 301.758 45.667,301.833 46.042,301.833 46.500 C 301.833 46.958,301.908 47.333,302.000 47.333 C 302.092 47.333,302.167 47.633,302.167 48.000 C 302.167 48.367,302.242 48.667,302.333 48.667 C 302.425 48.667,302.500 48.892,302.500 49.167 C 302.500 49.442,302.575 49.667,302.667 49.667 C 302.758 49.667,302.833 49.817,302.833 50.000 C 302.833 50.183,302.908 50.333,303.000 50.333 C 303.092 50.333,303.167 50.476,303.167 50.651 C 303.167 51.029,303.837 52.333,304.031 52.333 C 304.106 52.333,304.167 52.483,304.167 52.667 C 304.167 52.850,304.242 53.000,304.333 53.000 C 304.425 53.000,304.500 53.103,304.500 53.230 C 304.500 53.356,304.800 53.769,305.167 54.147 C 305.533 54.525,305.836 54.890,305.838 54.959 C 305.841 55.027,306.069 55.271,306.344 55.500 C 306.620 55.729,307.086 56.133,307.381 56.398 C 307.676 56.663,308.123 56.951,308.375 57.039 C 308.627 57.127,308.833 57.267,308.833 57.350 C 308.833 57.432,308.983 57.500,309.167 57.500 C 309.350 57.500,309.500 57.575,309.500 57.667 C 309.500 57.758,309.650 57.833,309.833 57.833 C 310.017 57.833,310.167 57.908,310.167 58.000 C 310.167 58.092,310.317 58.167,310.500 58.167 C 310.683 58.167,310.833 58.242,310.833 58.333 C 310.833 58.425,310.983 58.500,311.167 58.500 C 311.350 58.500,311.500 58.575,311.500 58.667 C 311.500 58.758,311.725 58.833,312.000 58.833 C 312.275 58.833,312.500 58.908,312.500 59.000 C 312.500 59.092,312.800 59.167,313.167 59.167 C 313.533 59.167,313.833 59.242,313.833 59.333 C 313.833 59.425,314.133 59.500,314.500 59.500 C 314.867 59.500,315.167 59.575,315.167 59.667 C 315.167 59.767,315.833 59.833,316.833 59.833 C 317.833 59.833,318.500 59.900,318.500 60.000 C 318.500 60.101,319.247 60.167,320.407 60.167 C 321.498 60.167,322.358 60.095,322.417 60.000 C 322.474 59.908,323.224 59.833,324.093 59.833 C 325.031 59.833,325.667 59.766,325.667 59.667 C 325.667 59.575,326.042 59.500,326.500 59.500 C 326.958 59.500,327.333 59.425,327.333 59.333 C 327.333 59.242,327.633 59.167,328.000 59.167 C 328.367 59.167,328.667 59.092,328.667 59.000 C 328.667 58.908,328.785 58.833,328.929 58.833 C 329.489 58.833,329.667 58.396,329.667 57.012 L 329.667 55.667 329.167 55.667 C 328.892 55.667,328.667 55.742,328.667 55.833 C 328.667 55.925,328.442 56.000,328.167 56.000 C 327.892 56.000,327.667 56.075,327.667 56.167 C 327.667 56.258,327.409 56.333,327.093 56.333 C 326.778 56.333,326.473 56.408,326.417 56.500 C 326.356 56.598,325.359 56.667,323.990 56.667 C 322.552 56.667,321.667 56.603,321.667 56.500 C 321.667 56.408,321.329 56.333,320.917 56.333 C 320.504 56.333,320.167 56.258,320.167 56.167 C 320.167 56.075,319.946 56.000,319.677 56.000 C 319.407 56.000,319.140 55.925,319.083 55.833 C 319.027 55.742,318.797 55.667,318.573 55.667 C 318.350 55.667,318.167 55.592,318.167 55.500 C 318.167 55.408,318.017 55.333,317.833 55.333 C 317.650 55.333,317.500 55.258,317.500 55.167 C 317.500 55.075,317.367 55.000,317.203 55.000 C 317.040 55.000,316.799 54.850,316.667 54.667 C 316.535 54.483,316.310 54.333,316.167 54.333 C 316.024 54.333,315.799 54.183,315.667 54.000 C 315.535 53.817,315.329 53.667,315.210 53.667 C 314.945 53.667,313.167 51.915,313.167 51.654 C 313.167 51.551,312.942 51.257,312.667 51.000 C 312.392 50.743,312.167 50.430,312.167 50.303 C 312.167 50.177,312.017 49.965,311.833 49.833 C 311.650 49.701,311.500 49.460,311.500 49.297 C 311.500 49.133,311.425 49.000,311.333 49.000 C 311.242 49.000,311.167 48.850,311.167 48.667 C 311.167 48.483,311.092 48.333,311.000 48.333 C 310.908 48.333,310.833 48.183,310.833 48.000 C 310.833 47.817,310.758 47.667,310.667 47.667 C 310.575 47.667,310.500 47.517,310.500 47.333 C 310.500 47.150,310.425 47.000,310.333 47.000 C 310.242 47.000,310.167 46.775,310.167 46.500 C 310.167 46.225,310.092 46.000,310.000 46.000 C 309.908 46.000,309.833 45.775,309.833 45.500 C 309.833 45.225,309.758 45.000,309.667 45.000 C 309.575 45.000,309.500 44.775,309.500 44.500 C 309.500 44.225,309.425 44.000,309.333 44.000 C 309.242 44.000,309.167 43.700,309.167 43.333 C 309.167 42.967,309.092 42.667,309.000 42.667 C 308.908 42.667,308.833 42.292,308.833 41.833 C 308.833 41.375,308.758 41.000,308.667 41.000 C 308.567 41.000,308.500 40.333,308.500 39.333 L 308.500 37.667 319.583 37.667 L 330.667 37.667 330.667 36.000 C 330.667 35.000,330.600 34.333,330.500 34.333 C 330.405 34.333,330.333 33.833,330.333 33.167 C 330.333 32.500,330.262 32.000,330.167 32.000 C 330.075 32.000,330.000 31.700,330.000 31.333 C 330.000 30.967,329.925 30.667,329.833 30.667 C 329.742 30.667,329.667 30.442,329.667 30.167 C 329.667 29.892,329.592 29.667,329.500 29.667 C 329.408 29.667,329.333 29.517,329.333 29.333 C 329.333 29.150,329.258 29.000,329.167 29.000 C 329.075 29.000,329.000 28.867,329.000 28.703 C 329.000 28.540,328.850 28.299,328.667 28.167 C 328.483 28.035,328.333 27.829,328.333 27.711 C 328.333 27.407,325.893 25.000,325.586 25.000 C 325.447 25.000,325.333 24.925,325.333 24.833 C 325.333 24.742,325.235 24.667,325.115 24.667 C 324.995 24.667,324.735 24.517,324.538 24.333 C 324.342 24.150,324.067 24.000,323.929 24.000 C 323.790 24.000,323.410 23.850,323.083 23.667 C 322.757 23.483,322.272 23.333,322.005 23.333 C 321.738 23.333,321.473 23.258,321.417 23.167 C 321.360 23.075,320.985 23.000,320.583 23.000 C 320.182 23.000,319.807 22.925,319.750 22.833 C 319.688 22.733,318.554 22.667,316.907 22.667 C 315.191 22.667,314.167 22.729,314.167 22.833 M380.583 22.833 C 380.527 22.925,380.152 23.000,379.750 23.000 C 379.348 23.000,378.973 23.075,378.917 23.167 C 378.860 23.258,378.556 23.333,378.240 23.333 C 377.925 23.333,377.667 23.408,377.667 23.500 C 377.667 23.592,377.442 23.667,377.167 23.667 C 376.892 23.667,376.667 23.742,376.667 23.833 C 376.667 23.925,376.517 24.000,376.333 24.000 C 376.150 24.000,376.000 24.075,376.000 24.167 C 376.000 24.258,375.850 24.333,375.667 24.333 C 375.483 24.333,375.333 24.408,375.333 24.500 C 375.333 24.592,375.200 24.667,375.037 24.667 C 374.874 24.667,374.632 24.817,374.500 25.000 C 374.368 25.183,374.156 25.333,374.030 25.333 C 373.904 25.333,373.590 25.558,373.333 25.833 C 373.076 26.108,372.780 26.333,372.676 26.333 C 372.430 26.333,371.667 27.094,371.667 27.339 C 371.667 27.442,371.367 27.814,371.000 28.167 C 370.633 28.519,370.333 28.909,370.333 29.033 C 370.333 29.158,370.183 29.368,370.000 29.500 C 369.817 29.632,369.667 29.874,369.667 30.037 C 369.667 30.200,369.592 30.333,369.500 30.333 C 369.408 30.333,369.333 30.483,369.333 30.667 C 369.333 30.850,369.258 31.000,369.167 31.000 C 369.075 31.000,369.000 31.150,369.000 31.333 C 369.000 31.517,368.925 31.667,368.833 31.667 C 368.742 31.667,368.667 31.892,368.667 32.167 C 368.667 32.442,368.592 32.667,368.500 32.667 C 368.408 32.667,368.333 32.892,368.333 33.167 C 368.333 33.442,368.258 33.667,368.167 33.667 C 368.075 33.667,368.000 33.892,368.000 34.167 C 368.000 34.442,367.925 34.667,367.833 34.667 C 367.742 34.667,367.667 35.042,367.667 35.500 C 367.667 35.958,367.592 36.333,367.500 36.333 C 367.403 36.333,367.333 36.889,367.333 37.667 C 367.333 38.444,367.264 39.000,367.167 39.000 C 367.063 39.000,367.000 39.889,367.000 41.333 C 367.000 42.778,367.063 43.667,367.167 43.667 C 367.265 43.667,367.333 44.278,367.333 45.167 C 367.333 46.056,367.401 46.667,367.500 46.667 C 367.592 46.667,367.667 46.967,367.667 47.333 C 367.667 47.700,367.742 48.000,367.833 48.000 C 367.925 48.000,368.000 48.300,368.000 48.667 C 368.000 49.033,368.075 49.333,368.167 49.333 C 368.258 49.333,368.333 49.558,368.333 49.833 C 368.333 50.108,368.408 50.333,368.500 50.333 C 368.592 50.333,368.667 50.483,368.667 50.667 C 368.667 50.850,368.742 51.000,368.833 51.000 C 368.925 51.000,369.000 51.143,369.000 51.318 C 369.000 51.696,369.670 53.000,369.864 53.000 C 369.939 53.000,370.000 53.133,370.000 53.297 C 370.000 53.460,370.150 53.701,370.333 53.833 C 370.517 53.965,370.667 54.170,370.667 54.287 C 370.667 54.404,370.742 54.500,370.833 54.500 C 370.925 54.500,371.000 54.579,371.000 54.675 C 371.000 54.967,373.329 57.167,373.638 57.167 C 373.797 57.167,374.035 57.317,374.167 57.500 C 374.299 57.683,374.540 57.833,374.703 57.833 C 374.867 57.833,375.000 57.908,375.000 58.000 C 375.000 58.092,375.144 58.167,375.319 58.167 C 375.495 58.167,375.664 58.223,375.694 58.292 C 375.785 58.496,377.173 59.167,377.506 59.167 C 377.675 59.167,377.860 59.242,377.917 59.333 C 377.973 59.425,378.278 59.500,378.593 59.500 C 378.909 59.500,379.167 59.575,379.167 59.667 C 379.167 59.764,379.722 59.833,380.500 59.833 C 381.278 59.833,381.833 59.903,381.833 60.000 C 381.833 60.099,382.444 60.167,383.333 60.167 C 384.222 60.167,384.833 60.099,384.833 60.000 C 384.833 59.903,385.389 59.833,386.167 59.833 C 386.944 59.833,387.500 59.764,387.500 59.667 C 387.500 59.575,387.800 59.500,388.167 59.500 C 388.533 59.500,388.833 59.425,388.833 59.333 C 388.833 59.242,389.058 59.167,389.333 59.167 C 389.608 59.167,389.833 59.092,389.833 59.000 C 389.833 58.908,389.983 58.833,390.167 58.833 C 390.350 58.833,390.500 58.758,390.500 58.667 C 390.500 58.575,390.650 58.500,390.833 58.500 C 391.017 58.500,391.167 58.425,391.167 58.333 C 391.167 58.242,391.317 58.167,391.500 58.167 C 391.683 58.167,391.833 58.092,391.833 58.000 C 391.833 57.908,391.967 57.833,392.130 57.833 C 392.293 57.833,392.535 57.683,392.667 57.500 C 392.799 57.317,393.039 57.167,393.200 57.167 C 393.548 57.167,396.167 54.584,396.167 54.241 C 396.167 54.193,396.317 53.992,396.500 53.795 C 396.683 53.598,396.833 53.339,396.833 53.219 C 396.833 53.098,396.908 53.000,397.000 53.000 C 397.092 53.000,397.167 52.850,397.167 52.667 C 397.167 52.483,397.242 52.333,397.333 52.333 C 397.425 52.333,397.500 52.183,397.500 52.000 C 397.500 51.817,397.575 51.667,397.667 51.667 C 397.758 51.667,397.833 51.517,397.833 51.333 C 397.833 51.150,397.908 51.000,398.000 51.000 C 398.092 51.000,398.167 50.854,398.167 50.677 C 398.167 50.499,398.242 50.307,398.333 50.250 C 398.425 50.193,398.500 49.968,398.500 49.750 C 398.500 49.532,398.575 49.307,398.667 49.250 C 398.758 49.193,398.833 48.889,398.833 48.573 C 398.833 48.258,398.908 48.000,399.000 48.000 C 399.092 48.000,399.167 47.625,399.167 47.167 C 399.167 46.708,399.242 46.333,399.333 46.333 C 399.433 46.333,399.500 45.667,399.500 44.667 C 399.500 43.667,399.567 43.000,399.667 43.000 C 399.767 43.000,399.833 42.333,399.833 41.333 C 399.833 40.333,399.767 39.667,399.667 39.667 C 399.568 39.667,399.500 39.056,399.500 38.167 C 399.500 37.278,399.432 36.667,399.333 36.667 C 399.242 36.667,399.167 36.292,399.167 35.833 C 399.167 35.375,399.092 35.000,399.000 35.000 C 398.908 35.000,398.833 34.700,398.833 34.333 C 398.833 33.967,398.758 33.667,398.667 33.667 C 398.575 33.667,398.500 33.442,398.500 33.167 C 398.500 32.892,398.425 32.667,398.333 32.667 C 398.242 32.667,398.167 32.517,398.167 32.333 C 398.167 32.150,398.092 32.000,398.000 32.000 C 397.908 32.000,397.833 31.775,397.833 31.500 C 397.833 31.225,397.758 31.000,397.667 31.000 C 397.575 31.000,397.500 30.867,397.500 30.703 C 397.500 30.540,397.350 30.299,397.167 30.167 C 396.983 30.035,396.833 29.793,396.833 29.630 C 396.833 29.467,396.758 29.333,396.667 29.333 C 396.575 29.333,396.500 29.217,396.500 29.075 C 396.500 28.799,393.085 25.333,392.814 25.333 C 392.725 25.333,392.492 25.183,392.295 25.000 C 392.098 24.817,391.839 24.667,391.719 24.667 C 391.598 24.667,391.500 24.592,391.500 24.500 C 391.500 24.408,391.350 24.333,391.167 24.333 C 390.983 24.333,390.833 24.258,390.833 24.167 C 390.833 24.075,390.688 24.000,390.510 24.000 C 390.332 24.000,390.140 23.925,390.083 23.833 C 390.027 23.742,389.797 23.667,389.573 23.667 C 389.350 23.667,389.167 23.592,389.167 23.500 C 389.167 23.408,388.867 23.333,388.500 23.333 C 388.133 23.333,387.833 23.258,387.833 23.167 C 387.833 23.075,387.458 23.000,387.000 23.000 C 386.542 23.000,386.167 22.925,386.167 22.833 C 386.167 22.729,385.142 22.667,383.427 22.667 C 381.780 22.667,380.645 22.733,380.583 22.833 M318.167 26.167 C 318.167 26.258,318.375 26.333,318.630 26.333 C 318.902 26.333,319.192 26.471,319.333 26.667 C 319.465 26.850,319.672 27.000,319.791 27.000 C 320.074 27.000,321.500 28.426,321.500 28.709 C 321.500 28.828,321.650 29.035,321.833 29.167 C 322.029 29.308,322.167 29.598,322.167 29.870 C 322.167 30.125,322.242 30.333,322.333 30.333 C 322.425 30.333,322.500 30.558,322.500 30.833 C 322.500 31.108,322.575 31.333,322.667 31.333 C 322.758 31.333,322.833 31.633,322.833 32.000 C 322.833 32.367,322.908 32.667,323.000 32.667 C 323.093 32.667,323.167 33.111,323.167 33.667 L 323.167 34.667 315.833 34.667 L 308.500 34.667 308.500 33.833 C 308.500 33.375,308.575 33.000,308.667 33.000 C 308.758 33.000,308.833 32.775,308.833 32.500 C 308.833 32.225,308.908 32.000,309.000 32.000 C 309.092 32.000,309.167 31.850,309.167 31.667 C 309.167 31.483,309.242 31.333,309.333 31.333 C 309.425 31.333,309.500 31.183,309.500 31.000 C 309.500 30.817,309.575 30.667,309.667 30.667 C 309.758 30.667,309.833 30.517,309.833 30.333 C 309.833 30.150,309.908 30.000,310.000 30.000 C 310.092 30.000,310.167 29.886,310.167 29.747 C 310.167 29.440,312.574 27.000,312.877 27.000 C 312.996 27.000,313.201 26.850,313.333 26.667 C 313.474 26.471,313.765 26.333,314.037 26.333 C 314.292 26.333,314.500 26.258,314.500 26.167 C 314.500 26.066,315.222 26.000,316.333 26.000 C 317.444 26.000,318.167 26.066,318.167 26.167 M350.333 26.167 C 350.333 26.258,350.483 26.333,350.667 26.333 C 350.850 26.333,351.000 26.408,351.000 26.500 C 351.000 26.592,351.150 26.667,351.333 26.667 C 351.517 26.667,351.667 26.742,351.667 26.833 C 351.667 26.925,351.781 27.000,351.921 27.000 C 352.252 27.000,353.667 28.415,353.667 28.746 C 353.667 28.886,353.742 29.000,353.833 29.000 C 353.925 29.000,354.000 29.150,354.000 29.333 C 354.000 29.517,354.075 29.667,354.167 29.667 C 354.258 29.667,354.333 29.817,354.333 30.000 C 354.333 30.183,354.408 30.333,354.500 30.333 C 354.592 30.333,354.667 30.483,354.667 30.667 C 354.667 30.850,354.742 31.000,354.833 31.000 C 354.925 31.000,355.000 31.300,355.000 31.667 C 355.000 32.033,355.075 32.333,355.167 32.333 C 355.267 32.333,355.333 33.000,355.333 34.000 C 355.333 35.000,355.400 35.667,355.500 35.667 C 355.592 35.667,355.667 35.817,355.667 36.000 C 355.667 36.183,355.592 36.333,355.500 36.333 C 355.401 36.333,355.333 36.944,355.333 37.833 C 355.333 38.722,355.265 39.333,355.167 39.333 C 355.075 39.333,355.000 39.558,355.000 39.833 C 355.000 40.108,354.925 40.333,354.833 40.333 C 354.742 40.333,354.667 40.558,354.667 40.833 C 354.667 41.108,354.592 41.333,354.500 41.333 C 354.408 41.333,354.333 41.447,354.333 41.587 C 354.333 41.917,352.584 43.667,352.254 43.667 C 352.114 43.667,352.000 43.742,352.000 43.833 C 352.000 43.925,351.850 44.000,351.667 44.000 C 351.483 44.000,351.333 44.075,351.333 44.167 C 351.333 44.258,351.108 44.333,350.833 44.333 C 350.558 44.333,350.333 44.408,350.333 44.500 C 350.333 44.600,349.667 44.667,348.667 44.667 C 347.667 44.667,347.000 44.600,347.000 44.500 C 347.000 44.408,346.775 44.333,346.500 44.333 C 346.225 44.333,346.000 44.258,346.000 44.167 C 346.000 44.075,345.850 44.000,345.667 44.000 C 345.483 44.000,345.333 43.925,345.333 43.833 C 345.333 43.742,345.219 43.667,345.079 43.667 C 344.769 43.667,343.333 42.261,343.333 41.958 C 343.333 41.838,343.183 41.632,343.000 41.500 C 342.804 41.359,342.667 41.069,342.667 40.797 C 342.667 40.542,342.592 40.333,342.500 40.333 C 342.408 40.333,342.333 40.183,342.333 40.000 C 342.333 39.817,342.258 39.667,342.167 39.667 C 342.075 39.667,342.000 39.367,342.000 39.000 C 342.000 38.633,341.925 38.333,341.833 38.333 C 341.738 38.333,341.667 37.833,341.667 37.167 C 341.667 36.500,341.595 36.000,341.500 36.000 C 341.401 36.000,341.333 35.389,341.333 34.500 C 341.333 33.611,341.401 33.000,341.500 33.000 C 341.593 33.000,341.667 32.556,341.667 32.000 C 341.667 31.444,341.741 31.000,341.833 31.000 C 341.925 31.000,342.000 30.775,342.000 30.500 C 342.000 30.225,342.075 30.000,342.167 30.000 C 342.258 30.000,342.333 29.792,342.333 29.537 C 342.333 29.265,342.471 28.974,342.667 28.833 C 342.850 28.701,343.000 28.495,343.000 28.374 C 343.000 28.071,344.099 27.000,344.411 27.000 C 344.552 27.000,344.667 26.925,344.667 26.833 C 344.667 26.742,344.817 26.667,345.000 26.667 C 345.183 26.667,345.333 26.592,345.333 26.500 C 345.333 26.408,345.558 26.333,345.833 26.333 C 346.108 26.333,346.333 26.258,346.333 26.167 C 346.333 26.065,347.111 26.000,348.333 26.000 C 349.556 26.000,350.333 26.065,350.333 26.167 M385.167 26.167 C 385.167 26.258,385.392 26.333,385.667 26.333 C 385.942 26.333,386.167 26.408,386.167 26.500 C 386.167 26.592,386.300 26.667,386.463 26.667 C 386.626 26.667,386.868 26.817,387.000 27.000 C 387.132 27.183,387.339 27.333,387.459 27.333 C 387.743 27.333,388.833 28.423,388.833 28.708 C 388.833 28.828,388.983 29.035,389.167 29.167 C 389.350 29.299,389.500 29.524,389.500 29.667 C 389.500 29.810,389.650 30.035,389.833 30.167 C 390.017 30.299,390.167 30.540,390.167 30.703 C 390.167 30.867,390.242 31.000,390.333 31.000 C 390.425 31.000,390.500 31.225,390.500 31.500 C 390.500 31.775,390.575 32.000,390.667 32.000 C 390.758 32.000,390.833 32.225,390.833 32.500 C 390.833 32.775,390.908 33.000,391.000 33.000 C 391.092 33.000,391.167 33.225,391.167 33.500 C 391.167 33.775,391.242 34.000,391.333 34.000 C 391.425 34.000,391.500 34.375,391.500 34.833 C 391.500 35.292,391.575 35.667,391.667 35.667 C 391.762 35.667,391.833 36.167,391.833 36.833 C 391.833 37.500,391.905 38.000,392.000 38.000 C 392.106 38.000,392.167 39.278,392.167 41.500 C 392.167 43.722,392.106 45.000,392.000 45.000 C 391.905 45.000,391.833 45.500,391.833 46.167 C 391.833 46.833,391.762 47.333,391.667 47.333 C 391.575 47.333,391.500 47.633,391.500 48.000 C 391.500 48.367,391.425 48.667,391.333 48.667 C 391.242 48.667,391.167 48.967,391.167 49.333 C 391.167 49.700,391.092 50.000,391.000 50.000 C 390.908 50.000,390.833 50.225,390.833 50.500 C 390.833 50.775,390.758 51.000,390.667 51.000 C 390.575 51.000,390.500 51.150,390.500 51.333 C 390.500 51.517,390.425 51.667,390.333 51.667 C 390.242 51.667,390.167 51.817,390.167 52.000 C 390.167 52.183,390.092 52.333,390.000 52.333 C 389.908 52.333,389.833 52.483,389.833 52.667 C 389.833 52.850,389.758 53.000,389.667 53.000 C 389.575 53.000,389.500 53.114,389.500 53.253 C 389.500 53.582,387.082 56.000,386.753 56.000 C 386.614 56.000,386.500 56.075,386.500 56.167 C 386.500 56.258,386.350 56.333,386.167 56.333 C 385.983 56.333,385.833 56.408,385.833 56.500 C 385.833 56.592,385.533 56.667,385.167 56.667 C 384.800 56.667,384.500 56.742,384.500 56.833 C 384.500 56.931,383.944 57.000,383.167 57.000 C 382.389 57.000,381.833 56.931,381.833 56.833 C 381.833 56.742,381.608 56.667,381.333 56.667 C 381.058 56.667,380.833 56.592,380.833 56.500 C 380.833 56.408,380.683 56.333,380.500 56.333 C 380.317 56.333,380.167 56.258,380.167 56.167 C 380.167 56.075,380.047 56.000,379.900 56.000 C 379.754 56.000,379.424 55.775,379.167 55.500 C 378.910 55.225,378.580 55.000,378.433 55.000 C 378.287 55.000,378.167 54.880,378.167 54.734 C 378.167 54.587,377.942 54.257,377.667 54.000 C 377.392 53.743,377.167 53.430,377.167 53.303 C 377.167 53.177,377.017 52.965,376.833 52.833 C 376.650 52.701,376.500 52.460,376.500 52.297 C 376.500 52.133,376.425 52.000,376.333 52.000 C 376.242 52.000,376.167 51.775,376.167 51.500 C 376.167 51.225,376.092 51.000,376.000 51.000 C 375.908 51.000,375.833 50.775,375.833 50.500 C 375.833 50.225,375.758 50.000,375.667 50.000 C 375.575 50.000,375.500 49.775,375.500 49.500 C 375.500 49.225,375.433 49.000,375.351 49.000 C 375.270 49.000,375.149 48.231,375.083 47.292 C 375.017 46.352,374.894 45.497,374.809 45.392 C 374.426 44.919,374.934 34.177,375.346 34.028 C 375.431 33.997,375.500 33.678,375.500 33.319 C 375.500 32.960,375.575 32.667,375.667 32.667 C 375.758 32.667,375.833 32.442,375.833 32.167 C 375.833 31.892,375.908 31.667,376.000 31.667 C 376.092 31.667,376.167 31.517,376.167 31.333 C 376.167 31.150,376.242 31.000,376.333 31.000 C 376.425 31.000,376.500 30.850,376.500 30.667 C 376.500 30.483,376.575 30.333,376.667 30.333 C 376.758 30.333,376.833 30.200,376.833 30.037 C 376.833 29.874,376.983 29.632,377.167 29.500 C 377.350 29.368,377.500 29.162,377.500 29.042 C 377.500 28.759,378.926 27.333,379.209 27.333 C 379.328 27.333,379.535 27.183,379.667 27.000 C 379.799 26.817,380.040 26.667,380.203 26.667 C 380.367 26.667,380.500 26.592,380.500 26.500 C 380.500 26.408,380.725 26.333,381.000 26.333 C 381.275 26.333,381.500 26.258,381.500 26.167 C 381.500 26.066,382.222 26.000,383.333 26.000 C 384.444 26.000,385.167 26.066,385.167 26.167 M170.667 44.667 C 170.667 46.111,170.603 47.000,170.500 47.000 C 170.405 47.000,170.333 47.500,170.333 48.167 C 170.333 48.833,170.262 49.333,170.167 49.333 C 170.075 49.333,170.000 49.558,170.000 49.833 C 170.000 50.108,169.925 50.333,169.833 50.333 C 169.742 50.333,169.667 50.558,169.667 50.833 C 169.667 51.108,169.592 51.333,169.500 51.333 C 169.408 51.333,169.333 51.467,169.333 51.630 C 169.333 51.793,169.183 52.035,169.000 52.167 C 168.817 52.299,168.667 52.504,168.667 52.623 C 168.667 52.926,166.227 55.333,165.919 55.333 C 165.780 55.333,165.667 55.408,165.667 55.500 C 165.667 55.592,165.517 55.667,165.333 55.667 C 165.150 55.667,165.000 55.742,165.000 55.833 C 165.000 55.925,164.700 56.000,164.333 56.000 C 163.967 56.000,163.667 56.075,163.667 56.167 C 163.667 56.258,163.292 56.333,162.833 56.333 C 162.375 56.333,162.000 56.258,162.000 56.167 C 162.000 56.075,161.792 56.000,161.537 56.000 C 161.265 56.000,160.974 55.862,160.833 55.667 C 160.701 55.483,160.495 55.333,160.374 55.333 C 160.071 55.333,159.000 54.234,159.000 53.922 C 159.000 53.782,158.925 53.667,158.833 53.667 C 158.742 53.667,158.667 53.517,158.667 53.333 C 158.667 53.150,158.592 53.000,158.500 53.000 C 158.408 53.000,158.333 52.850,158.333 52.667 C 158.333 52.483,158.258 52.333,158.167 52.333 C 158.075 52.333,158.000 52.033,158.000 51.667 C 158.000 51.300,157.925 51.000,157.833 51.000 C 157.742 51.000,157.667 50.629,157.667 50.177 C 157.667 49.724,157.742 49.307,157.833 49.250 C 157.925 49.193,158.000 48.889,158.000 48.573 C 158.000 48.258,158.075 48.000,158.167 48.000 C 158.258 48.000,158.333 47.886,158.333 47.748 C 158.333 47.157,160.550 44.667,161.077 44.667 C 161.218 44.667,161.333 44.592,161.333 44.500 C 161.333 44.408,161.483 44.333,161.667 44.333 C 161.850 44.333,162.000 44.258,162.000 44.167 C 162.000 44.075,162.150 44.000,162.333 44.000 C 162.517 44.000,162.667 43.925,162.667 43.833 C 162.667 43.742,162.892 43.667,163.167 43.667 C 163.442 43.667,163.667 43.592,163.667 43.500 C 163.667 43.408,163.925 43.333,164.240 43.333 C 164.556 43.333,164.860 43.258,164.917 43.167 C 164.973 43.075,165.315 43.000,165.677 43.000 C 166.038 43.000,166.333 42.925,166.333 42.833 C 166.333 42.736,166.889 42.667,167.667 42.667 C 168.444 42.667,169.000 42.597,169.000 42.500 C 169.000 42.408,169.375 42.333,169.833 42.333 L 170.667 42.333 170.667 44.667 M356.667 58.667 C 356.667 58.758,357.042 58.833,357.500 58.833 C 357.958 58.833,358.333 58.908,358.333 59.000 C 358.333 59.092,358.558 59.167,358.833 59.167 C 359.108 59.167,359.333 59.242,359.333 59.333 C 359.333 59.425,359.448 59.500,359.588 59.500 C 359.918 59.500,361.333 60.915,361.333 61.246 C 361.333 61.386,361.408 61.500,361.500 61.500 C 361.592 61.500,361.667 61.650,361.667 61.833 C 361.667 62.017,361.742 62.167,361.833 62.167 C 361.931 62.167,362.000 62.722,362.000 63.500 C 362.000 64.278,361.931 64.833,361.833 64.833 C 361.742 64.833,361.667 65.058,361.667 65.333 C 361.667 65.608,361.592 65.833,361.500 65.833 C 361.408 65.833,361.333 65.983,361.333 66.167 C 361.333 66.350,361.258 66.500,361.167 66.500 C 361.075 66.500,361.000 66.614,361.000 66.753 C 361.000 67.060,358.593 69.500,358.289 69.500 C 358.171 69.500,357.965 69.650,357.833 69.833 C 357.701 70.017,357.460 70.167,357.297 70.167 C 357.133 70.167,357.000 70.242,357.000 70.333 C 357.000 70.425,356.850 70.500,356.667 70.500 C 356.483 70.500,356.333 70.575,356.333 70.667 C 356.333 70.758,356.183 70.833,356.000 70.833 C 355.817 70.833,355.667 70.908,355.667 71.000 C 355.667 71.092,355.442 71.167,355.167 71.167 C 354.892 71.167,354.667 71.242,354.667 71.333 C 354.667 71.425,354.367 71.500,354.000 71.500 C 353.633 71.500,353.333 71.575,353.333 71.667 C 353.333 71.758,353.033 71.833,352.667 71.833 C 352.300 71.833,352.000 71.908,352.000 72.000 C 352.000 72.105,350.944 72.167,349.167 72.167 C 347.389 72.167,346.333 72.105,346.333 72.000 C 346.333 71.908,346.033 71.833,345.667 71.833 C 345.300 71.833,345.000 71.758,345.000 71.667 C 345.000 71.575,344.775 71.500,344.500 71.500 C 344.225 71.500,344.000 71.425,344.000 71.333 C 344.000 71.242,343.850 71.167,343.667 71.167 C 343.483 71.167,343.333 71.092,343.333 71.000 C 343.333 70.908,343.200 70.833,343.037 70.833 C 342.874 70.833,342.632 70.683,342.500 70.500 C 342.368 70.317,342.162 70.167,342.043 70.167 C 341.740 70.167,339.667 68.061,339.667 67.753 C 339.667 67.614,339.592 67.500,339.500 67.500 C 339.408 67.500,339.333 67.350,339.333 67.167 C 339.333 66.983,339.258 66.833,339.167 66.833 C 339.075 66.833,339.000 66.608,339.000 66.333 C 339.000 66.058,338.925 65.833,338.833 65.833 C 338.733 65.833,338.667 65.167,338.667 64.167 C 338.667 63.167,338.733 62.500,338.833 62.500 C 338.925 62.500,339.000 62.292,339.000 62.037 C 339.000 61.765,339.138 61.474,339.333 61.333 C 339.517 61.201,339.667 60.995,339.667 60.874 C 339.667 60.595,340.753 59.502,341.036 59.495 C 341.154 59.492,341.438 59.270,341.667 59.000 L 342.083 58.510 349.375 58.505 C 354.128 58.502,356.667 58.558,356.667 58.667 " stroke="none" fill="#142c4c" fill-rule="evenodd"></path></g></svg>