<svg id="svg" version="1.1" xmlns="http://www.w3.org/2000/svg" xmlns:xlink="http://www.w3.org/1999/xlink" width="400" height="95.98051157125457" viewBox="0, 0, 400,95.98051157125457"><g id="svgg"><path id="path0" d="M304.833 0.523 C 304.833 0.866,304.976 1.178,305.250 1.431 C 305.479 1.644,305.667 1.896,305.667 1.992 C 305.667 2.088,305.779 2.167,305.917 2.167 C 306.054 2.167,306.167 2.279,306.167 2.417 C 306.167 2.554,306.279 2.667,306.417 2.667 C 306.554 2.667,306.667 2.779,306.667 2.917 C 306.667 3.054,306.779 3.167,306.917 3.167 C 307.054 3.167,307.167 3.279,307.167 3.417 C 307.167 3.554,307.279 3.667,307.417 3.667 C 307.554 3.667,307.667 3.779,307.667 3.917 C 307.667 4.054,307.779 4.167,307.917 4.167 C 308.054 4.167,308.167 4.279,308.167 4.417 C 308.167 4.554,308.279 4.667,308.417 4.667 C 308.554 4.667,308.667 4.779,308.667 4.917 C 308.667 5.054,308.745 5.167,308.841 5.167 C 308.937 5.167,309.190 5.354,309.402 5.583 C 309.614 5.813,309.873 6.000,309.977 6.000 C 310.082 6.000,310.167 6.112,310.167 6.250 C 310.167 6.388,310.279 6.500,310.417 6.500 C 310.554 6.500,310.667 6.612,310.667 6.750 C 310.667 6.888,310.779 7.000,310.917 7.000 C 311.054 7.000,311.167 7.084,311.167 7.186 C 311.167 7.289,311.467 7.663,311.833 8.019 C 312.200 8.375,312.500 8.741,312.500 8.833 C 312.500 8.925,312.612 9.000,312.750 9.000 C 312.887 9.000,313.000 9.112,313.000 9.250 C 313.000 9.387,313.112 9.500,313.250 9.500 C 313.387 9.500,313.500 9.612,313.500 9.750 C 313.500 9.887,313.612 10.000,313.750 10.000 C 313.887 10.000,314.000 10.112,314.000 10.250 C 314.000 10.387,314.112 10.500,314.250 10.500 C 314.387 10.500,314.500 10.612,314.500 10.750 C 314.500 10.887,314.575 11.000,314.667 11.000 C 314.759 11.000,315.125 11.300,315.481 11.667 C 315.837 12.033,316.211 12.333,316.314 12.333 C 316.416 12.333,316.500 12.446,316.500 12.583 C 316.500 12.721,316.612 12.833,316.750 12.833 C 316.887 12.833,317.000 12.946,317.000 13.083 C 317.000 13.221,317.112 13.333,317.250 13.333 C 317.387 13.333,317.500 13.417,317.500 13.520 C 317.500 13.622,317.800 13.997,318.167 14.353 C 318.533 14.708,318.833 15.075,318.833 15.166 C 318.833 15.258,318.946 15.333,319.083 15.333 C 319.221 15.333,319.333 15.446,319.333 15.583 C 319.333 15.721,319.446 15.833,319.583 15.833 C 319.721 15.833,319.833 15.946,319.833 16.083 C 319.833 16.221,319.907 16.333,319.996 16.333 C 320.086 16.333,320.566 16.746,321.062 17.250 C 321.558 17.754,322.047 18.167,322.149 18.167 C 322.250 18.167,322.333 18.279,322.333 18.417 C 322.333 18.554,322.446 18.667,322.583 18.667 C 322.721 18.667,322.833 18.779,322.833 18.917 C 322.833 19.054,322.946 19.167,323.083 19.167 C 323.221 19.167,323.333 19.279,323.333 19.417 C 323.333 19.554,323.446 19.667,323.583 19.667 C 323.721 19.667,323.833 19.750,323.833 19.851 C 323.833 19.953,324.246 20.442,324.750 20.938 C 325.254 21.434,325.667 21.914,325.667 22.004 C 325.667 22.093,325.740 22.167,325.830 22.167 C 325.920 22.167,326.399 22.579,326.895 23.083 C 327.391 23.587,327.880 24.000,327.982 24.000 C 328.084 24.000,328.167 24.113,328.167 24.250 C 328.167 24.387,328.279 24.500,328.417 24.500 C 328.554 24.500,328.667 24.613,328.667 24.750 C 328.667 24.887,328.779 25.000,328.917 25.000 C 329.054 25.000,329.167 25.113,329.167 25.250 C 329.167 25.387,329.279 25.500,329.417 25.500 C 329.554 25.500,329.667 25.613,329.667 25.750 C 329.667 25.887,329.779 26.000,329.917 26.000 C 330.054 26.000,330.167 26.075,330.167 26.167 C 330.167 27.048,328.913 27.000,352.167 27.000 L 373.500 27.000 373.500 48.417 C 373.500 67.343,373.529 69.833,373.750 69.833 C 373.887 69.833,374.000 69.946,374.000 70.083 C 374.000 70.221,374.113 70.333,374.250 70.333 C 374.387 70.333,374.500 70.405,374.500 70.494 C 374.500 70.718,375.930 72.167,376.152 72.167 C 376.252 72.167,376.333 72.279,376.333 72.417 C 376.333 72.554,376.446 72.667,376.583 72.667 C 376.721 72.667,376.833 72.779,376.833 72.917 C 376.833 73.054,376.946 73.167,377.083 73.167 C 377.221 73.167,377.333 73.279,377.333 73.417 C 377.333 73.554,377.446 73.667,377.583 73.667 C 377.721 73.667,377.833 73.779,377.833 73.917 C 377.833 74.054,377.946 74.167,378.083 74.167 C 378.221 74.167,378.333 74.279,378.333 74.417 C 378.333 74.554,378.446 74.667,378.583 74.667 C 378.721 74.667,378.833 74.779,378.833 74.917 C 378.833 75.054,378.946 75.167,379.083 75.167 C 379.221 75.167,379.333 75.279,379.333 75.417 C 379.333 75.554,379.446 75.667,379.583 75.667 C 379.721 75.667,379.833 75.779,379.833 75.917 C 379.833 76.054,379.946 76.167,380.083 76.167 C 380.221 76.167,380.333 76.279,380.333 76.417 C 380.333 76.554,380.446 76.667,380.583 76.667 C 380.721 76.667,380.833 76.736,380.833 76.821 C 380.833 77.021,381.813 78.000,382.013 78.000 C 382.097 78.000,382.167 78.112,382.167 78.250 C 382.167 78.387,382.279 78.500,382.417 78.500 C 382.554 78.500,382.667 78.612,382.667 78.750 C 382.667 78.887,382.779 79.000,382.917 79.000 C 383.054 79.000,383.167 79.112,383.167 79.250 C 383.167 79.387,383.279 79.500,383.417 79.500 C 383.554 79.500,383.667 79.612,383.667 79.750 C 383.667 79.887,383.779 80.000,383.917 80.000 C 384.054 80.000,384.167 80.112,384.167 80.250 C 384.167 80.387,384.279 80.500,384.417 80.500 C 384.554 80.500,384.667 80.612,384.667 80.750 C 384.667 80.887,384.779 81.000,384.917 81.000 C 385.054 81.000,385.167 81.112,385.167 81.250 C 385.167 81.387,385.279 81.500,385.417 81.500 C 385.554 81.500,385.667 81.612,385.667 81.750 C 385.667 81.887,385.779 82.000,385.917 82.000 C 386.054 82.000,386.167 82.112,386.167 82.250 C 386.167 82.387,386.279 82.500,386.417 82.500 C 386.554 82.500,386.667 82.612,386.667 82.750 C 386.667 82.887,386.736 83.000,386.821 83.000 C 387.021 83.000,388.000 83.979,388.000 84.179 C 388.000 84.264,388.113 84.333,388.250 84.333 C 388.387 84.333,388.500 84.446,388.500 84.583 C 388.500 84.721,388.613 84.833,388.750 84.833 C 388.887 84.833,389.000 84.946,389.000 85.083 C 389.000 85.221,389.113 85.333,389.250 85.333 C 389.387 85.333,389.500 85.446,389.500 85.583 C 389.500 85.721,389.613 85.833,389.750 85.833 C 389.887 85.833,390.000 85.946,390.000 86.083 C 390.000 86.221,390.113 86.333,390.250 86.333 C 390.387 86.333,390.500 86.446,390.500 86.583 C 390.500 86.721,390.613 86.833,390.750 86.833 C 390.887 86.833,391.000 86.946,391.000 87.083 C 391.000 87.221,391.113 87.333,391.250 87.333 C 391.387 87.333,391.500 87.446,391.500 87.583 C 391.500 87.721,391.613 87.833,391.750 87.833 C 391.887 87.833,392.000 87.946,392.000 88.083 C 392.000 88.221,392.113 88.333,392.250 88.333 C 392.387 88.333,392.500 88.446,392.500 88.583 C 392.500 88.721,392.571 88.833,392.657 88.833 C 392.869 88.833,394.333 90.288,394.333 90.499 C 394.333 90.591,394.446 90.667,394.583 90.667 C 394.721 90.667,394.833 90.779,394.833 90.917 C 394.833 91.054,394.946 91.167,395.083 91.167 C 395.221 91.167,395.333 91.279,395.333 91.417 C 395.333 91.554,395.446 91.667,395.583 91.667 C 395.721 91.667,395.833 91.779,395.833 91.917 C 395.833 92.054,395.946 92.167,396.083 92.167 C 396.221 92.167,396.333 92.279,396.333 92.417 C 396.333 92.554,396.446 92.667,396.583 92.667 C 396.721 92.667,396.833 92.779,396.833 92.917 C 396.833 93.054,396.946 93.167,397.083 93.167 C 397.221 93.167,397.333 93.279,397.333 93.417 C 397.333 93.554,397.446 93.667,397.583 93.667 C 397.721 93.667,397.833 93.779,397.833 93.917 C 397.833 94.054,397.946 94.167,398.083 94.167 C 398.221 94.167,398.333 94.279,398.333 94.417 C 398.333 94.554,398.446 94.667,398.583 94.667 C 398.721 94.667,398.833 94.779,398.833 94.917 C 398.833 95.091,399.009 95.167,399.417 95.167 L 400.000 95.167 400.000 47.583 L 400.000 0.000 352.417 0.000 L 304.833 0.000 304.833 0.523 M32.944 6.278 C 32.883 6.339,32.833 6.631,32.833 6.927 C 32.833 7.251,32.734 7.502,32.583 7.560 C 32.446 7.613,32.333 7.846,32.333 8.078 C 32.333 8.310,32.263 8.500,32.177 8.500 C 32.091 8.500,31.970 8.837,31.908 9.250 C 31.846 9.662,31.729 10.000,31.648 10.000 C 31.566 10.000,31.500 10.225,31.500 10.500 C 31.500 10.833,31.417 11.000,31.250 11.000 C 31.071 11.000,31.000 11.183,31.000 11.649 C 31.000 12.072,30.913 12.331,30.750 12.394 C 30.613 12.446,30.500 12.671,30.500 12.894 C 30.500 13.116,30.387 13.341,30.250 13.394 C 30.085 13.457,30.000 13.718,30.000 14.161 C 30.000 14.648,29.931 14.833,29.750 14.833 C 29.583 14.833,29.500 15.000,29.500 15.333 C 29.500 15.667,29.417 15.833,29.250 15.833 C 29.065 15.833,29.000 16.028,29.000 16.583 C 29.000 17.139,28.935 17.333,28.750 17.333 C 28.583 17.333,28.500 17.500,28.500 17.833 C 28.500 18.167,28.417 18.333,28.250 18.333 C 28.069 18.333,28.000 18.519,28.000 19.000 C 28.000 19.481,27.931 19.667,27.750 19.667 C 27.585 19.667,27.500 19.831,27.500 20.149 C 27.500 20.424,27.393 20.672,27.250 20.727 C 27.085 20.790,27.000 21.051,27.000 21.495 C 27.000 21.981,26.931 22.167,26.750 22.167 C 26.585 22.167,26.500 22.331,26.500 22.649 C 26.500 22.924,26.393 23.172,26.250 23.227 C 26.102 23.284,26.000 23.534,26.000 23.840 C 26.000 24.124,25.887 24.470,25.750 24.607 C 25.613 24.745,25.500 25.002,25.500 25.179 C 25.500 25.355,25.425 25.500,25.333 25.500 C 25.242 25.500,25.167 25.837,25.167 26.250 C 25.167 26.806,25.102 27.000,24.917 27.000 C 24.750 27.000,24.667 27.167,24.667 27.500 C 24.667 27.833,24.583 28.000,24.417 28.000 C 24.231 28.000,24.167 28.194,24.167 28.750 C 24.167 29.306,24.102 29.500,23.917 29.500 C 23.760 29.500,23.667 29.658,23.667 29.922 C 23.667 30.154,23.554 30.387,23.417 30.440 C 23.254 30.502,23.167 30.762,23.167 31.184 C 23.167 31.650,23.096 31.833,22.917 31.833 C 22.750 31.833,22.667 32.000,22.667 32.333 C 22.667 32.667,22.583 32.833,22.417 32.833 C 22.250 32.833,22.167 33.000,22.167 33.333 C 22.167 33.667,22.083 33.833,21.917 33.833 C 21.731 33.833,21.667 34.028,21.667 34.583 C 21.667 35.139,21.602 35.333,21.417 35.333 C 21.250 35.333,21.167 35.500,21.167 35.833 C 21.167 36.167,21.083 36.333,20.917 36.333 C 20.737 36.333,20.667 36.517,20.667 36.982 C 20.667 37.405,20.580 37.664,20.417 37.727 C 20.279 37.780,20.167 38.006,20.167 38.231 C 20.167 38.455,20.090 38.664,19.996 38.696 C 19.902 38.727,19.777 39.051,19.718 39.417 C 19.658 39.782,19.510 40.180,19.388 40.302 C 19.266 40.424,19.167 40.668,19.167 40.845 C 19.167 41.022,19.092 41.167,19.000 41.167 C 18.908 41.167,18.833 41.467,18.833 41.833 C 18.833 42.315,18.764 42.500,18.583 42.500 C 18.419 42.500,18.333 42.665,18.333 42.982 C 18.333 43.257,18.226 43.506,18.083 43.560 C 17.918 43.624,17.833 43.885,17.833 44.328 C 17.833 44.814,17.764 45.000,17.583 45.000 C 17.417 45.000,17.333 45.167,17.333 45.500 C 17.333 45.833,17.250 46.000,17.083 46.000 C 16.898 46.000,16.833 46.194,16.833 46.750 C 16.833 47.306,16.769 47.500,16.583 47.500 C 16.427 47.500,16.333 47.658,16.333 47.922 C 16.333 48.154,16.221 48.387,16.083 48.440 C 15.920 48.502,15.833 48.762,15.833 49.184 C 15.833 49.650,15.763 49.833,15.583 49.833 C 15.417 49.833,15.333 50.000,15.333 50.333 C 15.333 50.667,15.250 50.833,15.083 50.833 C 14.898 50.833,14.833 51.028,14.833 51.583 C 14.833 52.139,14.769 52.333,14.583 52.333 C 14.417 52.333,14.333 52.500,14.333 52.833 C 14.333 53.167,14.250 53.333,14.083 53.333 C 13.904 53.333,13.833 53.517,13.833 53.982 C 13.833 54.405,13.746 54.664,13.583 54.727 C 13.446 54.780,13.333 55.006,13.333 55.231 C 13.333 55.455,13.253 55.666,13.156 55.698 C 13.058 55.731,12.936 56.074,12.884 56.462 C 12.832 56.850,12.724 57.167,12.645 57.167 C 12.565 57.167,12.500 57.392,12.500 57.667 C 12.500 58.000,12.417 58.167,12.250 58.167 C 12.065 58.167,12.000 58.361,12.000 58.917 C 12.000 59.472,11.935 59.667,11.750 59.667 C 11.597 59.667,11.500 59.822,11.500 60.066 C 11.500 60.285,11.387 60.508,11.250 60.560 C 11.085 60.624,11.000 60.885,11.000 61.328 C 11.000 61.814,10.931 62.000,10.750 62.000 C 10.583 62.000,10.500 62.167,10.500 62.500 C 10.500 62.833,10.417 63.000,10.250 63.000 C 10.083 63.000,10.000 63.167,10.000 63.500 C 10.000 63.833,9.917 64.000,9.750 64.000 C 9.565 64.000,9.500 64.194,9.500 64.750 C 9.500 65.306,9.435 65.500,9.250 65.500 C 9.083 65.500,9.000 65.667,9.000 66.000 C 9.000 66.333,8.917 66.500,8.750 66.500 C 8.571 66.500,8.500 66.683,8.500 67.149 C 8.500 67.572,8.413 67.831,8.250 67.894 C 8.113 67.946,8.000 68.171,8.000 68.394 C 8.000 68.616,7.888 68.841,7.750 68.894 C 7.587 68.956,7.500 69.216,7.500 69.644 C 7.500 70.071,7.413 70.331,7.250 70.394 C 7.113 70.446,7.000 70.679,7.000 70.911 C 7.000 71.143,6.926 71.333,6.835 71.333 C 6.745 71.333,6.623 71.633,6.564 72.000 C 6.505 72.367,6.392 72.667,6.312 72.667 C 6.232 72.667,6.167 72.892,6.167 73.167 C 6.167 73.500,6.083 73.667,5.917 73.667 C 5.731 73.667,5.667 73.861,5.667 74.417 C 5.667 74.972,5.602 75.167,5.417 75.167 C 5.250 75.167,5.167 75.333,5.167 75.667 C 5.167 76.000,5.083 76.167,4.917 76.167 C 4.731 76.167,4.667 76.361,4.667 76.917 C 4.667 77.472,4.602 77.667,4.417 77.667 C 4.260 77.667,4.167 77.825,4.167 78.089 C 4.167 78.321,4.054 78.554,3.917 78.606 C 3.754 78.669,3.667 78.928,3.667 79.351 C 3.667 79.817,3.596 80.000,3.417 80.000 C 3.250 80.000,3.167 80.167,3.167 80.500 C 3.167 80.833,3.083 81.000,2.917 81.000 C 2.731 81.000,2.667 81.194,2.667 81.750 C 2.667 82.306,2.602 82.500,2.417 82.500 C 2.250 82.500,2.167 82.667,2.167 83.000 C 2.167 83.333,2.083 83.500,1.917 83.500 C 1.737 83.500,1.667 83.683,1.667 84.149 C 1.667 84.572,1.580 84.831,1.417 84.894 C 1.279 84.946,1.167 85.171,1.167 85.394 C 1.167 85.616,1.054 85.841,0.917 85.894 C 0.757 85.955,0.667 86.211,0.667 86.601 C 0.667 86.956,0.560 87.291,0.414 87.398 C 0.254 87.516,0.123 87.996,0.057 88.710 L -0.048 89.836 11.267 89.793 L 22.583 89.750 22.636 89.292 C 22.666 89.029,22.791 88.833,22.928 88.833 C 23.080 88.833,23.167 88.659,23.167 88.351 C 23.167 88.076,23.274 87.828,23.417 87.773 C 23.582 87.710,23.667 87.449,23.667 87.005 C 23.667 86.519,23.736 86.333,23.917 86.333 C 24.102 86.333,24.167 86.139,24.167 85.583 C 24.167 85.028,24.231 84.833,24.417 84.833 C 24.574 84.833,24.667 84.675,24.667 84.405 C 24.667 84.169,24.779 83.864,24.917 83.726 C 25.054 83.589,25.167 83.257,25.167 82.988 C 25.167 82.720,25.242 82.500,25.333 82.500 C 25.425 82.500,25.500 82.162,25.500 81.750 C 25.500 81.194,25.565 81.000,25.750 81.000 C 25.917 81.000,26.000 80.833,26.000 80.500 C 26.000 80.167,26.083 80.000,26.250 80.000 C 26.435 80.000,26.500 79.806,26.500 79.250 C 26.500 78.694,26.565 78.500,26.750 78.500 C 26.931 78.500,27.000 78.315,27.000 77.833 C 27.000 77.352,27.069 77.167,27.250 77.167 C 27.417 77.167,27.500 77.000,27.500 76.667 C 27.500 76.333,27.583 76.167,27.750 76.167 C 27.935 76.167,28.000 75.972,28.000 75.417 C 28.000 74.861,28.065 74.667,28.250 74.667 C 28.435 74.667,28.500 74.472,28.500 73.917 L 28.500 73.167 46.417 73.167 C 66.258 73.167,65.000 73.099,65.000 74.172 C 65.000 74.358,65.112 74.554,65.250 74.606 C 65.393 74.661,65.500 74.910,65.500 75.184 C 65.500 75.502,65.585 75.667,65.750 75.667 C 65.931 75.667,66.000 75.852,66.000 76.339 C 66.000 76.782,66.085 77.043,66.250 77.106 C 66.388 77.159,66.500 77.382,66.500 77.601 C 66.500 77.845,66.597 78.000,66.750 78.000 C 66.935 78.000,67.000 78.194,67.000 78.750 C 67.000 79.306,67.065 79.500,67.250 79.500 C 67.417 79.500,67.500 79.667,67.500 80.000 C 67.500 80.333,67.583 80.500,67.750 80.500 C 67.917 80.500,68.000 80.667,68.000 81.000 C 68.000 81.333,68.083 81.500,68.250 81.500 C 68.431 81.500,68.500 81.686,68.500 82.172 C 68.500 82.615,68.585 82.876,68.750 82.940 C 68.888 82.992,69.000 83.215,69.000 83.434 C 69.000 83.678,69.097 83.833,69.250 83.833 C 69.434 83.833,69.500 84.026,69.500 84.566 C 69.500 85.063,69.580 85.328,69.750 85.394 C 69.887 85.446,70.000 85.679,70.000 85.911 C 70.000 86.143,70.065 86.333,70.145 86.333 C 70.224 86.333,70.332 86.650,70.384 87.038 C 70.436 87.426,70.558 87.769,70.656 87.802 C 70.753 87.834,70.833 88.039,70.833 88.256 C 70.833 88.473,70.939 88.710,71.067 88.783 C 71.196 88.857,71.327 89.104,71.359 89.333 L 71.417 89.750 82.937 89.793 C 95.607 89.840,94.982 89.890,94.751 88.840 C 94.690 88.561,94.571 88.333,94.487 88.333 C 94.402 88.333,94.333 88.143,94.333 87.911 C 94.333 87.679,94.221 87.446,94.083 87.394 C 93.941 87.339,93.833 87.090,93.833 86.816 C 93.833 86.498,93.748 86.333,93.583 86.333 C 93.417 86.333,93.333 86.167,93.333 85.833 C 93.333 85.500,93.250 85.333,93.083 85.333 C 92.903 85.333,92.833 85.148,92.833 84.667 C 92.833 84.185,92.764 84.000,92.583 84.000 C 92.417 84.000,92.333 83.833,92.333 83.500 C 92.333 83.167,92.250 83.000,92.083 83.000 C 91.917 83.000,91.833 82.833,91.833 82.500 C 91.833 82.167,91.750 82.000,91.583 82.000 C 91.417 82.000,91.333 81.833,91.333 81.500 C 91.333 81.167,91.250 81.000,91.083 81.000 C 90.902 81.000,90.833 80.814,90.833 80.328 C 90.833 79.885,90.748 79.624,90.583 79.560 C 90.446 79.508,90.333 79.283,90.333 79.060 C 90.333 78.838,90.221 78.613,90.083 78.560 C 89.946 78.508,89.833 78.285,89.833 78.066 C 89.833 77.822,89.736 77.667,89.583 77.667 C 89.417 77.667,89.333 77.500,89.333 77.167 C 89.333 76.833,89.250 76.667,89.083 76.667 C 88.898 76.667,88.833 76.472,88.833 75.917 C 88.833 75.504,88.758 75.167,88.667 75.167 C 88.575 75.167,88.500 75.022,88.500 74.845 C 88.500 74.668,88.388 74.411,88.250 74.274 C 88.112 74.136,88.000 73.866,88.000 73.673 C 88.000 73.481,87.888 73.280,87.750 73.227 C 87.612 73.174,87.500 72.949,87.500 72.727 C 87.500 72.505,87.388 72.280,87.250 72.227 C 87.095 72.168,87.000 71.914,87.000 71.560 C 87.000 71.207,86.905 70.953,86.750 70.894 C 86.607 70.839,86.500 70.590,86.500 70.316 C 86.500 69.998,86.415 69.833,86.250 69.833 C 86.083 69.833,86.000 69.667,86.000 69.333 C 86.000 69.000,85.917 68.833,85.750 68.833 C 85.583 68.833,85.500 68.667,85.500 68.333 C 85.500 68.000,85.417 67.833,85.250 67.833 C 85.069 67.833,85.000 67.648,85.000 67.167 C 85.000 66.685,84.931 66.500,84.750 66.500 C 84.583 66.500,84.500 66.333,84.500 66.000 C 84.500 65.667,84.417 65.500,84.250 65.500 C 84.083 65.500,84.000 65.333,84.000 65.000 C 84.000 64.667,83.917 64.500,83.750 64.500 C 83.583 64.500,83.500 64.333,83.500 64.000 C 83.500 63.667,83.417 63.500,83.250 63.500 C 83.065 63.500,83.000 63.306,83.000 62.750 C 83.000 62.194,82.935 62.000,82.750 62.000 C 82.583 62.000,82.500 61.833,82.500 61.500 C 82.500 61.225,82.425 61.000,82.333 61.000 C 82.242 61.000,82.167 60.821,82.167 60.601 C 82.167 60.382,82.054 60.159,81.917 60.106 C 81.772 60.051,81.667 59.802,81.667 59.517 C 81.667 59.246,81.554 58.911,81.417 58.774 C 81.279 58.636,81.167 58.331,81.167 58.095 C 81.167 57.825,81.074 57.667,80.917 57.667 C 80.750 57.667,80.667 57.500,80.667 57.167 C 80.667 56.833,80.583 56.667,80.417 56.667 C 80.250 56.667,80.167 56.500,80.167 56.167 C 80.167 55.833,80.083 55.667,79.917 55.667 C 79.736 55.667,79.667 55.481,79.667 55.000 C 79.667 54.519,79.597 54.333,79.417 54.333 C 79.250 54.333,79.167 54.167,79.167 53.833 C 79.167 53.500,79.083 53.333,78.917 53.333 C 78.750 53.333,78.667 53.167,78.667 52.833 C 78.667 52.500,78.583 52.333,78.417 52.333 C 78.250 52.333,78.167 52.167,78.167 51.833 C 78.167 51.500,78.083 51.333,77.917 51.333 C 77.736 51.333,77.667 51.148,77.667 50.661 C 77.667 50.218,77.582 49.957,77.417 49.894 C 77.279 49.841,77.167 49.616,77.167 49.394 C 77.167 49.171,77.054 48.946,76.917 48.894 C 76.779 48.841,76.667 48.618,76.667 48.399 C 76.667 48.155,76.569 48.000,76.417 48.000 C 76.250 48.000,76.167 47.833,76.167 47.500 C 76.167 47.225,76.102 47.000,76.022 47.000 C 75.942 47.000,75.835 46.683,75.783 46.295 C 75.731 45.908,75.608 45.564,75.511 45.531 C 75.413 45.499,75.333 45.289,75.333 45.064 C 75.333 44.840,75.221 44.613,75.083 44.560 C 74.946 44.508,74.833 44.283,74.833 44.060 C 74.833 43.838,74.721 43.613,74.583 43.560 C 74.446 43.508,74.333 43.283,74.333 43.060 C 74.333 42.838,74.221 42.613,74.083 42.560 C 73.920 42.498,73.833 42.238,73.833 41.816 C 73.833 41.350,73.763 41.167,73.583 41.167 C 73.417 41.167,73.333 41.000,73.333 40.667 C 73.333 40.333,73.250 40.167,73.083 40.167 C 72.917 40.167,72.833 40.000,72.833 39.667 C 72.833 39.333,72.750 39.167,72.583 39.167 C 72.417 39.167,72.333 39.000,72.333 38.667 C 72.333 38.333,72.250 38.167,72.083 38.167 C 71.904 38.167,71.833 37.983,71.833 37.518 C 71.833 37.095,71.746 36.836,71.583 36.773 C 71.446 36.720,71.333 36.487,71.333 36.255 C 71.333 35.991,71.240 35.833,71.083 35.833 C 70.917 35.833,70.833 35.667,70.833 35.333 C 70.833 35.000,70.750 34.833,70.583 34.833 C 70.417 34.833,70.333 34.667,70.333 34.333 C 70.333 34.000,70.250 33.833,70.083 33.833 C 69.898 33.833,69.833 33.639,69.833 33.083 C 69.833 32.671,69.758 32.333,69.667 32.333 C 69.575 32.333,69.500 32.189,69.500 32.012 C 69.500 31.835,69.387 31.578,69.250 31.440 C 69.112 31.303,69.000 31.033,69.000 30.840 C 69.000 30.647,68.887 30.446,68.750 30.394 C 68.612 30.341,68.500 30.118,68.500 29.899 C 68.500 29.655,68.403 29.500,68.250 29.500 C 68.069 29.500,68.000 29.314,68.000 28.828 C 68.000 28.385,67.915 28.124,67.750 28.060 C 67.607 28.006,67.500 27.757,67.500 27.482 C 67.500 27.165,67.415 27.000,67.250 27.000 C 67.083 27.000,67.000 26.833,67.000 26.500 C 67.000 26.167,66.917 26.000,66.750 26.000 C 66.583 26.000,66.500 25.833,66.500 25.500 C 66.500 25.167,66.417 25.000,66.250 25.000 C 66.069 25.000,66.000 24.815,66.000 24.333 C 66.000 23.852,65.931 23.667,65.750 23.667 C 65.583 23.667,65.500 23.500,65.500 23.167 C 65.500 22.833,65.417 22.667,65.250 22.667 C 65.083 22.667,65.000 22.500,65.000 22.167 C 65.000 21.833,64.917 21.667,64.750 21.667 C 64.583 21.667,64.500 21.500,64.500 21.167 C 64.500 20.833,64.417 20.667,64.250 20.667 C 64.069 20.667,64.000 20.481,64.000 19.995 C 64.000 19.551,63.915 19.290,63.750 19.227 C 63.612 19.174,63.500 18.952,63.500 18.732 C 63.500 18.513,63.425 18.333,63.333 18.333 C 63.242 18.333,63.167 18.143,63.167 17.911 C 63.167 17.679,63.054 17.446,62.917 17.394 C 62.774 17.339,62.667 17.090,62.667 16.816 C 62.667 16.498,62.581 16.333,62.417 16.333 C 62.236 16.333,62.167 16.148,62.167 15.661 C 62.167 15.218,62.082 14.957,61.917 14.894 C 61.779 14.841,61.667 14.616,61.667 14.394 C 61.667 14.171,61.554 13.946,61.417 13.894 C 61.279 13.841,61.167 13.616,61.167 13.394 C 61.167 13.171,61.054 12.946,60.917 12.894 C 60.779 12.841,60.667 12.618,60.667 12.399 C 60.667 12.155,60.569 12.000,60.417 12.000 C 60.231 12.000,60.167 11.806,60.167 11.250 C 60.167 10.694,60.102 10.500,59.917 10.500 C 59.750 10.500,59.667 10.333,59.667 10.000 C 59.667 9.667,59.583 9.500,59.417 9.500 C 59.250 9.500,59.167 9.333,59.167 9.000 C 59.167 8.667,59.083 8.500,58.917 8.500 C 58.750 8.500,58.667 8.333,58.667 8.000 C 58.667 7.667,58.583 7.500,58.417 7.500 C 58.236 7.500,58.167 7.315,58.167 6.833 L 58.167 6.167 45.611 6.167 C 38.706 6.167,33.006 6.217,32.944 6.278 M103.111 6.278 C 102.837 6.552,102.988 89.627,103.264 89.732 C 103.409 89.788,108.246 89.833,114.014 89.833 L 124.500 89.833 124.500 64.500 C 124.500 42.093,124.529 39.167,124.750 39.167 C 124.888 39.167,125.000 39.279,125.000 39.417 C 125.000 39.554,125.112 39.667,125.250 39.667 C 125.393 39.667,125.500 39.817,125.500 40.018 C 125.500 40.225,125.876 40.734,126.417 41.257 C 126.921 41.745,127.333 42.225,127.333 42.322 C 127.333 42.420,127.446 42.500,127.583 42.500 C 127.721 42.500,127.833 42.612,127.833 42.750 C 127.833 42.887,127.946 43.000,128.083 43.000 C 128.233 43.000,128.333 43.154,128.333 43.383 C 128.333 43.604,128.542 43.939,128.826 44.174 C 129.097 44.399,129.322 44.677,129.326 44.792 C 129.330 44.906,129.446 45.000,129.583 45.000 C 129.721 45.000,129.833 45.112,129.833 45.250 C 129.833 45.387,129.946 45.500,130.083 45.500 C 130.221 45.500,130.333 45.612,130.333 45.750 C 130.333 45.887,130.446 46.000,130.583 46.000 C 130.721 46.000,130.833 46.112,130.833 46.250 C 130.833 46.387,130.946 46.500,131.083 46.500 C 131.239 46.500,131.333 46.657,131.333 46.917 C 131.333 47.176,131.428 47.333,131.583 47.333 C 131.721 47.333,131.833 47.446,131.833 47.583 C 131.833 47.721,131.946 47.833,132.083 47.833 C 132.221 47.833,132.333 47.946,132.333 48.083 C 132.333 48.221,132.446 48.333,132.583 48.333 C 132.721 48.333,132.833 48.446,132.833 48.583 C 132.833 48.721,132.946 48.833,133.083 48.833 C 133.221 48.833,133.333 48.946,133.333 49.083 C 133.333 49.221,133.408 49.333,133.500 49.333 C 133.592 49.333,133.667 49.446,133.667 49.583 C 133.667 49.721,133.779 49.833,133.917 49.833 C 134.054 49.833,134.167 49.981,134.167 50.161 C 134.167 50.341,134.392 50.719,134.667 51.000 C 134.942 51.281,135.167 51.584,135.167 51.672 C 135.167 51.761,135.279 51.833,135.417 51.833 C 135.554 51.833,135.667 51.946,135.667 52.083 C 135.667 52.221,135.779 52.333,135.917 52.333 C 136.054 52.333,136.167 52.446,136.167 52.583 C 136.167 52.721,136.279 52.833,136.417 52.833 C 136.554 52.833,136.667 52.946,136.667 53.083 C 136.667 53.221,136.779 53.333,136.917 53.333 C 137.072 53.333,137.167 53.491,137.167 53.750 C 137.167 54.009,137.261 54.167,137.417 54.167 C 137.554 54.167,137.667 54.279,137.667 54.417 C 137.667 54.554,137.779 54.667,137.917 54.667 C 138.054 54.667,138.167 54.779,138.167 54.917 C 138.167 55.054,138.279 55.167,138.417 55.167 C 138.554 55.167,138.667 55.279,138.667 55.417 C 138.667 55.554,138.779 55.667,138.917 55.667 C 139.054 55.667,139.167 55.779,139.167 55.917 C 139.167 56.054,139.279 56.167,139.417 56.167 C 139.554 56.167,139.667 56.252,139.667 56.356 C 139.667 56.460,139.854 56.719,140.083 56.931 C 140.313 57.144,140.500 57.433,140.500 57.574 C 140.500 57.869,142.533 60.000,142.814 60.000 C 142.916 60.000,143.000 60.112,143.000 60.250 C 143.000 60.387,143.112 60.500,143.250 60.500 C 143.417 60.500,143.500 60.667,143.500 61.000 C 143.500 61.333,143.583 61.500,143.750 61.500 C 143.887 61.500,144.000 61.612,144.000 61.750 C 144.000 61.887,144.112 62.000,144.250 62.000 C 144.387 62.000,144.500 62.112,144.500 62.250 C 144.500 62.387,144.612 62.500,144.750 62.500 C 144.887 62.500,145.000 62.612,145.000 62.750 C 145.000 62.887,145.112 63.000,145.250 63.000 C 145.387 63.000,145.500 63.112,145.500 63.250 C 145.500 63.387,145.612 63.500,145.750 63.500 C 145.887 63.500,146.000 63.612,146.000 63.750 C 146.000 63.959,146.352 64.000,148.167 64.000 C 149.981 64.000,150.333 63.959,150.333 63.750 C 150.333 63.612,150.446 63.500,150.583 63.500 C 150.721 63.500,150.833 63.425,150.833 63.333 C 150.833 63.241,151.129 62.880,151.489 62.530 C 151.850 62.180,152.196 61.692,152.257 61.447 C 152.319 61.201,152.436 61.000,152.518 61.000 C 152.600 61.000,152.667 60.887,152.667 60.750 C 152.667 60.612,152.779 60.500,152.917 60.500 C 153.054 60.500,153.167 60.387,153.167 60.250 C 153.167 60.112,153.246 60.000,153.343 60.000 C 153.675 60.000,155.167 58.383,155.167 58.022 C 155.167 57.817,155.273 57.667,155.417 57.667 C 155.554 57.667,155.667 57.554,155.667 57.417 C 155.667 57.279,155.779 57.167,155.917 57.167 C 156.054 57.167,156.167 57.054,156.167 56.917 C 156.167 56.779,156.279 56.667,156.417 56.667 C 156.554 56.667,156.667 56.554,156.667 56.417 C 156.667 56.279,156.779 56.167,156.917 56.167 C 157.054 56.167,157.167 56.054,157.167 55.917 C 157.167 55.779,157.279 55.667,157.417 55.667 C 157.554 55.667,157.667 55.586,157.667 55.488 C 157.667 55.390,157.779 55.197,157.917 55.060 C 158.054 54.922,158.167 54.665,158.167 54.488 C 158.167 54.311,158.247 54.167,158.345 54.167 C 158.443 54.167,158.631 54.060,158.762 53.929 C 158.893 53.798,159.000 53.610,159.000 53.512 C 159.000 53.414,159.112 53.333,159.250 53.333 C 159.387 53.333,159.500 53.221,159.500 53.083 C 159.500 52.946,159.612 52.833,159.750 52.833 C 159.887 52.833,160.000 52.721,160.000 52.583 C 160.000 52.446,160.112 52.333,160.250 52.333 C 160.387 52.333,160.503 52.240,160.507 52.125 C 160.511 52.010,160.736 51.733,161.007 51.508 C 161.291 51.272,161.500 50.937,161.500 50.716 C 161.500 50.487,161.600 50.333,161.750 50.333 C 161.887 50.333,162.000 50.221,162.000 50.083 C 162.000 49.946,162.112 49.833,162.250 49.833 C 162.387 49.833,162.500 49.721,162.500 49.583 C 162.500 49.446,162.612 49.333,162.750 49.333 C 162.887 49.333,163.000 49.221,163.000 49.083 C 163.000 48.946,163.112 48.833,163.250 48.833 C 163.387 48.833,163.500 48.761,163.500 48.672 C 163.500 48.584,163.725 48.281,164.000 48.000 C 164.275 47.719,164.500 47.413,164.500 47.320 C 164.500 47.227,164.688 46.977,164.917 46.765 C 165.146 46.552,165.333 46.293,165.333 46.189 C 165.333 46.085,165.446 46.000,165.583 46.000 C 165.721 46.000,165.833 45.887,165.833 45.750 C 165.833 45.612,165.946 45.500,166.083 45.500 C 166.221 45.500,166.333 45.387,166.333 45.250 C 166.333 45.112,166.446 45.000,166.583 45.000 C 166.721 45.000,166.833 44.887,166.833 44.750 C 166.833 44.612,166.946 44.500,167.083 44.500 C 167.250 44.500,167.333 44.333,167.333 44.000 C 167.333 43.667,167.417 43.500,167.583 43.500 C 167.721 43.500,167.833 43.387,167.833 43.250 C 167.833 43.112,167.946 43.000,168.083 43.000 C 168.221 43.000,168.333 42.887,168.333 42.750 C 168.333 42.612,168.446 42.500,168.583 42.500 C 168.721 42.500,168.833 42.387,168.833 42.250 C 168.833 42.112,168.946 42.000,169.083 42.000 C 169.221 42.000,169.333 41.887,169.333 41.750 C 169.333 41.612,169.415 41.500,169.515 41.500 C 169.776 41.500,170.321 40.802,170.328 40.458 C 170.331 40.298,170.446 40.167,170.583 40.167 C 170.721 40.167,170.833 40.054,170.833 39.917 C 170.833 39.779,170.946 39.667,171.083 39.667 C 171.303 39.667,171.337 42.603,171.374 64.708 L 171.417 89.750 182.250 89.750 L 193.083 89.750 193.125 47.958 L 193.167 6.167 183.728 6.167 L 174.288 6.167 173.902 6.583 C 173.690 6.813,173.437 7.000,173.341 7.000 C 173.245 7.000,173.167 7.075,173.167 7.167 C 173.167 7.259,172.867 7.625,172.500 7.981 C 172.133 8.337,171.833 8.711,171.833 8.814 C 171.833 8.916,171.721 9.000,171.583 9.000 C 171.417 9.000,171.333 9.167,171.333 9.500 C 171.333 9.833,171.250 10.000,171.083 10.000 C 170.946 10.000,170.833 10.112,170.833 10.250 C 170.833 10.387,170.721 10.500,170.583 10.500 C 170.446 10.500,170.333 10.612,170.333 10.750 C 170.333 10.887,170.221 11.000,170.083 11.000 C 169.946 11.000,169.833 11.112,169.833 11.250 C 169.833 11.387,169.721 11.500,169.583 11.500 C 169.446 11.500,169.333 11.612,169.333 11.750 C 169.333 11.887,169.221 12.000,169.083 12.000 C 168.946 12.000,168.833 12.112,168.833 12.250 C 168.833 12.387,168.721 12.500,168.583 12.500 C 168.428 12.500,168.333 12.657,168.333 12.917 C 168.333 13.176,168.239 13.333,168.083 13.333 C 167.946 13.333,167.833 13.446,167.833 13.583 C 167.833 13.721,167.721 13.833,167.583 13.833 C 167.446 13.833,167.333 13.946,167.333 14.083 C 167.333 14.221,167.221 14.333,167.083 14.333 C 166.946 14.333,166.833 14.446,166.833 14.583 C 166.833 14.721,166.721 14.833,166.583 14.833 C 166.446 14.833,166.333 14.912,166.333 15.008 C 166.333 15.104,166.146 15.356,165.917 15.569 C 165.688 15.781,165.500 16.040,165.500 16.144 C 165.500 16.248,165.387 16.333,165.250 16.333 C 165.083 16.333,165.000 16.500,165.000 16.833 C 165.000 17.167,164.917 17.333,164.750 17.333 C 164.612 17.333,164.500 17.446,164.500 17.583 C 164.500 17.721,164.420 17.833,164.323 17.833 C 163.984 17.833,162.000 19.951,162.000 20.313 C 162.000 20.516,161.894 20.667,161.750 20.667 C 161.612 20.667,161.500 20.779,161.500 20.917 C 161.500 21.054,161.387 21.167,161.250 21.167 C 161.112 21.167,161.000 21.279,161.000 21.417 C 161.000 21.554,160.887 21.667,160.750 21.667 C 160.612 21.667,160.500 21.779,160.500 21.917 C 160.500 22.054,160.387 22.167,160.250 22.167 C 160.112 22.167,160.000 22.279,160.000 22.417 C 160.000 22.554,159.887 22.667,159.750 22.667 C 159.612 22.667,159.500 22.773,159.500 22.903 C 159.500 23.033,159.444 23.164,159.375 23.194 C 159.306 23.225,159.107 23.531,158.932 23.875 C 158.757 24.219,158.513 24.500,158.390 24.500 C 158.267 24.500,158.167 24.613,158.167 24.750 C 158.167 24.887,158.054 25.000,157.917 25.000 C 157.779 25.000,157.667 25.113,157.667 25.250 C 157.667 25.387,157.554 25.500,157.417 25.500 C 157.279 25.500,157.167 25.613,157.167 25.750 C 157.167 25.887,157.054 26.000,156.917 26.000 C 156.779 26.000,156.663 26.094,156.660 26.208 C 156.656 26.323,156.431 26.601,156.160 26.826 C 155.875 27.061,155.667 27.396,155.667 27.617 C 155.667 27.846,155.566 28.000,155.417 28.000 C 155.279 28.000,155.167 28.113,155.167 28.250 C 155.167 28.387,155.054 28.500,154.917 28.500 C 154.779 28.500,154.667 28.613,154.667 28.750 C 154.667 28.887,154.554 29.000,154.417 29.000 C 154.279 29.000,154.167 29.113,154.167 29.250 C 154.167 29.387,154.054 29.500,153.917 29.500 C 153.779 29.500,153.667 29.613,153.667 29.750 C 153.667 29.887,153.554 30.000,153.417 30.000 C 153.279 30.000,153.167 30.113,153.167 30.250 C 153.167 30.387,153.093 30.500,153.003 30.500 C 152.913 30.500,152.793 30.687,152.735 30.917 C 152.678 31.146,152.564 31.333,152.482 31.333 C 152.400 31.333,152.333 31.446,152.333 31.583 C 152.333 31.721,152.221 31.833,152.083 31.833 C 151.946 31.833,151.833 31.946,151.833 32.083 C 151.833 32.221,151.721 32.333,151.583 32.333 C 151.446 32.333,151.333 32.446,151.333 32.583 C 151.333 32.721,151.221 32.833,151.083 32.833 C 150.946 32.833,150.833 32.946,150.833 33.083 C 150.833 33.221,150.721 33.333,150.583 33.333 C 150.446 33.333,150.333 33.446,150.333 33.583 C 150.333 33.721,150.221 33.833,150.083 33.833 C 149.946 33.833,149.833 33.946,149.833 34.083 C 149.833 34.221,149.721 34.333,149.583 34.333 C 149.417 34.333,149.333 34.500,149.333 34.833 C 149.333 35.167,149.250 35.333,149.083 35.333 C 148.946 35.333,148.833 35.446,148.833 35.583 C 148.833 35.721,148.721 35.833,148.583 35.833 C 148.446 35.833,148.333 35.908,148.333 36.000 C 148.333 36.092,148.221 36.167,148.083 36.167 C 147.946 36.167,147.833 36.092,147.833 36.000 C 147.833 35.908,147.721 35.833,147.583 35.833 C 147.446 35.833,147.333 35.721,147.333 35.583 C 147.333 35.446,147.221 35.333,147.083 35.333 C 146.946 35.333,146.833 35.221,146.833 35.083 C 146.833 34.946,146.721 34.833,146.583 34.833 C 146.446 34.833,146.333 34.721,146.333 34.583 C 146.333 34.446,146.266 34.333,146.185 34.333 C 146.103 34.333,145.986 34.132,145.924 33.887 C 145.862 33.641,145.517 33.154,145.156 32.804 C 144.795 32.454,144.500 32.092,144.500 32.000 C 144.500 31.908,144.387 31.833,144.250 31.833 C 144.112 31.833,144.000 31.721,144.000 31.583 C 144.000 31.446,143.887 31.333,143.750 31.333 C 143.612 31.333,143.500 31.221,143.500 31.083 C 143.500 30.946,143.387 30.833,143.250 30.833 C 143.094 30.833,143.000 30.676,143.000 30.417 C 143.000 30.157,142.906 30.000,142.750 30.000 C 142.612 30.000,142.500 29.887,142.500 29.750 C 142.500 29.613,142.387 29.500,142.250 29.500 C 142.112 29.500,142.000 29.387,142.000 29.250 C 142.000 29.113,141.887 29.000,141.750 29.000 C 141.612 29.000,141.500 28.887,141.500 28.750 C 141.500 28.613,141.387 28.500,141.250 28.500 C 141.112 28.500,141.000 28.387,141.000 28.250 C 141.000 28.113,140.887 28.000,140.750 28.000 C 140.612 28.000,140.500 27.887,140.500 27.750 C 140.500 27.613,140.387 27.500,140.250 27.500 C 140.083 27.500,140.000 27.333,140.000 27.000 C 140.000 26.667,139.917 26.500,139.750 26.500 C 139.612 26.500,139.500 26.417,139.500 26.315 C 139.500 26.088,137.060 23.667,136.831 23.667 C 136.741 23.667,136.667 23.442,136.667 23.167 C 136.667 22.833,136.583 22.667,136.417 22.667 C 136.279 22.667,136.167 22.554,136.167 22.417 C 136.167 22.279,136.054 22.167,135.917 22.167 C 135.779 22.167,135.667 22.054,135.667 21.917 C 135.667 21.779,135.554 21.667,135.417 21.667 C 135.279 21.667,135.167 21.554,135.167 21.417 C 135.167 21.279,135.054 21.167,134.917 21.167 C 134.779 21.167,134.667 21.054,134.667 20.917 C 134.667 20.779,134.554 20.667,134.417 20.667 C 134.279 20.667,134.167 20.554,134.167 20.417 C 134.167 20.279,134.054 20.167,133.917 20.167 C 133.765 20.167,133.667 20.012,133.667 19.773 C 133.667 19.548,133.488 19.246,133.250 19.067 C 133.021 18.895,132.833 18.697,132.833 18.627 C 132.833 18.441,132.195 17.833,132.000 17.833 C 131.908 17.833,131.833 17.721,131.833 17.583 C 131.833 17.446,131.721 17.333,131.583 17.333 C 131.446 17.333,131.333 17.221,131.333 17.083 C 131.333 16.946,131.221 16.833,131.083 16.833 C 130.946 16.833,130.833 16.721,130.833 16.583 C 130.833 16.446,130.721 16.333,130.583 16.333 C 130.427 16.333,130.333 16.175,130.333 15.911 C 130.333 15.679,130.221 15.446,130.083 15.394 C 129.946 15.341,129.833 15.193,129.833 15.066 C 129.833 14.938,129.721 14.833,129.583 14.833 C 129.446 14.833,129.333 14.721,129.333 14.583 C 129.333 14.446,129.221 14.333,129.083 14.333 C 128.946 14.333,128.833 14.221,128.833 14.083 C 128.833 13.946,128.721 13.833,128.583 13.833 C 128.446 13.833,128.333 13.721,128.333 13.583 C 128.333 13.446,128.221 13.333,128.083 13.333 C 127.946 13.333,127.833 13.221,127.833 13.083 C 127.833 12.946,127.721 12.833,127.583 12.833 C 127.428 12.833,127.333 12.676,127.333 12.417 C 127.333 12.157,127.239 12.000,127.083 12.000 C 126.946 12.000,126.833 11.915,126.833 11.811 C 126.833 11.707,126.646 11.448,126.417 11.235 C 126.188 11.023,126.000 10.771,126.000 10.675 C 126.000 10.579,125.888 10.500,125.750 10.500 C 125.612 10.500,125.500 10.387,125.500 10.250 C 125.500 10.112,125.388 10.000,125.250 10.000 C 125.112 10.000,125.000 9.887,125.000 9.750 C 125.000 9.612,124.888 9.500,124.750 9.500 C 124.600 9.500,124.500 9.346,124.500 9.117 C 124.500 8.896,124.291 8.561,124.007 8.326 C 123.736 8.101,123.511 7.823,123.507 7.708 C 123.503 7.594,123.388 7.500,123.250 7.500 C 123.112 7.500,123.000 7.388,123.000 7.250 C 123.000 7.112,122.888 7.000,122.750 7.000 C 122.612 7.000,122.500 6.888,122.500 6.750 C 122.500 6.612,122.388 6.500,122.250 6.500 C 122.112 6.500,122.000 6.425,122.000 6.333 C 122.000 6.145,103.298 6.090,103.111 6.278 M207.833 48.000 L 207.833 89.833 227.571 89.833 C 244.894 89.833,247.340 89.803,247.560 89.583 C 247.759 89.384,248.298 89.333,250.206 89.333 C 252.056 89.333,252.677 89.277,252.926 89.089 C 253.149 88.921,253.681 88.842,254.625 88.839 C 255.734 88.834,256.000 88.785,256.000 88.583 C 256.000 88.383,256.250 88.333,257.250 88.333 C 258.250 88.333,258.500 88.283,258.500 88.083 C 258.500 87.885,258.741 87.833,259.667 87.833 C 260.593 87.833,260.833 87.782,260.833 87.583 C 260.833 87.398,261.028 87.333,261.583 87.333 C 262.139 87.333,262.333 87.269,262.333 87.083 C 262.333 86.898,262.528 86.833,263.083 86.833 C 263.639 86.833,263.833 86.769,263.833 86.583 C 263.833 86.398,264.028 86.333,264.583 86.333 C 265.139 86.333,265.333 86.269,265.333 86.083 C 265.333 85.903,265.519 85.833,266.000 85.833 C 266.481 85.833,266.667 85.764,266.667 85.583 C 266.667 85.417,266.833 85.333,267.167 85.333 C 267.500 85.333,267.667 85.250,267.667 85.083 C 267.667 84.898,267.861 84.833,268.417 84.833 C 268.972 84.833,269.167 84.769,269.167 84.583 C 269.167 84.417,269.333 84.333,269.667 84.333 C 270.000 84.333,270.167 84.250,270.167 84.083 C 270.167 83.917,270.333 83.833,270.667 83.833 C 270.942 83.833,271.167 83.766,271.167 83.685 C 271.167 83.603,271.341 83.492,271.555 83.439 C 271.768 83.385,272.147 83.152,272.397 82.921 C 272.646 82.689,272.997 82.500,273.175 82.500 C 273.354 82.500,273.500 82.387,273.500 82.250 C 273.500 82.112,273.612 82.000,273.750 82.000 C 273.887 82.000,274.000 81.887,274.000 81.750 C 274.000 81.583,274.167 81.500,274.500 81.500 C 274.833 81.500,275.000 81.417,275.000 81.250 C 275.000 81.112,275.112 81.000,275.250 81.000 C 275.387 81.000,275.500 80.887,275.500 80.750 C 275.500 80.594,275.658 80.500,275.922 80.500 C 276.154 80.500,276.387 80.388,276.440 80.250 C 276.492 80.112,276.640 80.000,276.768 80.000 C 276.896 80.000,277.000 79.887,277.000 79.750 C 277.000 79.612,277.112 79.500,277.250 79.500 C 277.387 79.500,277.500 79.387,277.500 79.250 C 277.500 79.112,277.612 79.000,277.750 79.000 C 277.887 79.000,278.000 78.887,278.000 78.750 C 278.000 78.612,278.142 78.500,278.315 78.500 C 278.761 78.500,281.333 75.958,281.333 75.518 C 281.333 75.317,281.440 75.167,281.583 75.167 C 281.721 75.167,281.833 75.054,281.833 74.917 C 281.833 74.779,281.946 74.667,282.083 74.667 C 282.221 74.667,282.333 74.554,282.333 74.417 C 282.333 74.279,282.446 74.167,282.583 74.167 C 282.721 74.167,282.833 74.054,282.833 73.917 C 282.833 73.779,282.946 73.667,283.083 73.667 C 283.250 73.667,283.333 73.500,283.333 73.167 C 283.333 72.833,283.417 72.667,283.583 72.667 C 283.721 72.667,283.833 72.554,283.833 72.417 C 283.833 72.279,283.946 72.167,284.083 72.167 C 284.221 72.167,284.333 72.019,284.333 71.839 C 284.333 71.659,284.558 71.281,284.833 71.000 C 285.108 70.719,285.333 70.341,285.333 70.161 C 285.333 69.981,285.408 69.833,285.500 69.833 C 285.592 69.833,285.667 69.608,285.667 69.333 C 285.667 69.000,285.750 68.833,285.917 68.833 C 286.083 68.833,286.167 68.667,286.167 68.333 C 286.167 68.000,286.250 67.833,286.417 67.833 C 286.583 67.833,286.667 67.667,286.667 67.333 C 286.667 67.000,286.750 66.833,286.917 66.833 C 287.083 66.833,287.167 66.667,287.167 66.333 C 287.167 66.000,287.250 65.833,287.417 65.833 C 287.573 65.833,287.667 65.675,287.667 65.411 C 287.667 65.179,287.779 64.946,287.917 64.894 C 288.078 64.832,288.167 64.574,288.167 64.167 C 288.167 63.760,288.255 63.502,288.417 63.440 C 288.582 63.376,288.667 63.115,288.667 62.672 C 288.667 62.186,288.736 62.000,288.917 62.000 C 289.111 62.000,289.167 61.778,289.167 61.000 C 289.167 60.222,289.222 60.000,289.417 60.000 C 289.615 60.000,289.667 59.759,289.667 58.833 C 289.667 57.907,289.718 57.667,289.917 57.667 C 290.120 57.667,290.167 57.391,290.167 56.184 C 290.167 55.021,290.220 54.682,290.417 54.606 C 290.633 54.524,290.667 53.671,290.667 48.339 C 290.667 42.964,290.634 42.167,290.417 42.167 C 290.211 42.167,290.167 41.870,290.167 40.495 C 290.167 39.162,290.116 38.803,289.917 38.727 C 289.737 38.658,289.667 38.377,289.667 37.727 C 289.667 37.077,289.596 36.796,289.417 36.727 C 289.237 36.658,289.167 36.377,289.167 35.732 C 289.167 35.044,289.108 34.833,288.917 34.833 C 288.731 34.833,288.667 34.639,288.667 34.083 C 288.667 33.528,288.602 33.333,288.417 33.333 C 288.231 33.333,288.167 33.139,288.167 32.583 C 288.167 32.028,288.102 31.833,287.917 31.833 C 287.750 31.833,287.667 31.667,287.667 31.333 C 287.667 31.000,287.583 30.833,287.417 30.833 C 287.236 30.833,287.167 30.648,287.167 30.167 C 287.167 29.685,287.097 29.500,286.917 29.500 C 286.750 29.500,286.667 29.333,286.667 29.000 C 286.667 28.667,286.583 28.500,286.417 28.500 C 286.250 28.500,286.167 28.333,286.167 28.000 C 286.167 27.667,286.083 27.500,285.917 27.500 C 285.758 27.500,285.667 27.340,285.667 27.061 C 285.667 26.806,285.491 26.459,285.250 26.235 C 285.021 26.023,284.833 25.693,284.833 25.503 C 284.833 25.312,284.721 25.113,284.583 25.060 C 284.446 25.008,284.333 24.820,284.333 24.644 C 284.333 24.467,284.221 24.280,284.083 24.227 C 283.946 24.174,283.833 24.027,283.833 23.899 C 283.833 23.771,283.721 23.667,283.583 23.667 C 283.446 23.667,283.333 23.554,283.333 23.417 C 283.333 23.279,283.221 23.167,283.083 23.167 C 282.917 23.167,282.833 23.000,282.833 22.667 C 282.833 22.333,282.750 22.167,282.583 22.167 C 282.446 22.167,282.333 22.054,282.333 21.917 C 282.333 21.779,282.221 21.667,282.083 21.667 C 281.946 21.667,281.833 21.554,281.833 21.417 C 281.833 21.279,281.721 21.167,281.583 21.167 C 281.446 21.167,281.333 21.054,281.333 20.917 C 281.333 20.779,281.221 20.667,281.083 20.667 C 280.942 20.667,280.833 20.517,280.833 20.322 C 280.833 19.873,278.284 17.333,277.832 17.333 C 277.648 17.333,277.500 17.222,277.500 17.083 C 277.500 16.946,277.387 16.833,277.250 16.833 C 277.112 16.833,277.000 16.721,277.000 16.583 C 277.000 16.446,276.887 16.333,276.750 16.333 C 276.612 16.333,276.500 16.221,276.500 16.083 C 276.500 15.946,276.387 15.833,276.250 15.833 C 276.112 15.833,276.000 15.721,276.000 15.583 C 276.000 15.446,275.887 15.333,275.750 15.333 C 275.612 15.333,275.500 15.221,275.500 15.083 C 275.500 14.917,275.333 14.833,275.000 14.833 C 274.667 14.833,274.500 14.750,274.500 14.583 C 274.500 14.446,274.396 14.333,274.268 14.333 C 274.140 14.333,273.992 14.221,273.940 14.083 C 273.887 13.946,273.654 13.833,273.422 13.833 C 273.158 13.833,273.000 13.740,273.000 13.583 C 273.000 13.446,272.896 13.333,272.768 13.333 C 272.640 13.333,272.492 13.221,272.440 13.083 C 272.387 12.946,272.224 12.833,272.077 12.833 C 271.930 12.833,271.697 12.721,271.560 12.583 C 271.422 12.446,271.165 12.333,270.988 12.333 C 270.811 12.333,270.667 12.258,270.667 12.167 C 270.667 12.075,270.442 12.000,270.167 12.000 C 269.833 12.000,269.667 11.917,269.667 11.750 C 269.667 11.583,269.500 11.500,269.167 11.500 C 268.833 11.500,268.667 11.417,268.667 11.250 C 268.667 11.083,268.500 11.000,268.167 11.000 C 267.833 11.000,267.667 10.917,267.667 10.750 C 267.667 10.583,267.500 10.500,267.167 10.500 C 266.833 10.500,266.667 10.417,266.667 10.250 C 266.667 10.069,266.481 10.000,266.000 10.000 C 265.519 10.000,265.333 9.931,265.333 9.750 C 265.333 9.585,265.169 9.500,264.851 9.500 C 264.576 9.500,264.328 9.393,264.273 9.250 C 264.210 9.087,263.951 9.000,263.523 9.000 C 263.095 9.000,262.836 8.913,262.773 8.750 C 262.704 8.569,262.421 8.500,261.755 8.500 C 261.047 8.500,260.833 8.442,260.833 8.250 C 260.833 8.059,260.622 8.000,259.934 8.000 C 259.289 8.000,259.009 7.929,258.940 7.750 C 258.871 7.570,258.590 7.500,257.940 7.500 C 257.290 7.500,257.009 7.430,256.940 7.250 C 256.865 7.056,256.540 7.000,255.493 7.000 C 254.515 7.000,254.074 6.931,253.893 6.750 C 253.693 6.550,253.144 6.500,251.155 6.500 C 249.607 6.500,248.667 6.437,248.667 6.333 C 248.667 6.223,241.750 6.167,228.250 6.167 L 207.833 6.167 207.833 48.000 M243.833 22.417 C 243.833 22.626,244.183 22.667,245.982 22.667 C 247.738 22.667,248.149 22.712,248.227 22.917 C 248.299 23.106,248.605 23.167,249.477 23.167 C 250.349 23.167,250.654 23.228,250.727 23.417 C 250.790 23.582,251.051 23.667,251.495 23.667 C 251.864 23.667,252.167 23.742,252.167 23.833 C 252.167 23.925,252.504 24.000,252.917 24.000 C 253.472 24.000,253.667 24.065,253.667 24.250 C 253.667 24.431,253.852 24.500,254.333 24.500 C 254.815 24.500,255.000 24.569,255.000 24.750 C 255.000 24.917,255.167 25.000,255.500 25.000 C 255.833 25.000,256.000 25.083,256.000 25.250 C 256.000 25.417,256.167 25.500,256.500 25.500 C 256.833 25.500,257.000 25.583,257.000 25.750 C 257.000 25.887,257.112 26.000,257.250 26.000 C 257.387 26.000,257.500 26.113,257.500 26.250 C 257.500 26.417,257.667 26.500,258.000 26.500 C 258.333 26.500,258.500 26.583,258.500 26.750 C 258.500 26.887,258.612 27.000,258.750 27.000 C 258.887 27.000,259.000 27.113,259.000 27.250 C 259.000 27.417,259.167 27.500,259.500 27.500 C 259.833 27.500,260.000 27.583,260.000 27.750 C 260.000 27.887,260.112 28.000,260.250 28.000 C 260.387 28.000,260.500 28.081,260.500 28.180 C 260.500 28.415,262.419 30.333,262.653 30.333 C 262.752 30.333,262.833 30.446,262.833 30.583 C 262.833 30.721,262.946 30.833,263.083 30.833 C 263.221 30.833,263.333 30.946,263.333 31.083 C 263.333 31.221,263.446 31.333,263.583 31.333 C 263.750 31.333,263.833 31.500,263.833 31.833 C 263.833 32.167,263.917 32.333,264.083 32.333 C 264.221 32.333,264.333 32.446,264.333 32.583 C 264.333 32.721,264.446 32.833,264.583 32.833 C 264.750 32.833,264.833 33.000,264.833 33.333 C 264.833 33.667,264.917 33.833,265.083 33.833 C 265.250 33.833,265.333 34.000,265.333 34.333 C 265.333 34.667,265.417 34.833,265.583 34.833 C 265.740 34.833,265.833 34.991,265.833 35.255 C 265.833 35.487,265.946 35.720,266.083 35.773 C 266.221 35.826,266.333 36.042,266.333 36.254 C 266.333 36.466,266.413 36.666,266.511 36.698 C 266.608 36.731,266.731 37.074,266.783 37.462 C 266.835 37.850,266.942 38.167,267.022 38.167 C 267.102 38.167,267.167 38.469,267.167 38.839 C 267.167 39.282,267.252 39.543,267.417 39.606 C 267.603 39.678,267.667 39.975,267.667 40.773 C 267.667 41.571,267.730 41.868,267.917 41.940 C 268.117 42.016,268.167 42.382,268.167 43.768 C 268.167 45.196,268.210 45.500,268.417 45.500 C 268.627 45.500,268.667 45.880,268.667 47.917 C 268.667 49.954,268.627 50.333,268.417 50.333 C 268.210 50.333,268.167 50.639,268.167 52.083 C 268.167 53.528,268.123 53.833,267.917 53.833 C 267.725 53.833,267.667 54.045,267.667 54.736 C 267.667 55.269,267.588 55.665,267.475 55.703 C 267.369 55.738,267.247 56.194,267.204 56.717 C 267.161 57.239,267.060 57.667,266.979 57.667 C 266.899 57.667,266.833 57.857,266.833 58.089 C 266.833 58.321,266.721 58.554,266.583 58.606 C 266.420 58.669,266.333 58.929,266.333 59.356 C 266.333 59.784,266.247 60.044,266.083 60.106 C 265.946 60.159,265.833 60.382,265.833 60.601 C 265.833 60.845,265.736 61.000,265.583 61.000 C 265.417 61.000,265.333 61.167,265.333 61.500 C 265.333 61.833,265.250 62.000,265.083 62.000 C 264.946 62.000,264.833 62.112,264.833 62.250 C 264.833 62.387,264.721 62.500,264.583 62.500 C 264.417 62.500,264.333 62.667,264.333 63.000 C 264.333 63.333,264.250 63.500,264.083 63.500 C 263.946 63.500,263.833 63.612,263.833 63.750 C 263.833 63.887,263.721 64.000,263.583 64.000 C 263.417 64.000,263.333 64.167,263.333 64.500 C 263.333 64.833,263.250 65.000,263.083 65.000 C 262.946 65.000,262.833 65.112,262.833 65.250 C 262.833 65.387,262.721 65.500,262.583 65.500 C 262.446 65.500,262.333 65.612,262.333 65.750 C 262.333 65.887,262.252 66.000,262.154 66.000 C 261.919 66.000,260.500 67.419,260.500 67.654 C 260.500 67.752,260.387 67.833,260.250 67.833 C 260.112 67.833,260.000 67.946,260.000 68.083 C 260.000 68.250,259.833 68.333,259.500 68.333 C 259.167 68.333,259.000 68.417,259.000 68.583 C 259.000 68.721,258.887 68.833,258.750 68.833 C 258.612 68.833,258.500 68.946,258.500 69.083 C 258.500 69.250,258.333 69.333,258.000 69.333 C 257.667 69.333,257.500 69.417,257.500 69.583 C 257.500 69.721,257.387 69.833,257.250 69.833 C 257.112 69.833,257.000 69.946,257.000 70.083 C 257.000 70.250,256.833 70.333,256.500 70.333 C 256.167 70.333,256.000 70.417,256.000 70.583 C 256.000 70.750,255.833 70.833,255.500 70.833 C 255.167 70.833,255.000 70.917,255.000 71.083 C 255.000 71.264,254.815 71.333,254.333 71.333 C 253.852 71.333,253.667 71.403,253.667 71.583 C 253.667 71.750,253.500 71.833,253.167 71.833 C 252.892 71.833,252.667 71.899,252.667 71.979 C 252.667 72.060,252.239 72.161,251.717 72.204 C 251.194 72.247,250.738 72.369,250.703 72.475 C 250.665 72.588,250.268 72.667,249.731 72.667 C 249.078 72.667,248.796 72.737,248.727 72.917 C 248.649 73.119,248.266 73.167,246.732 73.167 C 245.155 73.167,244.833 73.209,244.833 73.417 C 244.833 73.635,243.852 73.667,237.000 73.667 L 229.167 73.667 229.167 47.917 L 229.167 22.167 236.500 22.167 C 242.907 22.167,243.833 22.198,243.833 22.417 M46.167 28.833 C 46.373 29.040,46.500 29.389,46.500 29.750 C 46.500 30.157,46.575 30.333,46.750 30.333 C 46.917 30.333,47.000 30.500,47.000 30.833 C 47.000 31.167,47.083 31.333,47.250 31.333 C 47.431 31.333,47.500 31.519,47.500 32.005 C 47.500 32.449,47.585 32.710,47.750 32.773 C 47.893 32.828,48.000 33.076,48.000 33.351 C 48.000 33.669,48.085 33.833,48.250 33.833 C 48.417 33.833,48.500 34.000,48.500 34.333 C 48.500 34.667,48.583 34.833,48.750 34.833 C 48.931 34.833,49.000 35.019,49.000 35.500 C 49.000 35.981,49.069 36.167,49.250 36.167 C 49.417 36.167,49.500 36.333,49.500 36.667 C 49.500 37.000,49.583 37.167,49.750 37.167 C 49.935 37.167,50.000 37.361,50.000 37.917 C 50.000 38.472,50.065 38.667,50.250 38.667 C 50.417 38.667,50.500 38.833,50.500 39.167 C 50.500 39.442,50.575 39.667,50.667 39.667 C 50.758 39.667,50.833 39.811,50.833 39.988 C 50.833 40.165,50.946 40.422,51.083 40.560 C 51.221 40.697,51.333 41.042,51.333 41.327 C 51.333 41.633,51.435 41.883,51.583 41.940 C 51.726 41.994,51.833 42.243,51.833 42.518 C 51.833 42.835,51.919 43.000,52.083 43.000 C 52.264 43.000,52.333 43.186,52.333 43.672 C 52.333 44.115,52.418 44.376,52.583 44.440 C 52.726 44.494,52.833 44.743,52.833 45.018 C 52.833 45.335,52.919 45.500,53.083 45.500 C 53.263 45.500,53.333 45.683,53.333 46.149 C 53.333 46.572,53.420 46.831,53.583 46.894 C 53.721 46.946,53.833 47.179,53.833 47.411 C 53.833 47.675,53.927 47.833,54.083 47.833 C 54.250 47.833,54.333 48.000,54.333 48.333 C 54.333 48.667,54.417 48.833,54.583 48.833 C 54.769 48.833,54.833 49.028,54.833 49.583 C 54.833 50.139,54.898 50.333,55.083 50.333 C 55.250 50.333,55.333 50.500,55.333 50.833 C 55.333 51.167,55.417 51.333,55.583 51.333 C 55.764 51.333,55.833 51.519,55.833 52.005 C 55.833 52.449,55.918 52.710,56.083 52.773 C 56.221 52.826,56.333 53.051,56.333 53.273 C 56.333 53.495,56.446 53.720,56.583 53.773 C 56.721 53.826,56.833 54.042,56.833 54.254 C 56.833 54.466,56.913 54.666,57.011 54.698 C 57.108 54.731,57.231 55.074,57.283 55.462 C 57.335 55.850,57.442 56.167,57.522 56.167 C 57.602 56.167,57.667 56.357,57.667 56.589 C 57.667 56.821,57.779 57.054,57.917 57.106 C 58.059 57.161,58.167 57.410,58.167 57.684 L 58.167 58.167 46.457 58.167 L 34.748 58.167 34.807 57.417 C 34.847 56.914,34.944 56.667,35.100 56.667 C 35.265 56.667,35.333 56.448,35.333 55.917 C 35.333 55.361,35.398 55.167,35.583 55.167 C 35.750 55.167,35.833 55.000,35.833 54.667 C 35.833 54.333,35.917 54.167,36.083 54.167 C 36.263 54.167,36.333 53.983,36.333 53.518 C 36.333 53.095,36.420 52.836,36.583 52.773 C 36.748 52.710,36.833 52.449,36.833 52.005 C 36.833 51.519,36.902 51.333,37.083 51.333 C 37.248 51.333,37.333 51.169,37.333 50.851 C 37.333 50.576,37.441 50.328,37.583 50.273 C 37.748 50.210,37.833 49.949,37.833 49.505 C 37.833 49.136,37.908 48.833,38.000 48.833 C 38.092 48.833,38.167 48.608,38.167 48.333 C 38.167 48.000,38.250 47.833,38.417 47.833 C 38.597 47.833,38.667 47.648,38.667 47.167 C 38.667 46.685,38.736 46.500,38.917 46.500 C 39.102 46.500,39.167 46.306,39.167 45.750 C 39.167 45.194,39.231 45.000,39.417 45.000 C 39.583 45.000,39.667 44.833,39.667 44.500 C 39.667 44.167,39.750 44.000,39.917 44.000 C 40.102 44.000,40.167 43.806,40.167 43.250 C 40.167 42.694,40.231 42.500,40.417 42.500 C 40.597 42.500,40.667 42.315,40.667 41.833 C 40.667 41.352,40.736 41.167,40.917 41.167 C 41.081 41.167,41.167 41.002,41.167 40.684 C 41.167 40.410,41.274 40.161,41.417 40.106 C 41.582 40.043,41.667 39.782,41.667 39.339 C 41.667 38.852,41.736 38.667,41.917 38.667 C 42.102 38.667,42.167 38.472,42.167 37.917 C 42.167 37.361,42.231 37.167,42.417 37.167 C 42.581 37.167,42.667 37.002,42.667 36.684 C 42.667 36.410,42.774 36.161,42.917 36.106 C 43.072 36.047,43.167 35.793,43.167 35.440 C 43.167 35.086,43.262 34.832,43.417 34.773 C 43.580 34.710,43.667 34.451,43.667 34.023 C 43.667 33.595,43.753 33.336,43.917 33.273 C 44.054 33.220,44.167 32.987,44.167 32.755 C 44.167 32.523,44.242 32.333,44.333 32.333 C 44.425 32.333,44.500 31.996,44.500 31.583 C 44.500 31.028,44.565 30.833,44.750 30.833 C 44.931 30.833,45.000 30.648,45.000 30.167 C 45.000 29.685,45.069 29.500,45.250 29.500 C 45.417 29.500,45.500 29.333,45.500 29.000 C 45.500 28.417,45.701 28.367,46.167 28.833 M330.458 31.181 C 330.298 31.356,330.167 31.575,330.167 31.667 C 330.167 31.758,330.054 31.833,329.917 31.833 C 329.779 31.833,329.667 31.946,329.667 32.083 C 329.667 32.221,329.554 32.333,329.417 32.333 C 329.279 32.333,329.167 32.446,329.167 32.583 C 329.167 32.721,329.054 32.833,328.917 32.833 C 328.779 32.833,328.667 32.946,328.667 33.083 C 328.667 33.221,328.554 33.333,328.417 33.333 C 328.279 33.333,328.167 33.446,328.167 33.583 C 328.167 33.721,328.054 33.833,327.917 33.833 C 327.779 33.833,327.667 33.946,327.667 34.083 C 327.667 34.221,327.554 34.333,327.417 34.333 C 327.279 34.333,327.167 34.446,327.167 34.583 C 327.167 34.721,327.054 34.833,326.917 34.833 C 326.779 34.833,326.667 34.946,326.667 35.083 C 326.667 35.221,326.554 35.333,326.417 35.333 C 326.279 35.333,326.167 35.446,326.167 35.583 C 326.167 35.721,326.086 35.833,325.987 35.833 C 325.752 35.833,323.833 37.752,323.833 37.987 C 323.833 38.086,323.721 38.167,323.583 38.167 C 323.446 38.167,323.333 38.279,323.333 38.417 C 323.333 38.554,323.221 38.667,323.083 38.667 C 322.946 38.667,322.833 38.779,322.833 38.917 C 322.833 39.054,322.721 39.167,322.583 39.167 C 322.446 39.167,322.333 39.279,322.333 39.417 C 322.333 39.554,322.221 39.667,322.083 39.667 C 321.946 39.667,321.833 39.779,321.833 39.917 C 321.833 40.054,321.721 40.167,321.583 40.167 C 321.446 40.167,321.333 40.279,321.333 40.417 C 321.333 40.554,321.221 40.667,321.083 40.667 C 320.946 40.667,320.833 40.779,320.833 40.917 C 320.833 41.054,320.721 41.167,320.583 41.167 C 320.446 41.167,320.333 41.279,320.333 41.417 C 320.333 41.554,320.259 41.667,320.169 41.667 C 319.940 41.667,317.500 44.088,317.500 44.315 C 317.500 44.417,317.387 44.500,317.250 44.500 C 317.112 44.500,317.000 44.612,317.000 44.750 C 317.000 44.887,316.887 45.000,316.750 45.000 C 316.612 45.000,316.500 45.112,316.500 45.250 C 316.500 45.387,316.387 45.500,316.250 45.500 C 316.112 45.500,316.000 45.612,316.000 45.750 C 316.000 45.887,315.887 46.000,315.750 46.000 C 315.612 46.000,315.500 46.112,315.500 46.250 C 315.500 46.387,315.387 46.500,315.250 46.500 C 315.112 46.500,315.000 46.612,315.000 46.750 C 315.000 46.887,314.887 47.000,314.750 47.000 C 314.612 47.000,314.500 47.112,314.500 47.250 C 314.500 47.387,314.387 47.500,314.250 47.500 C 314.112 47.500,314.000 47.612,314.000 47.750 C 314.000 47.887,313.919 48.000,313.820 48.000 C 313.585 48.000,311.167 50.418,311.167 50.653 C 311.167 50.752,311.054 50.833,310.917 50.833 C 310.779 50.833,310.667 50.946,310.667 51.083 C 310.667 51.221,310.554 51.333,310.417 51.333 C 310.279 51.333,310.167 51.446,310.167 51.583 C 310.167 51.721,310.054 51.833,309.917 51.833 C 309.779 51.833,309.667 51.946,309.667 52.083 C 309.667 52.221,309.554 52.333,309.417 52.333 C 309.279 52.333,309.167 52.446,309.167 52.583 C 309.167 52.721,309.054 52.833,308.917 52.833 C 308.779 52.833,308.667 52.946,308.667 53.083 C 308.667 53.221,308.554 53.333,308.417 53.333 C 308.279 53.333,308.167 53.446,308.167 53.583 C 308.167 53.721,308.083 53.833,307.980 53.833 C 307.878 53.833,307.503 54.133,307.147 54.500 C 306.792 54.867,306.425 55.167,306.334 55.167 C 306.242 55.167,306.167 55.242,306.167 55.334 C 306.167 55.425,305.867 55.792,305.500 56.147 C 305.133 56.503,304.833 56.878,304.833 56.980 C 304.833 57.083,304.721 57.167,304.583 57.167 C 304.446 57.167,304.333 57.279,304.333 57.417 C 304.333 57.554,304.221 57.667,304.083 57.667 C 303.863 57.667,303.833 59.898,303.833 76.750 L 303.833 95.833 323.075 95.833 L 342.316 95.833 342.741 95.439 C 342.975 95.222,343.167 94.960,343.167 94.856 C 343.167 94.752,343.279 94.667,343.417 94.667 C 343.554 94.667,343.667 94.554,343.667 94.417 C 343.667 94.279,343.779 94.167,343.917 94.167 C 344.054 94.167,344.167 94.054,344.167 93.917 C 344.167 93.779,344.279 93.667,344.417 93.667 C 344.554 93.667,344.667 93.554,344.667 93.417 C 344.667 93.279,344.779 93.167,344.917 93.167 C 345.054 93.167,345.167 93.054,345.167 92.917 C 345.167 92.779,345.279 92.667,345.417 92.667 C 345.554 92.667,345.667 92.554,345.667 92.417 C 345.667 92.279,345.779 92.167,345.917 92.167 C 346.054 92.167,346.167 92.054,346.167 91.917 C 346.167 91.779,346.279 91.667,346.417 91.667 C 346.554 91.667,346.667 91.554,346.667 91.417 C 346.667 91.279,346.779 91.167,346.917 91.167 C 347.054 91.167,347.167 91.054,347.167 90.917 C 347.167 90.779,347.279 90.667,347.417 90.667 C 347.554 90.667,347.667 90.554,347.667 90.417 C 347.667 90.279,347.748 90.167,347.846 90.167 C 348.081 90.167,349.500 88.747,349.500 88.513 C 349.500 88.414,349.613 88.333,349.750 88.333 C 349.887 88.333,350.000 88.221,350.000 88.083 C 350.000 87.946,350.113 87.833,350.250 87.833 C 350.387 87.833,350.500 87.721,350.500 87.583 C 350.500 87.446,350.613 87.333,350.750 87.333 C 350.887 87.333,351.000 87.221,351.000 87.083 C 351.000 86.946,351.113 86.833,351.250 86.833 C 351.387 86.833,351.500 86.721,351.500 86.583 C 351.500 86.446,351.613 86.333,351.750 86.333 C 351.887 86.333,352.000 86.221,352.000 86.083 C 352.000 85.946,352.113 85.833,352.250 85.833 C 352.387 85.833,352.500 85.721,352.500 85.583 C 352.500 85.446,352.613 85.333,352.750 85.333 C 352.887 85.333,353.000 85.221,353.000 85.083 C 353.000 84.946,353.113 84.833,353.250 84.833 C 353.387 84.833,353.500 84.721,353.500 84.583 C 353.500 84.446,353.613 84.333,353.750 84.333 C 353.887 84.333,354.000 84.221,354.000 84.083 C 354.000 83.946,354.081 83.833,354.180 83.833 C 354.414 83.833,355.833 82.414,355.833 82.180 C 355.833 82.081,355.946 82.000,356.083 82.000 C 356.221 82.000,356.333 81.887,356.333 81.750 C 356.333 81.612,356.446 81.500,356.583 81.500 C 356.721 81.500,356.833 81.387,356.833 81.250 C 356.833 81.112,356.946 81.000,357.083 81.000 C 357.221 81.000,357.333 80.887,357.333 80.750 C 357.333 80.612,357.446 80.500,357.583 80.500 C 357.721 80.500,357.833 80.387,357.833 80.250 C 357.833 80.112,357.946 80.000,358.083 80.000 C 358.221 80.000,358.333 79.887,358.333 79.750 C 358.333 79.612,358.446 79.500,358.583 79.500 C 358.721 79.500,358.833 79.387,358.833 79.250 C 358.833 79.112,358.946 79.000,359.083 79.000 C 359.221 79.000,359.333 78.887,359.333 78.750 C 359.333 78.612,359.446 78.500,359.583 78.500 C 359.721 78.500,359.833 78.387,359.833 78.250 C 359.833 78.112,359.917 78.000,360.020 78.000 C 360.122 78.000,360.497 77.700,360.853 77.333 C 361.208 76.967,361.575 76.667,361.666 76.667 C 361.758 76.667,361.833 76.554,361.833 76.417 C 361.833 76.279,361.908 76.167,362.000 76.167 C 362.092 76.167,362.167 76.054,362.167 75.917 C 362.167 75.779,362.279 75.667,362.417 75.667 C 362.554 75.667,362.667 75.554,362.667 75.417 C 362.667 75.279,362.779 75.167,362.917 75.167 C 363.054 75.167,363.167 75.054,363.167 74.917 C 363.167 74.779,363.279 74.667,363.417 74.667 C 363.554 74.667,363.667 74.554,363.667 74.417 C 363.667 74.279,363.779 74.167,363.917 74.167 C 364.054 74.167,364.167 74.054,364.167 73.917 C 364.167 73.779,364.279 73.667,364.417 73.667 C 364.554 73.667,364.667 73.554,364.667 73.417 C 364.667 73.279,364.779 73.167,364.917 73.167 C 365.054 73.167,365.167 73.054,365.167 72.917 C 365.167 72.779,365.279 72.667,365.417 72.667 C 365.554 72.667,365.667 72.554,365.667 72.417 C 365.667 72.279,365.779 72.167,365.917 72.167 C 366.054 72.167,366.167 72.092,366.167 72.000 C 366.167 71.908,366.279 71.833,366.417 71.833 C 366.554 71.833,366.667 71.758,366.667 71.667 C 366.667 71.451,367.284 70.833,367.500 70.833 C 367.592 70.833,367.667 70.721,367.667 70.583 C 367.667 70.446,367.779 70.333,367.917 70.333 C 368.054 70.333,368.167 70.221,368.167 70.083 C 368.167 69.946,368.242 69.833,368.333 69.833 C 368.425 69.833,368.500 69.721,368.500 69.583 C 368.500 69.446,368.613 69.333,368.750 69.333 C 368.917 69.333,369.000 69.167,369.000 68.833 L 369.000 68.333 350.250 68.333 L 331.500 68.333 331.500 49.583 L 331.500 30.833 331.125 30.847 C 330.919 30.855,330.619 31.005,330.458 31.181 " stroke="none" fill="#040404" fill-rule="evenodd"></path><path id="path1" d="" stroke="none" fill="#080404" fill-rule="evenodd"></path><path id="path2" d="" stroke="none" fill="#080404" fill-rule="evenodd"></path><path id="path3" d="" stroke="none" fill="#080404" fill-rule="evenodd"></path><path id="path4" d="" stroke="none" fill="#080404" fill-rule="evenodd"></path></g></svg>