<svg id="svg" version="1.1" xmlns="http://www.w3.org/2000/svg" xmlns:xlink="http://www.w3.org/1999/xlink" width="400" height="149.33333333333334" viewBox="0, 0, 400,149.33333333333334"><g id="svgg"><path id="path0" d="M90.235 33.017 C 90.060 33.210,89.935 33.398,89.958 33.434 C 90.263 33.916,89.950 34.000,87.844 34.000 C 85.331 34.000,84.908 34.112,84.752 34.823 C 84.641 35.331,84.634 35.333,83.520 35.333 C 82.280 35.333,82.000 35.493,82.000 36.200 C 82.000 36.644,81.961 36.667,81.208 36.681 C 79.678 36.707,79.210 36.902,79.403 37.432 C 79.521 37.756,79.260 37.971,78.665 38.039 C 78.345 38.075,78.074 38.194,78.063 38.303 C 78.051 38.411,78.032 38.683,78.021 38.907 C 78.003 39.252,77.905 39.321,77.375 39.365 C 76.770 39.415,76.748 39.439,76.699 40.116 C 76.661 40.649,76.590 40.794,76.405 40.723 C 76.272 40.671,76.063 40.712,75.941 40.813 C 75.819 40.914,75.658 40.942,75.583 40.874 C 75.508 40.806,75.497 40.839,75.559 40.947 C 75.621 41.055,75.604 41.186,75.521 41.237 C 75.439 41.288,75.360 42.054,75.347 42.939 C 75.320 44.739,75.294 44.835,74.858 44.721 C 74.125 44.530,73.997 45.010,74.061 47.719 C 74.122 50.292,74.167 50.722,74.398 50.954 C 74.527 51.083,74.611 51.106,75.083 51.146 C 75.279 51.162,75.333 51.415,75.333 52.320 C 75.333 53.590,75.432 54.000,75.739 54.000 C 76.113 54.000,76.667 54.761,76.667 55.275 C 76.667 55.551,76.723 55.834,76.792 55.903 C 76.860 55.972,76.917 56.115,76.917 56.222 C 76.917 56.329,77.004 56.417,77.111 56.417 C 77.218 56.417,77.362 56.473,77.431 56.542 C 77.499 56.610,77.693 56.667,77.861 56.667 C 78.140 56.667,78.247 56.854,78.181 57.226 C 78.138 57.464,78.505 57.811,78.803 57.814 C 80.185 57.828,80.648 58.031,80.700 58.646 C 80.748 59.232,80.772 59.252,81.485 59.303 C 82.027 59.341,82.303 59.462,82.541 59.764 C 83.051 60.413,83.716 60.667,84.908 60.667 C 85.956 60.667,86.001 60.683,86.021 61.083 C 86.069 62.042,85.902 61.947,87.587 61.979 C 88.663 62.000,88.676 62.006,88.778 62.514 C 88.918 63.215,89.211 63.301,91.536 63.322 C 92.613 63.331,92.807 63.374,92.726 63.585 C 92.673 63.724,92.712 63.937,92.813 64.059 C 92.914 64.181,92.942 64.342,92.874 64.417 C 92.806 64.492,92.839 64.503,92.947 64.441 C 93.055 64.379,93.193 64.408,93.253 64.505 C 93.314 64.603,93.487 64.670,93.640 64.655 C 94.945 64.527,96.815 64.687,96.726 64.919 C 96.673 65.057,96.712 65.271,96.813 65.392 C 96.914 65.514,96.942 65.675,96.874 65.750 C 96.806 65.825,96.839 65.836,96.947 65.774 C 97.055 65.712,97.193 65.741,97.253 65.839 C 97.314 65.936,97.487 66.004,97.640 65.989 C 98.945 65.861,100.815 66.020,100.726 66.252 C 100.673 66.391,100.712 66.604,100.813 66.726 C 100.914 66.848,100.942 67.009,100.874 67.084 C 100.806 67.159,100.839 67.169,100.947 67.107 C 101.055 67.045,101.186 67.062,101.237 67.145 C 101.288 67.228,102.058 67.307,102.948 67.320 C 104.768 67.347,104.640 67.312,104.715 67.804 C 104.824 68.519,105.053 68.620,106.750 68.695 C 107.591 68.732,109.274 69.653,108.531 69.669 C 108.093 69.679,109.041 69.995,109.515 69.997 C 109.982 69.999,110.265 70.145,110.813 70.667 C 111.393 71.218,111.630 71.333,112.185 71.333 C 112.770 71.333,112.843 71.374,112.754 71.653 C 112.699 71.828,112.732 72.021,112.829 72.081 C 112.926 72.141,112.955 72.271,112.894 72.371 C 112.829 72.474,112.859 72.504,112.963 72.440 C 113.062 72.378,113.194 72.409,113.255 72.509 C 113.317 72.608,113.472 72.649,113.600 72.600 C 113.969 72.459,114.304 72.661,114.221 72.976 C 114.127 73.338,114.735 73.907,115.077 73.775 C 115.331 73.678,115.397 73.824,115.345 74.360 C 115.330 74.513,115.397 74.686,115.495 74.747 C 115.592 74.807,115.621 74.945,115.559 75.053 C 115.497 75.161,115.508 75.194,115.583 75.126 C 115.658 75.058,115.819 75.086,115.941 75.187 C 116.063 75.288,116.276 75.327,116.415 75.274 C 116.631 75.191,116.667 75.469,116.667 77.255 L 116.667 79.333 116.200 79.333 C 115.608 79.333,115.333 79.608,115.333 80.200 C 115.333 80.581,115.257 80.670,114.917 80.688 C 113.998 80.733,114.067 80.665,114.021 81.583 C 114.004 81.924,113.914 82.000,113.533 82.000 C 112.941 82.000,112.667 82.274,112.667 82.867 C 112.667 83.328,112.654 83.334,111.583 83.354 C 110.987 83.366,110.411 83.384,110.303 83.396 C 110.194 83.407,110.075 83.679,110.039 84.000 C 110.002 84.321,109.957 84.598,109.939 84.617 C 109.921 84.635,109.064 84.662,108.036 84.678 C 107.008 84.693,106.167 84.772,106.167 84.853 C 106.167 84.934,106.061 85.000,105.931 85.000 C 105.802 85.000,105.507 85.225,105.276 85.500 L 104.855 86.000 98.038 86.000 L 91.221 86.000 90.522 85.335 C 90.137 84.969,89.769 84.678,89.703 84.688 C 88.498 84.869,85.823 84.629,85.912 84.347 C 85.968 84.172,85.934 83.979,85.837 83.919 C 85.741 83.859,85.712 83.729,85.773 83.629 C 85.837 83.526,85.808 83.496,85.704 83.560 C 85.604 83.622,85.484 83.609,85.436 83.532 C 85.389 83.455,84.617 83.374,83.721 83.353 C 81.825 83.308,82.044 83.393,81.962 82.667 L 81.895 82.083 80.656 82.027 C 79.201 81.961,79.377 82.051,79.294 81.333 L 79.228 80.750 77.539 80.750 C 76.376 80.750,75.782 80.817,75.633 80.967 C 75.290 81.309,75.352 89.170,75.701 89.614 C 75.884 89.847,75.837 89.842,78.542 89.941 C 79.710 89.984,80.673 90.071,80.681 90.135 C 80.688 90.198,80.714 90.426,80.737 90.640 C 80.806 91.271,81.051 91.310,84.985 91.327 C 88.718 91.343,89.092 91.400,88.894 91.917 C 88.810 92.135,89.114 92.429,89.500 92.502 C 90.944 92.778,109.742 92.529,109.758 92.234 C 109.807 91.343,109.834 91.334,112.803 91.319 C 116.494 91.301,116.839 91.233,116.597 90.568 C 116.437 90.129,116.817 90.016,118.549 89.989 C 120.504 89.957,120.588 89.918,120.646 89.007 C 120.664 88.717,120.812 88.675,121.958 88.632 L 123.250 88.583 123.302 87.958 L 123.353 87.333 124.343 87.313 C 125.571 87.287,125.607 87.282,125.778 87.111 C 125.923 86.966,125.945 86.881,125.979 86.333 C 125.995 86.084,126.118 86.000,126.467 86.000 C 127.056 86.000,127.333 85.726,127.333 85.143 C 127.333 84.736,127.401 84.681,127.958 84.635 C 128.549 84.586,128.586 84.549,128.635 83.958 C 128.684 83.370,128.719 83.333,129.250 83.333 C 129.923 83.333,129.967 83.276,130.030 82.323 C 130.070 81.701,130.991 80.263,131.003 80.802 C 131.004 80.865,131.078 80.804,131.167 80.667 C 131.368 80.355,131.368 70.552,131.167 70.083 C 131.088 69.900,131.018 69.801,131.012 69.864 C 130.978 70.196,130.074 69.011,130.035 68.583 C 129.921 67.342,129.965 67.398,129.083 67.354 C 128.743 67.337,128.667 67.248,128.667 66.867 C 128.667 66.274,128.392 66.000,127.800 66.000 C 127.419 66.000,127.330 65.924,127.313 65.583 C 127.267 64.665,127.335 64.734,126.421 64.688 C 126.105 64.671,125.977 64.543,125.871 64.130 C 125.714 63.526,125.378 63.376,124.125 63.350 C 123.373 63.334,123.333 63.310,123.333 62.867 C 123.333 62.158,123.054 62.000,121.800 62.000 C 120.659 62.000,120.541 61.926,120.650 61.283 C 120.710 60.930,120.158 60.719,119.085 60.684 C 117.764 60.641,117.858 60.676,117.786 60.203 C 117.686 59.547,117.545 59.498,115.458 59.381 C 113.994 59.300,113.878 59.240,113.983 58.616 C 114.054 58.201,113.481 58.041,111.830 58.012 C 110.875 57.996,110.077 57.966,110.058 57.947 C 110.038 57.927,109.996 57.725,109.965 57.497 C 109.863 56.753,109.748 56.708,107.883 56.678 C 105.869 56.646,106.026 56.685,105.952 56.196 C 105.832 55.414,105.738 55.382,103.489 55.354 C 101.916 55.335,101.817 55.313,101.912 55.014 C 101.968 54.838,101.934 54.646,101.837 54.586 C 101.741 54.526,101.712 54.396,101.773 54.296 C 101.837 54.192,101.808 54.163,101.704 54.227 C 101.604 54.288,101.484 54.276,101.436 54.199 C 101.389 54.122,100.617 54.041,99.721 54.020 C 97.881 53.976,98.026 54.016,97.952 53.529 C 97.842 52.814,97.613 52.714,95.917 52.638 C 95.076 52.601,93.393 51.681,94.136 51.664 C 94.629 51.653,93.594 51.338,93.057 51.336 C 92.474 51.334,92.377 51.286,92.443 51.035 C 92.540 50.663,91.937 50.091,91.590 50.225 C 91.449 50.279,91.333 50.250,91.333 50.161 C 91.333 50.073,91.038 50.000,90.677 50.000 C 90.038 50.000,90.019 49.983,89.968 49.375 C 89.919 48.784,89.883 48.747,89.292 48.698 C 88.699 48.649,88.667 48.616,88.667 48.068 C 88.667 47.186,88.259 46.363,87.761 46.238 C 87.184 46.093,87.101 44.681,87.667 44.646 C 88.548 44.591,88.602 44.529,88.646 43.516 C 88.662 43.137,88.732 43.048,88.965 43.109 C 89.311 43.200,89.903 42.624,89.794 42.301 C 89.747 42.161,89.961 42.024,90.397 41.917 C 90.959 41.778,91.099 41.659,91.227 41.208 C 91.367 40.718,91.442 40.667,92.024 40.667 C 92.378 40.667,92.667 40.599,92.667 40.516 C 92.667 40.433,92.801 40.400,92.965 40.443 C 93.337 40.540,93.909 39.937,93.775 39.590 C 93.692 39.372,93.884 39.333,95.047 39.331 C 95.800 39.329,96.529 39.256,96.667 39.167 C 96.804 39.078,96.865 39.004,96.802 39.003 C 96.739 39.001,96.889 38.786,97.136 38.525 L 97.583 38.050 103.792 38.021 C 110.426 37.991,110.145 37.959,110.017 38.717 C 109.987 38.891,110.442 39.346,110.616 39.317 C 110.690 39.304,111.475 39.303,112.362 39.314 L 113.974 39.333 114.083 39.831 C 114.224 40.476,114.354 40.544,115.659 40.656 C 116.626 40.739,116.745 40.788,116.709 41.083 C 116.645 41.604,116.922 41.888,117.542 41.937 C 118.378 42.003,120.667 44.296,120.667 45.069 C 120.667 45.723,120.924 46.000,121.533 46.000 C 121.967 46.000,122.000 46.048,122.000 46.667 L 122.000 47.333 124.667 47.333 L 127.333 47.333 127.333 41.724 C 127.333 36.393,127.348 36.128,127.625 36.379 C 127.971 36.692,127.774 36.667,129.833 36.667 C 131.204 36.667,131.500 36.711,131.500 36.917 C 131.500 37.313,132.159 37.874,132.515 37.781 C 132.690 37.735,132.870 37.757,132.915 37.830 C 132.959 37.903,133.800 37.974,134.783 37.988 C 135.766 38.003,136.585 38.030,136.604 38.049 C 136.623 38.068,136.668 38.341,136.704 38.657 C 136.763 39.171,136.829 39.237,137.343 39.296 C 137.659 39.332,137.928 39.374,137.943 39.389 C 137.964 39.412,138.126 41.607,138.174 42.531 C 138.190 42.831,138.540 43.195,138.774 43.153 C 138.853 43.139,139.010 43.136,139.125 43.147 C 139.291 43.163,139.333 48.105,139.333 67.252 L 139.333 91.338 156.993 91.331 C 168.459 91.327,174.688 91.267,174.754 91.160 C 174.810 91.069,174.938 91.045,175.037 91.106 C 175.141 91.171,175.171 91.141,175.106 91.037 C 175.045 90.938,175.074 90.807,175.171 90.747 C 175.268 90.688,175.301 90.495,175.246 90.319 C 175.149 90.014,175.267 89.999,177.947 89.975 C 180.645 89.952,181.052 89.935,181.417 89.838 C 181.508 89.814,181.645 89.805,181.721 89.818 C 181.796 89.831,181.814 89.770,181.760 89.682 C 181.706 89.595,181.741 89.474,181.837 89.414 C 181.934 89.354,181.968 89.162,181.912 88.986 C 181.818 88.688,181.913 88.666,183.364 88.653 C 185.707 88.632,186.149 88.502,185.930 87.902 C 185.787 87.509,186.135 87.361,187.323 87.306 L 188.562 87.250 188.628 86.667 C 188.710 85.946,188.562 86.026,189.885 85.984 C 191.135 85.943,191.259 85.858,191.313 85.000 C 191.329 84.731,191.451 84.667,191.943 84.667 C 192.431 84.667,192.679 84.538,193.188 84.018 C 193.567 83.631,194.075 83.309,194.444 83.222 C 194.947 83.103,195.090 82.977,195.198 82.557 C 195.319 82.091,195.635 81.855,196.250 81.772 C 196.342 81.760,196.417 81.662,196.417 81.556 C 196.417 81.449,196.473 81.305,196.542 81.236 C 196.610 81.167,196.667 80.979,196.667 80.818 C 196.667 80.657,196.967 80.232,197.333 79.872 C 197.870 79.346,198.000 79.100,198.000 78.609 C 198.000 78.118,198.065 77.996,198.333 77.979 C 199.191 77.926,199.276 77.802,199.317 76.552 C 199.359 75.250,199.309 75.371,199.836 75.298 C 200.580 75.196,200.626 75.081,200.655 73.216 C 200.671 72.232,200.700 71.411,200.720 71.391 C 200.740 71.371,200.942 71.330,201.170 71.298 C 202.022 71.181,201.988 71.544,201.997 62.345 C 202.006 53.088,201.993 52.931,201.177 52.752 L 200.667 52.640 200.647 51.278 C 200.637 50.529,200.641 49.792,200.655 49.640 C 200.670 49.487,200.603 49.314,200.505 49.253 C 200.408 49.193,200.379 49.055,200.441 48.947 C 200.503 48.839,200.492 48.806,200.417 48.874 C 200.342 48.942,200.181 48.914,200.059 48.813 C 199.937 48.712,199.724 48.673,199.585 48.726 C 199.380 48.805,199.333 48.658,199.333 47.922 C 199.333 46.684,199.128 46.221,198.519 46.088 C 198.087 45.993,198.012 45.894,197.968 45.364 C 197.920 44.787,197.879 44.747,197.301 44.699 C 196.723 44.651,196.683 44.610,196.634 44.032 C 196.586 43.454,196.546 43.414,195.968 43.366 C 195.390 43.317,195.349 43.277,195.301 42.699 C 195.253 42.121,195.213 42.080,194.634 42.032 C 194.056 41.984,194.016 41.944,193.968 41.366 C 193.920 40.785,193.881 40.747,193.292 40.698 C 192.761 40.654,192.664 40.585,192.646 40.240 C 192.601 39.370,192.657 39.412,191.417 39.298 C 190.950 39.255,189.839 38.361,190.010 38.167 C 190.050 38.121,189.727 38.060,189.292 38.033 C 188.563 37.986,188.409 37.872,188.486 37.441 C 188.528 37.210,188.167 36.857,187.864 36.833 C 187.710 36.821,186.927 36.773,186.125 36.727 C 184.658 36.642,184.543 36.581,184.650 35.949 C 184.721 35.529,184.148 35.373,182.424 35.345 C 180.321 35.312,179.169 34.902,179.460 34.292 C 179.493 34.223,179.440 34.157,179.343 34.146 C 179.246 34.134,179.092 34.106,179.000 34.083 C 178.908 34.060,177.155 34.032,175.103 34.021 C 171.045 33.998,171.235 34.043,171.106 33.083 C 171.093 32.992,171.008 32.910,170.917 32.902 C 170.825 32.894,170.637 32.838,170.500 32.777 C 170.033 32.569,127.870 32.730,127.659 32.941 C 127.555 33.045,127.457 33.433,127.443 33.802 C 127.419 34.401,127.389 34.448,127.154 34.236 C 127.009 34.106,126.653 34.000,126.362 34.000 C 126.012 34.000,125.826 33.915,125.813 33.750 C 125.773 33.278,125.750 33.194,125.620 33.065 C 125.337 32.782,124.337 32.762,107.735 32.715 L 90.553 32.666 90.235 33.017 M217.894 32.985 C 217.607 33.161,217.265 33.457,217.135 33.644 C 216.922 33.948,216.701 33.986,215.040 34.011 C 212.940 34.042,212.667 34.166,212.667 35.083 C 212.667 35.283,212.417 35.333,211.417 35.333 C 210.729 35.333,210.167 35.403,210.167 35.487 C 210.167 36.032,209.280 36.667,208.519 36.667 C 207.620 36.667,207.333 36.874,207.333 37.523 C 207.333 37.931,207.266 37.985,206.708 38.032 C 206.119 38.080,206.080 38.119,206.032 38.699 C 205.984 39.277,205.944 39.317,205.366 39.366 C 204.785 39.414,204.747 39.453,204.698 40.042 C 204.654 40.572,204.585 40.670,204.240 40.688 C 204.016 40.699,203.740 40.718,203.625 40.729 C 203.484 40.743,203.398 41.156,203.360 41.999 C 203.305 43.216,203.158 43.550,202.745 43.392 C 201.955 43.088,201.626 51.515,202.398 52.287 C 202.527 52.416,202.611 52.440,203.083 52.479 C 203.272 52.495,203.333 52.721,203.333 53.406 C 203.333 54.656,203.537 55.112,204.157 55.248 C 204.498 55.323,204.674 55.466,204.688 55.680 C 204.737 56.436,204.824 56.543,205.462 56.628 C 205.999 56.700,205.979 56.683,206.046 57.119 C 206.126 57.646,206.428 57.924,206.964 57.964 C 207.266 57.987,207.709 58.251,208.147 58.667 C 208.689 59.183,208.979 59.333,209.428 59.333 C 209.943 59.333,210.020 59.391,210.111 59.848 C 210.240 60.493,210.580 60.625,212.190 60.655 C 212.698 60.665,212.815 60.736,212.905 61.094 C 213.056 61.697,213.894 62.000,215.411 62.000 C 216.102 62.000,216.673 62.056,216.681 62.125 C 216.688 62.194,216.713 62.419,216.736 62.625 C 216.809 63.279,216.872 63.297,219.208 63.319 L 220.667 63.333 220.667 63.800 C 220.667 64.571,220.909 64.667,222.867 64.667 C 224.723 64.667,224.800 64.697,224.683 65.384 C 224.654 65.558,225.109 66.013,225.283 65.983 C 225.356 65.971,226.148 65.969,227.042 65.980 L 228.667 66.000 228.667 66.467 C 228.667 67.238,228.909 67.333,230.867 67.333 L 232.667 67.333 232.667 67.800 C 232.667 68.506,232.947 68.667,234.181 68.667 C 235.326 68.667,235.449 68.748,235.561 69.583 C 235.573 69.675,235.671 69.750,235.778 69.750 C 235.885 69.750,236.028 69.806,236.097 69.875 C 236.166 69.944,236.620 70.000,237.106 70.000 C 237.962 70.000,237.995 70.017,238.129 70.536 C 238.286 71.140,238.622 71.290,239.875 71.317 C 240.627 71.333,240.667 71.357,240.667 71.800 C 240.667 72.392,240.941 72.667,241.533 72.667 C 241.790 72.667,242.006 72.723,242.014 72.792 C 242.022 72.860,242.047 73.092,242.070 73.307 C 242.116 73.724,242.467 74.039,242.765 73.930 C 243.089 73.812,243.304 74.073,243.372 74.668 C 243.409 74.988,243.527 75.259,243.636 75.271 C 243.745 75.282,244.021 75.301,244.250 75.313 C 244.660 75.333,244.667 75.356,244.667 76.745 C 244.667 77.936,244.627 78.141,244.415 78.059 C 244.276 78.006,244.063 78.045,243.941 78.147 C 243.819 78.248,243.658 78.275,243.583 78.207 C 243.508 78.139,243.497 78.172,243.559 78.280 C 243.621 78.388,243.592 78.526,243.495 78.587 C 243.397 78.647,243.330 78.821,243.345 78.973 C 243.466 80.211,243.337 80.667,242.867 80.667 C 242.277 80.667,242.000 80.941,242.000 81.524 C 242.000 81.938,241.937 81.986,241.330 82.032 C 240.962 82.060,240.660 82.137,240.658 82.203 C 240.651 82.584,239.696 83.258,239.101 83.302 C 238.311 83.360,237.635 83.692,237.213 84.229 C 236.888 84.642,236.839 84.650,233.469 84.840 C 233.168 84.857,232.805 85.207,232.847 85.441 C 232.947 85.998,232.927 86.000,225.417 86.000 C 217.491 86.000,217.856 86.035,217.983 85.283 C 218.055 84.861,217.481 84.706,215.745 84.678 C 213.968 84.650,213.598 84.539,213.773 84.083 C 213.948 83.627,213.557 83.510,211.458 83.391 C 210.002 83.309,210.000 83.308,210.000 82.854 C 210.000 82.159,209.715 82.000,208.467 82.000 C 207.325 82.000,207.207 81.926,207.317 81.283 C 207.408 80.744,204.134 80.381,203.548 80.864 C 203.228 81.127,203.261 89.404,203.583 89.726 C 203.762 89.904,204.340 89.971,205.866 89.989 C 207.966 90.015,208.667 90.249,208.667 90.928 C 208.667 91.289,209.133 91.333,212.917 91.333 L 216.640 91.333 216.752 91.843 C 216.932 92.662,217.035 92.669,227.135 92.616 C 237.898 92.559,238.060 92.545,237.756 91.714 C 237.630 91.371,237.853 91.344,240.974 91.326 C 242.657 91.316,244.039 91.238,244.093 91.151 C 244.146 91.065,244.278 91.045,244.387 91.107 C 244.495 91.169,244.528 91.159,244.460 91.084 C 244.392 91.009,244.419 90.848,244.520 90.726 C 244.621 90.604,244.660 90.391,244.607 90.252 C 244.525 90.039,244.747 89.998,246.047 89.986 C 248.372 89.965,248.815 89.835,248.597 89.235 C 248.455 88.844,248.803 88.685,249.880 88.650 C 251.177 88.608,251.333 88.502,251.333 87.667 C 251.333 87.378,251.444 87.333,252.156 87.333 C 253.322 87.333,253.781 87.119,253.914 86.510 C 254.006 86.094,254.110 86.000,254.480 86.000 C 255.059 86.000,255.333 85.722,255.333 85.133 C 255.333 84.752,255.410 84.663,255.750 84.646 C 255.979 84.634,256.255 84.616,256.364 84.604 C 256.473 84.593,256.591 84.321,256.628 84.001 C 256.697 83.393,256.913 83.144,257.255 83.275 C 257.669 83.434,257.949 82.870,257.981 81.813 C 258.017 80.618,257.999 80.658,258.523 80.622 C 258.929 80.595,259.357 80.287,259.317 80.051 C 259.243 79.615,259.350 71.628,259.429 71.707 C 259.482 71.760,259.545 71.941,259.570 72.110 C 259.595 72.279,259.683 72.420,259.766 72.425 C 260.518 72.466,260.667 72.681,260.688 73.761 C 260.720 75.429,260.625 75.265,261.583 75.313 C 261.985 75.333,262.000 75.374,262.000 76.467 C 262.000 77.716,262.159 78.000,262.857 78.000 C 263.276 78.000,263.318 78.060,263.365 78.708 C 263.394 79.098,263.454 79.384,263.500 79.343 C 263.603 79.253,264.578 80.187,264.621 80.417 C 264.638 80.508,264.679 80.833,264.712 81.138 C 264.776 81.744,265.088 82.043,265.542 81.934 C 265.879 81.854,266.013 82.021,266.077 82.598 C 266.142 83.193,266.233 83.247,267.286 83.319 C 267.398 83.327,267.446 83.447,267.393 83.585 C 267.340 83.724,267.379 83.937,267.480 84.059 C 267.581 84.181,267.627 84.330,267.582 84.390 C 267.537 84.451,267.549 84.463,267.610 84.418 C 267.670 84.373,267.819 84.419,267.941 84.520 C 268.063 84.621,268.270 84.663,268.402 84.612 C 268.546 84.557,268.940 84.818,269.383 85.260 C 269.987 85.864,270.234 86.000,270.728 86.000 C 271.215 86.000,271.337 86.065,271.354 86.333 C 271.408 87.191,271.531 87.276,272.781 87.317 C 274.105 87.360,273.956 87.279,274.038 88.000 L 274.105 88.583 275.344 88.640 C 276.758 88.704,276.676 88.671,276.711 89.189 C 276.757 89.860,277.013 89.956,278.838 89.988 C 280.516 90.017,280.895 90.132,280.736 90.568 C 280.493 91.236,280.829 91.301,284.620 91.319 C 287.109 91.331,287.477 91.367,287.393 91.585 C 287.340 91.724,287.379 91.937,287.480 92.059 C 287.581 92.181,287.608 92.342,287.540 92.417 C 287.472 92.492,287.505 92.503,287.613 92.441 C 287.722 92.379,287.857 92.403,287.913 92.495 C 287.980 92.603,291.554 92.661,298.105 92.661 C 309.035 92.661,308.735 92.685,309.468 91.753 C 309.797 91.335,309.806 91.333,312.566 91.333 C 314.240 91.333,315.333 91.270,315.333 91.172 C 315.333 91.083,315.449 91.055,315.590 91.109 C 315.950 91.247,316.473 90.720,316.497 90.193 C 316.526 89.578,316.519 86.507,316.488 86.000 C 316.425 84.976,315.743 84.658,313.667 84.684 C 311.944 84.706,311.630 84.817,311.463 85.464 L 311.324 86.000 303.234 86.000 L 295.145 86.000 294.724 85.500 C 294.493 85.225,294.198 85.000,294.069 85.000 C 293.939 85.000,293.833 84.933,293.833 84.852 C 293.833 84.771,292.954 84.692,291.880 84.677 C 289.967 84.651,289.596 84.546,289.773 84.083 C 289.948 83.627,289.557 83.510,287.458 83.391 C 286.056 83.312,285.999 83.293,285.979 82.904 C 285.968 82.682,285.949 82.407,285.938 82.293 C 285.924 82.162,285.575 82.064,285.000 82.028 C 284.035 81.968,283.568 81.694,283.318 81.042 C 283.207 80.751,283.043 80.667,282.587 80.667 C 282.118 80.667,281.996 80.600,281.979 80.333 C 281.931 79.563,281.846 79.458,281.205 79.372 C 280.730 79.308,280.487 79.066,280.597 78.765 C 280.706 78.467,280.391 78.116,279.974 78.070 C 279.759 78.047,279.527 78.022,279.458 78.014 C 279.390 78.006,279.333 77.790,279.333 77.533 C 279.333 76.941,279.059 76.667,278.467 76.667 C 278.067 76.667,278.000 76.600,278.000 76.200 C 278.000 75.608,277.726 75.333,277.133 75.333 C 276.668 75.333,276.667 75.330,276.667 74.200 C 276.667 72.946,276.509 72.667,275.800 72.667 L 275.333 72.667 275.322 71.458 C 275.301 69.217,275.210 68.917,274.514 68.778 L 274.000 68.675 273.984 65.462 C 273.958 60.116,273.890 59.640,273.134 59.584 C 272.710 59.553,272.511 59.177,272.903 59.146 C 273.386 59.108,273.471 59.084,273.602 58.954 C 273.902 58.653,273.966 57.695,273.986 53.208 L 274.000 50.000 274.467 50.000 C 275.175 50.000,275.333 49.720,275.333 48.467 C 275.333 47.843,275.390 47.327,275.458 47.319 C 275.527 47.312,275.752 47.287,275.958 47.264 C 276.574 47.196,276.625 47.064,276.653 45.458 C 276.666 44.706,276.690 44.667,277.133 44.667 C 277.723 44.667,278.000 44.393,278.000 43.810 C 278.000 43.403,278.067 43.348,278.625 43.302 C 279.216 43.253,279.253 43.216,279.302 42.625 C 279.351 42.036,279.386 42.000,279.920 42.000 C 280.351 42.000,280.651 41.843,281.178 41.342 C 281.717 40.829,282.021 40.673,282.560 40.634 C 283.227 40.585,283.252 40.562,283.302 39.958 L 283.353 39.333 285.080 39.333 C 286.907 39.333,287.333 39.257,287.333 38.928 C 287.333 38.054,287.709 38.000,293.813 38.000 L 299.522 38.000 299.942 38.500 C 300.174 38.775,300.469 39.000,300.598 39.000 C 300.728 39.000,300.833 39.075,300.833 39.167 C 300.833 39.258,300.890 39.324,300.958 39.314 C 301.027 39.303,301.890 39.303,302.875 39.314 L 304.667 39.333 304.667 39.800 C 304.667 40.509,304.946 40.667,306.200 40.667 C 307.292 40.667,307.334 40.682,307.354 41.083 C 307.400 42.000,307.334 41.932,308.226 41.979 C 308.518 41.995,308.658 42.138,308.773 42.542 C 308.901 42.992,309.041 43.111,309.603 43.250 C 310.039 43.358,310.253 43.494,310.206 43.635 C 310.097 43.957,310.689 44.533,311.035 44.443 C 311.330 44.365,311.397 44.491,311.345 45.027 C 311.330 45.179,311.397 45.353,311.495 45.413 C 311.592 45.474,311.621 45.612,311.559 45.720 C 311.497 45.828,311.508 45.861,311.583 45.793 C 311.658 45.725,311.819 45.752,311.941 45.853 C 312.063 45.955,312.272 45.995,312.405 45.944 C 312.590 45.873,312.661 46.018,312.699 46.550 C 312.748 47.226,312.771 47.252,313.368 47.301 L 313.986 47.353 314.035 48.635 L 314.083 49.917 317.000 49.942 C 318.604 49.956,319.999 49.900,320.099 49.818 C 320.199 49.737,320.342 49.725,320.417 49.793 C 320.492 49.861,320.503 49.828,320.441 49.720 C 320.379 49.612,320.392 49.484,320.470 49.435 C 320.586 49.364,320.590 48.001,320.479 46.833 C 320.443 46.465,320.142 46.140,319.917 46.227 C 319.375 46.435,319.341 46.084,319.329 40.288 C 319.320 35.475,319.277 34.468,319.076 34.267 C 318.884 34.074,318.199 34.022,315.716 34.007 C 312.623 33.990,312.246 33.922,312.440 33.417 C 312.523 33.199,312.221 32.906,311.833 32.829 C 311.696 32.802,304.428 32.755,295.682 32.725 C 280.259 32.672,279.300 32.696,279.358 33.141 C 279.472 34.003,279.480 34.000,277.111 34.000 C 275.889 34.000,274.833 34.056,274.764 34.125 C 274.695 34.194,274.551 34.250,274.444 34.250 C 274.337 34.250,274.240 34.325,274.228 34.417 C 274.117 35.239,273.984 35.333,272.897 35.354 C 272.312 35.366,271.745 35.384,271.636 35.396 C 271.527 35.407,271.409 35.679,271.372 36.000 C 271.290 36.721,271.438 36.640,270.115 36.683 C 268.865 36.724,268.741 36.809,268.688 37.667 C 268.671 37.933,268.549 38.000,268.079 38.000 C 267.624 38.000,267.460 38.084,267.348 38.375 C 267.099 39.028,266.314 39.489,265.306 39.574 C 265.161 39.586,264.918 39.830,264.910 39.972 C 264.877 40.550,264.635 40.961,264.369 40.891 C 263.997 40.794,263.424 41.395,263.558 41.744 C 263.612 41.885,263.584 42.000,263.495 42.000 C 263.406 42.000,263.333 42.300,263.333 42.667 C 263.333 43.286,263.300 43.333,262.867 43.333 C 262.253 43.333,262.000 43.611,262.000 44.283 C 262.000 44.787,261.865 44.923,261.441 44.847 C 261.208 44.805,260.857 45.168,260.838 45.469 C 260.681 47.926,260.528 48.368,259.724 48.676 C 259.379 48.808,259.364 48.916,259.342 51.351 C 259.317 54.122,259.308 54.172,258.858 54.055 C 258.048 53.843,258.009 54.119,258.009 60.026 C 258.010 65.971,258.028 66.105,258.913 66.801 C 259.313 67.116,259.333 67.213,259.333 68.836 C 259.333 70.379,259.308 70.520,259.067 70.320 C 258.921 70.198,258.644 70.075,258.452 70.046 C 258.005 69.977,258.049 70.089,257.957 68.786 C 257.867 67.497,257.868 67.498,257.227 67.431 C 256.840 67.391,256.739 67.291,256.694 66.899 C 256.617 66.241,256.380 66.000,255.813 66.000 C 255.364 66.000,255.228 65.804,255.317 65.283 C 255.361 65.023,254.911 64.738,254.401 64.702 C 254.060 64.678,253.650 64.441,253.186 63.999 C 252.653 63.492,252.352 63.333,251.923 63.333 C 251.430 63.333,251.346 63.269,251.248 62.823 C 251.115 62.217,250.656 62.000,249.509 62.000 C 248.705 62.000,248.544 61.862,248.439 61.083 C 248.427 60.992,248.329 60.917,248.222 60.917 C 248.115 60.917,247.972 60.860,247.903 60.792 C 247.834 60.723,247.352 60.667,246.833 60.667 C 245.958 60.667,245.835 60.617,245.187 60.000 C 244.490 59.337,244.478 59.333,243.165 59.333 C 242.054 59.333,241.859 59.293,241.941 59.081 C 241.994 58.943,241.955 58.729,241.853 58.608 C 241.752 58.486,241.725 58.325,241.793 58.250 C 241.861 58.175,241.828 58.164,241.720 58.226 C 241.612 58.288,241.481 58.271,241.430 58.188 C 241.379 58.105,240.608 58.027,239.717 58.013 C 238.148 57.990,237.772 57.867,237.930 57.432 C 238.146 56.839,237.697 56.702,235.478 56.681 C 233.975 56.666,233.889 56.619,233.772 55.750 C 233.760 55.658,233.675 55.582,233.583 55.581 C 233.492 55.579,233.342 55.532,233.250 55.475 C 233.158 55.418,232.373 55.360,231.505 55.345 C 229.966 55.319,229.602 55.195,229.773 54.750 C 229.948 54.295,229.556 54.177,227.475 54.058 C 225.985 53.974,225.884 53.916,225.772 53.083 C 225.760 52.992,225.663 52.917,225.556 52.917 C 225.449 52.917,225.305 52.860,225.236 52.792 C 225.167 52.723,224.416 52.667,223.566 52.667 L 222.020 52.667 221.968 52.042 L 221.917 51.417 220.635 51.368 L 219.353 51.320 219.301 50.701 C 219.253 50.118,219.215 50.080,218.625 50.032 C 218.067 49.985,218.000 49.931,218.000 49.523 C 218.000 48.941,217.723 48.667,217.133 48.667 C 216.733 48.667,216.667 48.600,216.667 48.200 C 216.667 47.608,216.392 47.333,215.800 47.333 L 215.333 47.333 215.333 45.917 C 215.333 44.536,215.388 44.396,215.893 44.486 C 216.131 44.529,216.477 44.162,216.480 43.864 C 216.495 42.465,216.699 42.000,217.298 42.000 C 217.762 42.000,218.021 41.862,218.530 41.343 C 219.046 40.816,219.313 40.675,219.879 40.634 C 220.562 40.585,220.585 40.564,220.635 39.958 L 220.687 39.333 222.343 39.313 C 224.288 39.288,224.265 39.290,224.444 39.111 C 224.590 38.966,224.612 38.881,224.646 38.333 C 224.666 38.006,224.785 38.000,230.761 38.000 L 236.855 38.000 237.276 38.500 C 237.507 38.775,237.802 39.000,237.931 39.000 C 238.061 39.000,238.167 39.066,238.167 39.147 C 238.167 39.228,239.008 39.307,240.036 39.322 C 242.128 39.353,242.008 39.322,242.045 39.856 C 242.072 40.262,242.380 40.690,242.616 40.650 C 243.707 40.465,244.667 40.691,244.667 41.133 C 244.667 41.720,244.940 42.000,245.514 42.000 C 245.932 42.000,246.140 42.268,246.228 42.917 C 246.240 43.008,246.325 43.090,246.417 43.097 C 246.968 43.144,247.468 43.504,247.391 43.799 C 247.283 44.211,247.790 44.717,248.202 44.609 C 248.566 44.514,248.622 44.627,248.732 45.667 C 248.907 47.336,248.653 47.227,252.417 47.240 L 255.250 47.250 255.244 41.917 C 255.238 36.716,255.202 35.979,254.935 35.713 C 254.806 35.584,254.722 35.560,254.250 35.521 C 254.073 35.506,254.000 35.305,254.000 34.828 C 254.000 33.718,253.627 33.051,252.892 32.848 C 251.565 32.481,218.506 32.611,217.894 32.985 M179.918 34.668 C 180.084 34.852,180.256 34.966,180.301 34.922 C 180.412 34.810,179.997 34.333,179.787 34.333 C 179.692 34.333,179.751 34.484,179.918 34.668 M237.917 38.805 C 237.806 38.916,237.167 38.325,237.167 38.112 C 237.167 38.018,237.354 38.118,237.583 38.333 C 237.811 38.548,237.962 38.760,237.917 38.805 M300.584 38.805 C 300.473 38.916,299.833 38.325,299.833 38.112 C 299.833 38.018,300.021 38.118,300.249 38.333 C 300.478 38.548,300.629 38.760,300.584 38.805 M97.251 38.666 C 97.085 38.850,97.026 39.000,97.120 39.000 C 97.330 39.000,97.746 38.524,97.634 38.412 C 97.590 38.367,97.417 38.482,97.251 38.666 M190.584 38.668 C 190.751 38.852,190.923 38.966,190.967 38.922 C 191.079 38.810,190.663 38.333,190.454 38.333 C 190.359 38.333,190.418 38.484,190.584 38.668 M170.014 39.458 C 170.022 39.527,170.047 39.759,170.070 39.974 C 170.134 40.554,170.375 40.627,172.308 40.655 C 174.034 40.681,174.402 40.795,174.227 41.250 C 174.141 41.474,174.462 41.774,174.833 41.817 C 174.971 41.833,175.472 41.887,175.947 41.938 C 176.659 42.014,176.932 42.146,177.496 42.682 C 178.021 43.182,178.315 43.333,178.757 43.333 C 179.277 43.333,179.333 43.379,179.333 43.800 C 179.333 44.387,179.607 44.667,180.181 44.667 C 180.598 44.667,180.807 44.935,180.894 45.583 C 180.907 45.675,181.004 45.750,181.111 45.750 C 181.218 45.750,181.362 45.806,181.431 45.875 C 181.499 45.944,181.698 46.000,181.872 46.000 C 182.109 46.000,182.163 46.081,182.088 46.319 C 182.032 46.495,182.066 46.688,182.163 46.747 C 182.259 46.807,182.288 46.938,182.227 47.037 C 182.163 47.141,182.192 47.171,182.296 47.106 C 182.396 47.045,182.526 47.074,182.586 47.171 C 182.646 47.268,182.834 47.303,183.004 47.249 C 183.268 47.165,183.321 47.256,183.365 47.867 C 183.415 48.564,183.434 48.585,184.042 48.635 L 184.667 48.687 184.688 49.677 C 184.719 51.173,184.730 51.197,185.462 51.295 C 185.709 51.328,185.927 51.371,185.947 51.391 C 185.967 51.411,185.996 52.269,186.011 53.297 C 186.026 54.325,186.105 55.167,186.186 55.167 C 186.267 55.167,186.333 55.272,186.333 55.402 C 186.333 55.531,186.558 55.826,186.833 56.058 L 187.333 56.478 187.333 62.573 C 187.333 67.878,187.301 68.667,187.083 68.667 C 186.946 68.667,186.777 68.672,186.708 68.679 C 186.536 68.695,186.010 69.183,186.026 69.312 C 186.188 70.604,185.963 72.844,185.681 72.754 C 185.505 72.699,185.312 72.732,185.253 72.829 C 185.193 72.926,185.062 72.955,184.963 72.894 C 184.859 72.829,184.829 72.859,184.894 72.963 C 184.955 73.062,184.946 73.181,184.872 73.226 C 184.799 73.271,184.721 73.741,184.699 74.269 C 184.653 75.363,184.677 75.308,184.214 75.379 C 183.684 75.460,183.410 75.762,183.368 76.313 C 183.343 76.643,183.105 77.031,182.665 77.463 C 182.130 77.988,182.000 78.233,182.000 78.724 C 182.000 79.314,181.981 79.333,181.391 79.333 C 180.900 79.333,180.654 79.463,180.130 79.998 C 179.698 80.438,179.309 80.676,178.979 80.701 C 178.429 80.743,178.127 81.017,178.046 81.548 C 177.974 82.015,178.016 81.997,176.941 82.022 C 176.419 82.034,175.951 82.110,175.901 82.191 C 175.851 82.272,175.722 82.288,175.613 82.226 C 175.505 82.164,175.472 82.175,175.540 82.250 C 175.608 82.325,175.581 82.486,175.480 82.608 C 175.379 82.729,175.336 82.933,175.384 83.059 C 175.454 83.241,175.153 83.306,173.939 83.370 C 172.228 83.459,171.719 83.649,171.567 84.255 L 171.464 84.667 169.024 84.679 C 167.681 84.686,166.433 84.726,166.250 84.768 C 166.067 84.810,165.745 84.869,165.536 84.900 C 165.054 84.970,164.951 85.077,164.917 85.542 L 164.889 85.917 160.032 85.961 C 155.732 86.000,155.186 85.976,155.273 85.750 C 155.327 85.610,155.288 85.396,155.187 85.274 C 155.086 85.152,155.058 84.985,155.126 84.901 C 155.194 84.818,155.182 84.806,155.099 84.874 C 155.015 84.942,154.848 84.914,154.726 84.813 C 154.604 84.712,154.398 84.670,154.267 84.720 C 154.130 84.773,153.743 84.530,153.349 84.143 L 152.667 83.474 152.667 62.090 L 152.667 40.706 153.042 40.584 C 153.248 40.516,153.492 40.451,153.583 40.439 C 153.675 40.427,153.760 40.342,153.772 40.250 C 153.785 40.158,153.850 39.915,153.917 39.708 L 154.039 39.333 162.019 39.333 C 166.409 39.333,170.006 39.390,170.014 39.458 M218.584 41.166 C 218.418 41.350,218.205 41.500,218.112 41.500 C 218.018 41.500,218.118 41.313,218.333 41.084 C 218.791 40.596,219.030 40.673,218.584 41.166 M119.250 42.805 C 119.140 42.916,118.500 42.325,118.500 42.112 C 118.500 42.018,118.687 42.118,118.916 42.333 C 119.145 42.548,119.295 42.760,119.250 42.805 M177.917 42.805 C 177.806 42.916,177.167 42.325,177.167 42.112 C 177.167 42.018,177.354 42.118,177.583 42.333 C 177.811 42.548,177.962 42.760,177.917 42.805 M120.584 44.139 C 120.473 44.249,119.833 43.658,119.833 43.445 C 119.833 43.352,120.021 43.451,120.249 43.666 C 120.478 43.881,120.629 44.094,120.584 44.139 M94.584 52.001 C 94.751 52.185,94.923 52.299,94.967 52.255 C 95.079 52.143,94.663 51.667,94.454 51.667 C 94.359 51.667,94.418 51.817,94.584 52.001 M187.250 56.139 C 187.140 56.249,186.500 55.658,186.500 55.445 C 186.500 55.352,186.687 55.451,186.916 55.666 C 187.145 55.881,187.295 56.094,187.250 56.139 M259.250 66.805 C 259.140 66.916,258.500 66.325,258.500 66.112 C 258.500 66.018,258.687 66.118,258.916 66.333 C 259.145 66.548,259.295 66.760,259.250 66.805 M107.667 69.120 C 107.667 69.330,108.143 69.746,108.255 69.634 C 108.299 69.590,108.185 69.417,108.001 69.251 C 107.817 69.085,107.667 69.026,107.667 69.120 M130.584 69.334 C 130.751 69.518,130.923 69.633,130.967 69.588 C 131.079 69.476,130.663 69.000,130.454 69.000 C 130.359 69.000,130.418 69.150,130.584 69.334 M183.001 77.583 C 182.786 77.811,182.573 77.962,182.528 77.917 C 182.417 77.806,183.009 77.167,183.222 77.167 C 183.315 77.167,183.216 77.354,183.001 77.583 M197.251 79.832 C 197.085 80.016,196.872 80.167,196.778 80.167 C 196.685 80.167,196.784 79.979,196.999 79.751 C 197.458 79.263,197.697 79.340,197.251 79.832 M263.667 79.787 C 263.667 79.997,264.143 80.412,264.255 80.301 C 264.299 80.256,264.185 80.084,264.001 79.918 C 263.817 79.751,263.667 79.692,263.667 79.787 M180.334 80.249 C 180.119 80.478,179.906 80.629,179.861 80.584 C 179.751 80.473,180.342 79.833,180.555 79.833 C 180.648 79.833,180.549 80.021,180.334 80.249 M130.584 81.332 C 130.418 81.516,130.359 81.667,130.454 81.667 C 130.663 81.667,131.079 81.190,130.967 81.078 C 130.923 81.034,130.751 81.148,130.584 81.332 M239.830 82.587 C 239.508 82.975,239.738 83.049,240.082 82.668 C 240.249 82.484,240.308 82.333,240.213 82.333 C 240.118 82.333,239.946 82.448,239.830 82.587 M269.917 85.472 C 269.806 85.583,269.167 84.991,269.167 84.778 C 269.167 84.685,269.354 84.784,269.583 84.999 C 269.811 85.214,269.962 85.427,269.917 85.472 M105.667 85.583 C 105.452 85.811,105.240 85.962,105.195 85.917 C 105.084 85.806,105.675 85.167,105.888 85.167 C 105.982 85.167,105.882 85.354,105.667 85.583 M294.584 85.501 C 295.030 85.993,294.791 86.071,294.333 85.583 C 294.118 85.354,294.018 85.167,294.112 85.167 C 294.205 85.167,294.418 85.317,294.584 85.501 M309.251 91.832 C 309.085 92.016,308.872 92.167,308.778 92.167 C 308.685 92.167,308.784 91.979,308.999 91.751 C 309.458 91.263,309.697 91.340,309.251 91.832 " stroke="none" fill="#d41b23" fill-rule="evenodd"></path><path id="path1" d="M253.097 32.978 C 253.048 33.057,253.149 33.250,253.321 33.405 C 253.570 33.631,253.659 33.644,253.760 33.469 C 253.830 33.349,253.825 33.306,253.750 33.374 C 253.577 33.531,253.139 33.179,253.262 32.981 C 253.312 32.900,253.316 32.833,253.270 32.833 C 253.224 32.833,253.146 32.898,253.097 32.978 M179.460 34.292 C 179.383 34.454,180.287 35.324,180.408 35.203 C 180.557 35.054,180.513 34.806,180.356 34.903 C 180.172 35.016,179.628 34.428,179.777 34.278 C 179.839 34.217,179.806 34.167,179.704 34.167 C 179.603 34.167,179.493 34.223,179.460 34.292 M131.567 37.192 C 131.498 37.304,131.521 37.340,131.622 37.278 C 131.838 37.144,132.209 37.564,132.040 37.750 C 131.972 37.825,132.015 37.830,132.136 37.760 C 132.310 37.659,132.297 37.569,132.068 37.317 C 131.732 36.945,131.722 36.942,131.567 37.192 M97.144 38.525 C 96.731 38.956,96.696 39.167,97.038 39.167 C 97.119 39.167,97.146 39.102,97.097 39.022 C 96.984 38.839,97.572 38.294,97.722 38.444 C 97.783 38.505,97.833 38.472,97.833 38.371 C 97.833 38.015,97.579 38.071,97.144 38.525 M237.099 38.271 C 236.947 38.667,237.380 39.084,237.736 38.884 C 237.977 38.750,237.962 38.689,237.609 38.357 C 237.245 38.015,237.199 38.008,237.099 38.271 M299.765 38.271 C 299.613 38.667,300.047 39.084,300.403 38.884 C 300.644 38.750,300.629 38.689,300.275 38.357 C 299.912 38.015,299.866 38.008,299.765 38.271 M190.127 38.292 C 190.049 38.454,190.954 39.324,191.075 39.203 C 191.223 39.054,191.180 38.806,191.022 38.903 C 190.839 39.016,190.294 38.428,190.444 38.278 C 190.505 38.217,190.472 38.167,190.371 38.167 C 190.269 38.167,190.160 38.223,190.127 38.292 M218.357 41.058 C 218.015 41.422,218.008 41.467,218.271 41.568 C 218.667 41.720,219.084 41.287,218.884 40.930 C 218.750 40.690,218.689 40.704,218.357 41.058 M118.432 42.271 C 118.280 42.667,118.713 43.084,119.070 42.884 C 119.310 42.750,119.296 42.689,118.942 42.357 C 118.578 42.015,118.533 42.008,118.432 42.271 M177.099 42.271 C 176.947 42.667,177.380 43.084,177.736 42.884 C 177.977 42.750,177.962 42.689,177.609 42.357 C 177.245 42.015,177.199 42.008,177.099 42.271 M119.765 43.604 C 119.613 44.000,120.047 44.417,120.403 44.218 C 120.644 44.083,120.629 44.023,120.275 43.690 C 119.912 43.349,119.866 43.341,119.765 43.604 M87.764 46.311 C 87.715 46.390,87.815 46.583,87.987 46.739 C 88.237 46.964,88.326 46.977,88.427 46.803 C 88.496 46.682,88.492 46.639,88.417 46.707 C 88.244 46.864,87.806 46.512,87.928 46.314 C 87.979 46.233,87.982 46.167,87.936 46.167 C 87.891 46.167,87.813 46.232,87.764 46.311 M94.127 51.625 C 94.049 51.787,94.954 52.657,95.075 52.536 C 95.223 52.388,95.180 52.139,95.022 52.236 C 94.839 52.350,94.294 51.761,94.444 51.611 C 94.505 51.550,94.472 51.500,94.371 51.500 C 94.269 51.500,94.160 51.556,94.127 51.625 M186.432 55.604 C 186.280 56.000,186.713 56.417,187.070 56.218 C 187.310 56.083,187.296 56.023,186.942 55.690 C 186.578 55.349,186.533 55.341,186.432 55.604 M212.901 61.192 C 212.832 61.304,212.855 61.340,212.955 61.278 C 213.171 61.144,213.543 61.564,213.374 61.750 C 213.306 61.825,213.349 61.830,213.469 61.760 C 213.644 61.659,213.630 61.569,213.402 61.317 C 213.065 60.945,213.055 60.942,212.901 61.192 M258.432 66.271 C 258.280 66.667,258.713 67.084,259.070 66.884 C 259.310 66.750,259.296 66.689,258.942 66.357 C 258.578 66.015,258.533 66.008,258.432 66.271 M107.592 68.797 C 107.541 68.848,107.500 68.964,107.500 69.056 C 107.500 69.147,107.550 69.172,107.611 69.111 C 107.761 68.961,108.350 69.506,108.236 69.689 C 108.187 69.768,108.222 69.833,108.314 69.833 C 108.652 69.833,108.587 69.571,108.142 69.144 C 107.890 68.903,107.642 68.747,107.592 68.797 M130.127 68.958 C 130.049 69.121,130.954 69.990,131.075 69.870 C 131.223 69.721,131.180 69.472,131.022 69.570 C 130.839 69.683,130.294 69.095,130.444 68.945 C 130.505 68.883,130.472 68.833,130.371 68.833 C 130.269 68.833,130.160 68.890,130.127 68.958 M182.518 77.229 C 182.127 77.700,182.495 78.063,182.940 77.645 C 183.236 77.366,183.284 77.238,183.127 77.138 C 182.833 76.952,182.735 76.967,182.518 77.229 M197.024 79.725 C 196.682 80.088,196.674 80.134,196.937 80.235 C 197.333 80.387,197.750 79.953,197.551 79.597 C 197.416 79.356,197.356 79.371,197.024 79.725 M263.592 79.464 C 263.541 79.514,263.500 79.631,263.500 79.722 C 263.500 79.814,263.550 79.839,263.611 79.777 C 263.761 79.628,264.350 80.172,264.236 80.356 C 264.187 80.435,264.222 80.500,264.314 80.500 C 264.652 80.500,264.587 80.238,264.142 79.811 C 263.890 79.569,263.642 79.413,263.592 79.464 M179.851 79.896 C 179.460 80.366,179.829 80.729,180.273 80.312 C 180.570 80.033,180.617 79.905,180.460 79.805 C 180.167 79.619,180.068 79.633,179.851 79.896 M130.478 81.192 C 130.064 81.623,130.029 81.833,130.371 81.833 C 130.453 81.833,130.480 81.768,130.430 81.689 C 130.317 81.506,130.905 80.961,131.055 81.111 C 131.117 81.172,131.167 81.139,131.167 81.038 C 131.167 80.681,130.913 80.738,130.478 81.192 M240.236 82.311 C 240.350 82.494,239.761 83.039,239.611 82.889 C 239.550 82.828,239.500 82.861,239.500 82.962 C 239.500 83.319,239.754 83.262,240.189 82.808 C 240.602 82.377,240.637 82.167,240.296 82.167 C 240.214 82.167,240.187 82.232,240.236 82.311 M172.072 83.648 C 172.194 83.846,171.756 84.197,171.583 84.040 C 171.508 83.972,171.504 84.015,171.573 84.136 C 171.674 84.311,171.763 84.298,172.013 84.072 C 172.284 83.826,172.313 83.500,172.064 83.500 C 172.018 83.500,172.021 83.567,172.072 83.648 M269.099 84.937 C 268.947 85.333,269.380 85.750,269.736 85.551 C 269.977 85.416,269.962 85.356,269.609 85.024 C 269.245 84.682,269.199 84.674,269.099 84.937 M315.764 84.978 C 315.715 85.057,315.815 85.250,315.987 85.405 C 316.237 85.631,316.326 85.644,316.427 85.469 C 316.496 85.349,316.492 85.306,316.417 85.374 C 316.244 85.531,315.806 85.179,315.928 84.981 C 315.979 84.900,315.982 84.833,315.936 84.833 C 315.891 84.833,315.813 84.898,315.764 84.978 M105.184 85.229 C 104.794 85.700,105.162 86.063,105.606 85.645 C 105.903 85.366,105.950 85.238,105.793 85.138 C 105.500 84.952,105.402 84.967,105.184 85.229 M294.207 85.138 C 294.050 85.238,294.097 85.366,294.394 85.645 C 294.749 85.979,294.802 85.989,294.898 85.738 C 295.080 85.263,294.628 84.871,294.207 85.138 M316.545 88.000 C 316.545 88.412,316.578 88.581,316.618 88.375 C 316.657 88.169,316.657 87.831,316.618 87.625 C 316.578 87.419,316.545 87.587,316.545 88.000 M309.024 91.725 C 308.682 92.088,308.674 92.134,308.937 92.235 C 309.333 92.387,309.750 91.953,309.551 91.597 C 309.416 91.356,309.356 91.371,309.024 91.725 M19.444 99.444 C 19.383 99.506,19.333 99.806,19.333 100.111 C 19.333 100.630,19.297 100.667,18.776 100.667 C 16.837 100.667,16.666 101.179,16.669 106.984 C 16.672 112.472,16.669 112.454,17.426 112.596 C 17.922 112.689,17.987 112.765,18.033 113.309 C 18.080 113.878,18.122 113.920,18.699 113.968 C 19.277 114.016,19.317 114.056,19.366 114.634 C 19.414 115.213,19.454 115.253,20.032 115.301 C 20.610 115.349,20.651 115.390,20.699 115.968 C 20.747 116.548,20.786 116.586,21.375 116.635 L 22.000 116.687 22.000 118.677 L 22.000 120.667 20.667 120.667 C 19.366 120.667,19.333 120.657,19.333 120.262 C 19.333 119.627,18.911 119.333,18.000 119.333 C 16.693 119.333,16.667 119.400,16.667 122.741 C 16.667 124.983,16.718 125.668,16.895 125.816 C 17.057 125.950,18.417 125.993,21.520 125.961 L 25.917 125.917 25.967 125.308 C 26.015 124.733,26.054 124.697,26.668 124.638 L 27.318 124.576 27.367 125.246 L 27.417 125.917 30.042 125.963 L 32.667 126.008 32.667 125.291 C 32.667 124.651,32.719 124.553,33.153 124.389 C 33.662 124.197,33.997 123.432,33.999 122.458 L 34.000 122.000 35.328 122.000 L 36.656 122.000 36.703 123.958 L 36.750 125.917 42.042 125.958 L 47.333 126.000 47.353 122.625 C 47.363 120.769,47.409 119.400,47.453 119.583 C 47.570 120.063,48.002 120.500,48.359 120.500 C 48.630 120.500,48.667 120.646,48.667 121.730 C 48.667 123.180,48.995 124.110,49.588 124.335 C 49.942 124.470,50.000 124.597,50.000 125.246 L 50.000 126.000 52.668 126.000 L 55.335 126.000 55.293 112.708 L 55.250 99.417 52.667 99.417 L 50.083 99.417 50.000 102.667 C 49.954 104.454,49.879 105.692,49.833 105.417 C 49.767 105.019,49.649 104.901,49.250 104.833 L 48.750 104.748 48.648 102.947 C 48.539 101.033,48.486 100.893,47.833 100.806 C 47.485 100.759,47.403 100.641,47.333 100.083 L 47.250 99.417 44.856 99.370 C 43.233 99.339,42.388 99.386,42.231 99.516 C 42.039 99.675,42.000 101.299,42.000 109.116 C 42.000 117.669,41.976 118.500,41.738 118.262 C 41.594 118.118,41.294 118.000,41.071 118.000 L 40.667 118.000 40.650 115.208 C 40.630 111.871,40.584 111.648,39.870 111.463 L 39.333 111.324 39.333 108.849 C 39.333 106.111,39.135 105.273,38.424 105.003 C 38.030 104.853,38.023 104.814,37.970 102.350 C 37.903 99.213,38.101 99.417,35.117 99.417 L 32.750 99.417 32.701 100.708 C 32.653 101.995,32.651 102.000,32.193 102.000 C 31.391 102.000,31.333 102.199,31.333 104.950 L 31.333 107.500 30.937 107.500 C 30.175 107.500,30.087 107.837,30.025 111.025 L 29.968 114.000 29.579 114.000 C 29.018 114.000,28.667 114.434,28.667 115.129 C 28.667 115.599,28.622 115.689,28.467 115.533 C 28.357 115.423,28.057 115.333,27.800 115.333 C 27.335 115.333,27.333 115.330,27.333 114.200 C 27.333 112.951,27.175 112.667,26.477 112.667 C 26.069 112.667,26.015 112.599,25.968 112.042 C 25.920 111.453,25.881 111.414,25.301 111.366 C 24.723 111.317,24.683 111.277,24.634 110.699 C 24.586 110.119,24.547 110.080,23.958 110.032 C 23.351 109.981,23.333 109.962,23.333 109.323 C 23.333 108.799,23.272 108.667,23.029 108.667 C 22.416 108.667,22.000 107.971,22.000 106.948 C 22.000 106.052,22.022 106.000,22.410 106.000 C 22.636 106.000,22.973 105.836,23.160 105.635 C 23.439 105.336,23.500 105.320,23.500 105.544 C 23.500 105.905,24.226 106.032,25.917 105.968 L 27.250 105.917 27.296 103.428 C 27.371 99.415,27.277 99.333,22.591 99.333 C 20.921 99.333,19.506 99.383,19.444 99.444 M63.594 99.596 C 63.359 99.832,63.336 101.208,63.374 112.888 L 63.417 125.917 68.480 125.961 C 73.922 126.008,74.000 125.997,74.000 125.156 C 74.000 124.734,74.063 124.682,74.625 124.635 C 75.214 124.586,75.253 124.548,75.301 123.968 C 75.349 123.390,75.390 123.349,75.968 123.301 L 76.583 123.250 76.630 121.292 C 76.677 119.349,76.681 119.333,77.077 119.333 C 77.296 119.333,77.593 119.217,77.735 119.075 C 77.968 118.841,77.998 119.158,78.038 122.366 L 78.083 125.917 81.185 125.962 C 83.677 125.998,84.324 125.961,84.480 125.775 C 84.776 125.417,84.666 99.933,84.367 99.633 C 84.118 99.385,78.465 99.313,78.222 99.555 C 78.146 99.631,78.046 101.506,78.000 103.722 C 77.952 106.048,77.860 107.595,77.783 107.382 C 77.709 107.180,77.428 106.829,77.158 106.601 C 76.690 106.208,76.667 106.125,76.667 104.870 C 76.667 103.397,76.369 102.569,75.756 102.336 C 75.485 102.233,75.351 102.008,75.275 101.533 C 75.154 100.781,74.939 100.673,73.560 100.669 C 72.719 100.667,72.702 100.656,72.598 100.102 C 72.456 99.344,72.422 99.338,67.804 99.336 C 64.430 99.334,63.819 99.371,63.594 99.596 M86.111 99.444 C 86.050 99.506,86.000 105.507,86.000 112.780 L 86.000 126.005 91.292 125.961 L 96.583 125.917 96.630 123.701 C 96.672 121.705,96.702 121.511,96.933 121.743 C 97.075 121.884,97.369 122.000,97.588 122.000 C 97.969 122.000,97.988 122.055,98.035 123.292 L 98.083 124.583 98.699 124.634 C 99.277 124.683,99.317 124.723,99.366 125.301 L 99.417 125.917 104.000 125.917 L 108.583 125.917 108.634 125.301 C 108.683 124.723,108.723 124.683,109.301 124.634 L 109.917 124.583 109.965 123.208 C 110.007 122.012,110.053 121.833,110.314 121.833 C 110.712 121.833,111.167 121.315,111.167 120.862 C 111.167 120.319,111.444 120.426,111.561 121.014 C 111.636 121.386,111.803 121.580,112.165 121.717 C 112.658 121.903,112.667 121.928,112.667 123.087 C 112.667 124.385,112.819 124.667,113.523 124.667 C 113.931 124.667,113.985 124.734,114.032 125.292 L 114.083 125.917 118.667 125.917 L 123.250 125.917 123.301 125.301 C 123.349 124.723,123.390 124.683,123.968 124.634 C 124.560 124.585,124.585 124.558,124.634 123.894 C 124.678 123.284,124.739 123.194,125.166 123.109 C 125.967 122.948,125.998 122.559,125.999 112.804 C 126.000 103.055,126.027 103.333,125.071 103.333 C 124.685 103.333,124.667 103.285,124.667 102.262 C 124.667 101.049,124.429 100.667,123.676 100.667 C 123.292 100.667,123.191 100.579,123.110 100.176 C 122.968 99.464,122.284 99.335,118.621 99.334 C 115.529 99.333,115.490 99.338,115.348 99.708 C 115.144 100.242,114.693 100.578,113.862 100.815 C 112.940 101.078,112.667 101.673,112.667 103.411 L 112.667 104.667 112.200 104.667 C 111.943 104.667,111.643 104.757,111.533 104.867 C 111.378 105.022,111.333 104.976,111.331 104.658 C 111.326 103.804,111.148 103.512,110.565 103.402 C 110.010 103.298,110.000 103.281,109.998 102.440 C 109.994 101.073,109.883 100.845,109.160 100.730 C 108.668 100.651,108.504 100.537,108.424 100.220 C 108.092 98.897,100.176 98.910,99.673 100.234 C 99.569 100.506,99.341 100.659,98.921 100.738 C 98.202 100.873,98.000 101.275,98.000 102.573 C 98.000 103.420,97.978 103.463,97.510 103.556 C 96.706 103.717,96.669 104.137,96.668 112.992 C 96.667 119.272,96.622 121.022,96.467 120.867 C 96.329 120.729,95.496 120.667,93.800 120.667 L 91.333 120.667 91.333 118.000 L 91.333 115.333 93.338 115.333 L 95.342 115.333 95.296 112.708 L 95.250 110.083 93.292 110.036 L 91.333 109.989 91.333 107.332 L 91.333 104.675 93.958 104.629 L 96.583 104.583 96.630 102.189 C 96.661 100.566,96.614 99.721,96.484 99.564 C 96.281 99.319,86.351 99.204,86.111 99.444 M136.214 99.578 C 135.881 99.723,135.638 99.974,135.571 100.240 C 135.488 100.572,135.359 100.667,134.994 100.667 C 134.240 100.667,134.000 101.049,134.000 102.249 C 134.000 103.294,133.994 103.308,133.490 103.419 C 132.763 103.578,132.667 103.989,132.667 106.916 C 132.667 109.690,132.759 110.000,133.588 110.000 C 133.969 110.000,133.988 110.055,134.035 111.292 L 134.083 112.583 134.699 112.634 C 135.277 112.683,135.317 112.723,135.366 113.301 C 135.414 113.879,135.454 113.920,136.032 113.968 C 136.610 114.016,136.651 114.056,136.699 114.634 C 136.747 115.213,136.787 115.253,137.366 115.301 C 137.944 115.349,137.984 115.390,138.032 115.968 C 138.080 116.548,138.119 116.586,138.708 116.635 L 139.333 116.687 139.333 118.677 L 139.333 120.667 138.000 120.667 C 136.699 120.667,136.667 120.657,136.667 120.262 C 136.667 119.627,136.245 119.333,135.333 119.333 C 134.004 119.333,133.985 119.383,134.038 122.891 L 134.083 125.917 138.667 125.917 L 143.250 125.917 143.301 125.301 C 143.349 124.723,143.390 124.683,143.968 124.634 L 144.583 124.583 144.632 123.208 C 144.673 122.042,144.723 121.833,144.965 121.831 C 145.435 121.827,145.693 121.574,145.833 120.980 C 145.926 120.585,145.971 120.993,145.983 122.342 C 146.001 124.423,146.093 124.667,146.857 124.667 C 147.264 124.667,147.319 124.734,147.365 125.292 L 147.417 125.917 152.444 125.961 C 158.130 126.011,158.000 126.039,158.000 124.767 C 158.000 124.043,158.368 123.518,159.042 123.280 C 159.441 123.139,159.500 99.846,159.102 99.516 C 158.946 99.386,158.101 99.339,156.477 99.370 L 154.083 99.417 154.040 109.357 L 153.997 119.297 153.422 119.405 C 152.927 119.497,152.831 119.594,152.738 120.090 C 152.636 120.630,152.589 120.667,151.981 120.667 L 151.333 120.667 151.333 110.187 C 151.333 101.457,151.295 99.675,151.102 99.516 C 150.946 99.386,150.101 99.339,148.477 99.370 L 146.083 99.417 146.028 108.250 C 145.983 115.558,145.937 116.983,145.765 116.500 C 145.644 116.162,145.370 115.825,145.112 115.699 C 144.711 115.504,144.667 115.392,144.667 114.585 C 144.667 113.344,144.462 112.888,143.843 112.752 C 143.427 112.661,143.333 112.557,143.333 112.187 C 143.333 111.610,143.056 111.333,142.477 111.333 C 142.069 111.333,142.015 111.266,141.968 110.708 C 141.920 110.119,141.881 110.080,141.301 110.032 C 140.723 109.984,140.683 109.944,140.634 109.366 C 140.586 108.785,140.547 108.747,139.958 108.698 L 139.333 108.647 139.333 107.240 C 139.333 105.870,139.344 105.833,139.730 105.833 C 140.192 105.833,140.438 105.582,140.545 105.000 C 140.613 104.627,140.624 104.637,140.644 105.092 C 140.680 105.899,140.907 106.000,142.680 106.000 C 144.764 106.000,144.687 106.112,144.630 103.144 L 144.583 100.750 143.968 100.699 C 143.390 100.651,143.349 100.610,143.301 100.032 L 143.250 99.417 140.000 99.380 C 137.504 99.351,136.626 99.397,136.214 99.578 M160.778 99.444 C 160.717 99.506,160.667 105.506,160.667 112.778 L 160.667 126.000 163.333 126.000 L 166.000 126.000 166.000 120.667 L 166.000 115.333 167.875 115.332 C 170.306 115.331,170.949 115.159,171.130 114.460 C 171.235 114.055,171.391 113.901,171.805 113.794 C 172.230 113.684,172.369 113.541,172.464 113.119 C 172.530 112.824,172.621 115.583,172.667 119.250 L 172.750 125.917 178.480 125.961 C 182.340 125.990,184.280 125.947,184.424 125.827 C 184.572 125.704,184.670 125.704,184.745 125.825 C 184.813 125.935,185.811 126.000,187.427 126.000 L 190.000 126.000 190.000 123.800 C 190.000 122.089,190.044 121.644,190.200 121.800 C 190.310 121.910,190.603 122.000,190.851 122.000 L 191.303 122.000 191.360 123.742 C 191.435 126.049,191.220 125.917,194.883 125.917 L 197.917 125.917 197.964 124.191 C 198.017 122.284,197.911 122.000,197.146 122.000 L 196.667 122.000 196.664 120.458 C 196.661 118.412,196.593 118.199,195.898 118.069 L 195.333 117.963 195.333 116.738 C 195.333 115.538,195.320 115.500,194.667 114.813 C 193.861 113.966,193.864 114.031,194.625 113.968 C 195.213 113.920,195.253 113.880,195.301 113.308 C 195.349 112.732,195.386 112.697,196.009 112.637 L 196.667 112.575 196.669 114.162 C 196.672 116.249,196.739 116.467,197.422 116.595 L 197.973 116.699 198.028 119.582 C 198.087 122.650,198.229 123.167,199.016 123.167 C 199.248 123.167,199.326 123.325,199.365 123.875 C 199.415 124.560,199.437 124.585,200.032 124.634 C 200.610 124.683,200.651 124.723,200.699 125.301 L 200.750 125.917 205.333 125.917 L 209.917 125.917 209.964 124.580 L 210.012 123.242 210.651 123.303 L 211.290 123.364 211.377 124.447 C 211.502 125.998,211.193 125.910,216.688 125.968 C 221.986 126.024,222.000 126.021,222.000 125.063 C 222.000 124.627,222.069 124.500,222.308 124.500 C 223.051 124.500,223.245 123.938,223.333 121.525 L 223.417 119.252 223.915 119.166 C 224.305 119.099,224.437 118.971,224.521 118.582 C 224.579 118.308,224.636 119.866,224.647 122.046 L 224.667 126.008 227.292 125.963 L 229.917 125.917 229.965 124.542 L 230.013 123.167 230.673 123.861 C 231.234 124.450,231.333 124.663,231.333 125.277 L 231.333 126.000 233.458 125.983 C 235.969 125.964,236.365 125.879,236.519 125.327 C 236.616 124.978,236.636 124.968,236.650 125.258 C 236.683 125.945,236.932 126.000,240.000 126.000 C 242.059 126.000,242.993 125.940,243.133 125.800 C 243.289 125.644,243.333 125.644,243.333 125.800 C 243.333 125.947,244.037 126.000,246.000 126.000 L 248.667 126.000 248.667 120.667 L 248.667 115.333 250.589 115.333 C 252.857 115.333,253.532 115.127,253.802 114.350 C 253.909 114.045,254.159 113.765,254.411 113.669 C 254.647 113.579,254.932 113.298,255.045 113.045 C 255.215 112.662,255.264 113.452,255.333 117.667 C 255.423 123.116,255.418 123.086,256.169 123.250 C 256.594 123.344,256.667 123.437,256.668 123.888 C 256.671 125.953,256.867 126.020,262.778 125.961 L 267.250 125.917 267.301 125.301 C 267.349 124.723,267.390 124.683,267.968 124.634 L 268.583 124.583 268.626 114.625 L 268.669 104.667 270.668 104.667 L 272.667 104.667 272.667 115.338 L 272.667 126.008 275.292 125.963 L 277.917 125.917 277.960 115.292 L 278.002 104.667 279.333 104.667 L 280.664 104.667 280.707 115.292 L 280.750 125.917 286.046 125.961 L 291.342 126.005 291.296 123.377 L 291.250 120.750 289.292 120.703 L 287.333 120.656 287.333 118.000 L 287.333 115.344 289.292 115.297 L 291.250 115.250 291.250 112.667 L 291.250 110.083 289.292 110.036 L 287.333 109.989 287.333 107.328 L 287.333 104.667 289.338 104.667 L 291.342 104.667 291.296 102.042 L 291.250 99.417 277.513 99.378 C 267.698 99.351,263.713 99.392,263.555 99.524 C 263.375 99.673,263.333 101.677,263.333 110.187 L 263.333 120.667 262.673 120.667 L 262.012 120.667 261.964 110.339 C 261.907 97.981,262.353 99.439,258.606 99.358 C 255.286 99.287,255.333 99.262,255.333 101.129 C 255.333 102.117,255.289 102.356,255.133 102.200 C 255.023 102.090,254.728 102.000,254.477 102.000 C 254.069 102.000,254.015 101.933,253.968 101.375 C 253.918 100.767,253.897 100.749,253.200 100.698 C 252.621 100.657,252.455 100.570,252.331 100.245 C 252.027 99.445,251.308 99.323,247.181 99.372 L 243.417 99.417 243.332 110.833 C 243.285 117.112,243.229 122.055,243.207 121.817 C 243.161 121.328,242.695 120.833,242.279 120.833 C 242.023 120.833,241.999 120.288,241.987 114.292 C 241.974 107.210,241.924 106.763,241.112 106.366 L 240.667 106.148 240.667 102.941 C 240.667 99.031,240.890 99.333,238.000 99.333 C 235.212 99.333,235.333 99.233,235.333 101.533 L 235.333 103.333 234.867 103.333 C 234.046 103.333,234.001 103.506,233.989 106.658 C 233.983 108.491,233.925 109.449,233.834 109.224 C 233.751 109.018,233.478 108.818,233.194 108.756 L 232.699 108.647 232.641 105.758 C 232.579 102.675,232.438 102.167,231.641 102.167 C 231.370 102.167,231.333 102.021,231.333 100.950 C 231.333 99.315,231.364 99.333,228.667 99.333 C 225.735 99.333,226.000 98.852,226.000 104.181 L 226.000 108.630 225.428 108.737 C 225.090 108.800,224.825 108.961,224.781 109.130 C 224.739 109.288,224.696 109.154,224.684 108.833 C 224.644 107.771,224.505 107.516,223.898 107.402 L 223.333 107.296 223.333 104.848 C 223.333 102.208,223.271 102.000,222.477 102.000 C 222.069 102.000,222.015 101.933,221.968 101.375 C 221.919 100.784,221.883 100.747,221.292 100.698 C 220.734 100.652,220.667 100.597,220.667 100.190 C 220.667 99.362,220.535 99.333,216.667 99.333 C 212.798 99.333,212.667 99.362,212.667 100.190 C 212.667 100.597,212.599 100.652,212.042 100.698 C 211.451 100.747,211.414 100.784,211.365 101.375 C 211.321 101.907,211.254 102.000,210.919 102.000 C 210.701 102.000,210.406 102.118,210.262 102.262 C 210.024 102.500,210.000 102.446,210.000 101.673 C 210.000 99.503,209.564 99.294,205.167 99.366 L 202.083 99.417 202.032 100.042 C 201.984 100.622,201.942 100.667,201.448 100.668 C 199.883 100.670,199.337 101.219,199.334 102.792 C 199.333 103.254,199.274 103.333,198.929 103.333 C 198.069 103.333,198.000 103.598,198.000 106.910 L 198.000 109.963 197.417 110.072 C 197.046 110.142,196.820 110.285,196.796 110.466 C 196.775 110.622,196.719 108.800,196.671 106.417 L 196.583 102.083 195.968 102.032 C 195.390 101.984,195.349 101.944,195.301 101.366 C 195.252 100.773,195.224 100.748,194.561 100.700 C 193.950 100.655,193.861 100.595,193.775 100.166 C 193.627 99.428,192.930 99.320,188.642 99.372 L 184.926 99.417 184.716 99.833 C 184.558 100.145,184.504 100.175,184.502 99.954 C 184.498 99.389,183.754 99.319,178.319 99.368 C 172.330 99.423,172.775 99.303,172.695 100.889 L 172.634 102.089 171.993 102.028 C 171.388 101.970,171.349 101.932,171.301 101.358 C 171.252 100.776,171.221 100.748,170.575 100.700 C 170.006 100.659,169.872 100.576,169.720 100.172 C 169.586 99.819,169.369 99.646,168.894 99.514 C 168.197 99.320,160.964 99.258,160.778 99.444 M292.778 99.444 C 292.717 99.506,292.667 105.506,292.667 112.778 L 292.667 126.000 295.333 126.000 L 298.000 126.000 298.007 123.958 C 298.013 122.062,298.030 121.955,298.246 122.453 C 298.390 122.783,298.640 123.029,298.900 123.094 C 299.301 123.195,299.323 123.262,299.369 124.558 L 299.417 125.917 302.667 125.917 L 305.917 125.917 305.906 124.304 C 305.895 122.562,305.740 122.167,305.070 122.167 C 304.697 122.167,304.678 122.108,304.632 120.792 L 304.583 119.417 303.958 119.365 L 303.333 119.313 303.333 117.523 C 303.333 115.577,303.237 115.333,302.467 115.333 C 301.622 115.333,301.773 114.039,302.625 113.968 C 303.214 113.920,303.253 113.881,303.301 113.303 C 303.345 112.773,303.420 112.674,303.853 112.579 C 304.610 112.413,304.667 112.040,304.664 107.281 C 304.662 102.224,304.660 102.212,303.907 102.071 C 303.411 101.977,303.346 101.901,303.301 101.358 C 303.252 100.774,303.223 100.748,302.560 100.700 C 302.021 100.660,301.717 100.504,301.178 99.991 L 300.486 99.333 296.687 99.333 C 294.598 99.333,292.839 99.383,292.778 99.444 M316.867 99.533 C 316.757 99.643,316.667 99.943,316.667 100.200 C 316.667 100.633,316.619 100.667,316.000 100.667 C 315.335 100.667,315.333 100.668,315.333 101.323 C 315.333 101.962,315.316 101.981,314.708 102.032 C 314.104 102.082,314.082 102.106,314.033 102.776 C 313.991 103.357,313.915 103.485,313.564 103.573 C 312.682 103.795,312.660 104.054,312.707 113.373 L 312.750 121.917 313.375 121.968 L 314.000 122.020 314.000 123.143 C 314.000 124.386,314.159 124.667,314.867 124.667 C 315.270 124.667,315.333 124.732,315.333 125.146 C 315.333 126.013,315.111 125.995,325.560 125.996 L 335.342 125.997 335.296 123.373 L 335.250 120.750 332.625 120.704 L 330.000 120.658 330.000 118.000 L 330.000 115.342 332.625 115.296 L 335.250 115.250 335.250 112.667 L 335.250 110.083 332.625 110.037 L 330.000 109.992 330.000 107.329 L 330.000 104.667 332.671 104.667 L 335.342 104.667 335.296 102.042 L 335.250 99.417 330.187 99.373 C 324.875 99.326,324.683 99.350,324.650 100.062 C 324.635 100.379,324.621 100.374,324.519 100.006 C 324.452 99.767,324.233 99.548,323.994 99.481 C 323.234 99.269,317.086 99.314,316.867 99.533 M336.778 99.444 C 336.717 99.506,336.667 105.506,336.667 112.778 L 336.667 126.000 339.333 126.000 L 342.000 126.000 342.000 123.133 C 342.000 120.904,342.044 120.311,342.200 120.467 C 342.310 120.577,342.610 120.667,342.867 120.667 L 343.333 120.667 343.333 122.467 C 343.333 124.424,343.429 124.667,344.200 124.667 C 344.634 124.667,344.667 124.714,344.667 125.338 L 344.667 126.008 347.292 125.963 L 349.917 125.917 349.960 115.292 L 350.002 104.667 351.333 104.667 L 352.664 104.667 352.707 115.292 L 352.750 125.917 355.812 125.962 C 357.929 125.994,358.944 125.949,359.103 125.817 C 359.294 125.658,359.333 123.854,359.333 115.146 L 359.333 104.667 360.667 104.667 L 362.000 104.667 362.000 115.333 L 362.000 126.000 367.333 126.000 C 371.166 126.000,372.667 125.947,372.667 125.813 C 372.667 125.676,372.729 125.677,372.897 125.817 C 373.056 125.949,374.071 125.994,376.188 125.962 L 379.250 125.917 379.344 124.583 C 379.396 123.850,379.453 123.407,379.469 123.599 C 379.506 124.012,379.998 124.500,380.379 124.500 C 380.576 124.500,380.661 124.689,380.699 125.208 L 380.750 125.917 383.379 125.963 L 386.009 126.009 385.963 123.379 L 385.917 120.750 385.292 120.698 L 384.667 120.647 384.667 118.919 C 384.667 117.036,384.515 116.667,383.738 116.667 C 383.344 116.667,383.333 116.633,383.333 115.352 L 383.333 114.037 383.898 113.931 C 384.553 113.808,384.661 113.554,384.664 112.125 C 384.666 111.305,384.711 111.167,384.974 111.167 C 385.765 111.167,385.913 110.649,385.969 107.691 C 386.035 104.257,385.924 103.617,385.243 103.499 C 384.761 103.416,384.748 103.387,384.656 102.211 C 384.542 100.739,384.577 100.775,383.158 100.694 C 382.077 100.633,382.000 100.603,382.000 100.243 C 382.000 99.341,381.803 99.303,377.417 99.362 C 373.076 99.421,372.915 99.454,372.785 100.304 C 372.721 100.720,372.715 100.715,372.692 100.229 C 372.647 99.295,373.251 99.331,358.483 99.375 L 344.750 99.417 344.667 102.917 C 344.621 104.842,344.523 106.323,344.448 106.208 C 344.374 106.094,344.093 106.000,343.823 106.000 L 343.333 106.000 343.333 104.200 C 343.333 102.243,343.238 102.000,342.467 102.000 C 342.001 102.000,342.000 101.997,342.000 100.867 C 342.000 100.207,341.916 99.650,341.800 99.533 C 341.585 99.318,336.985 99.237,336.778 99.444 M184.647 112.875 C 184.637 117.573,184.595 121.293,184.555 121.142 C 184.449 120.742,184.000 120.671,181.542 120.669 L 179.333 120.667 179.333 118.005 L 179.333 115.344 181.292 115.297 L 183.250 115.250 183.250 112.667 L 183.250 110.083 181.292 110.036 L 179.333 109.989 179.333 107.328 L 179.333 104.667 181.823 104.667 C 183.304 104.667,184.355 104.599,184.417 104.500 C 184.473 104.408,184.553 104.333,184.593 104.333 C 184.634 104.333,184.658 108.177,184.647 112.875 M104.668 105.792 C 104.669 107.988,104.930 108.381,106.500 108.557 C 107.819 108.705,108.369 108.518,108.538 107.865 C 108.671 107.353,108.709 107.333,109.546 107.331 C 110.671 107.328,111.131 107.198,111.222 106.858 C 111.262 106.707,111.303 107.671,111.314 109.000 L 111.334 111.417 107.375 111.367 C 102.889 111.310,102.379 111.361,102.168 111.884 C 102.069 112.132,102.018 111.670,102.011 110.458 C 102.000 108.669,102.001 108.667,102.405 108.667 C 103.182 108.667,103.333 108.299,103.333 106.405 L 103.333 104.667 104.000 104.667 L 104.667 104.667 104.668 105.792 M119.631 107.711 C 119.739 107.965,120.016 108.244,120.247 108.332 L 120.667 108.492 120.667 113.329 L 120.667 118.167 120.270 118.167 C 119.702 118.167,119.514 118.482,119.393 119.642 L 119.286 120.667 118.643 120.667 L 118.000 120.667 118.000 113.271 L 118.000 105.875 118.503 105.774 C 118.904 105.694,119.032 105.562,119.128 105.128 C 119.227 104.687,119.268 104.838,119.342 105.917 C 119.393 106.650,119.523 107.458,119.631 107.711 M206.402 105.654 C 207.001 106.152,209.749 106.059,209.886 105.536 C 209.928 105.379,209.970 105.752,209.981 106.366 C 209.999 107.424,209.977 107.493,209.547 107.699 C 208.827 108.045,208.692 108.828,208.692 112.667 C 208.692 116.506,208.827 117.289,209.547 117.634 C 209.988 117.846,210.000 117.888,210.000 119.301 L 210.001 120.750 207.909 120.699 C 205.862 120.648,205.814 120.639,205.662 120.237 C 205.576 120.012,205.317 119.756,205.086 119.668 C 204.754 119.541,204.667 119.393,204.667 118.954 C 204.667 118.277,204.415 118.000,203.800 118.000 L 203.333 118.000 203.333 113.250 C 203.333 108.744,203.349 108.500,203.641 108.500 C 204.154 108.500,204.515 107.924,204.616 106.943 C 204.711 106.020,204.713 106.017,205.314 105.967 C 205.883 105.919,205.921 105.880,205.990 105.250 C 206.048 104.718,206.075 104.673,206.125 105.029 C 206.159 105.275,206.283 105.556,206.402 105.654 M321.066 105.191 C 321.429 105.910,323.838 106.305,324.405 105.738 C 324.643 105.500,324.667 106.170,324.667 113.113 L 324.667 120.750 322.688 120.699 L 320.709 120.648 320.558 120.120 C 320.445 119.726,320.272 119.554,319.870 119.439 C 319.369 119.295,319.332 119.234,319.317 118.518 C 319.290 117.289,319.137 116.952,318.536 116.796 L 318.000 116.657 318.000 112.662 L 318.000 108.667 318.467 108.667 C 319.174 108.667,319.333 108.386,319.333 107.143 L 319.333 106.020 319.958 105.968 C 320.553 105.919,320.586 105.885,320.636 105.275 C 320.691 104.603,320.763 104.589,321.066 105.191 M372.667 107.595 C 372.667 110.258,372.643 110.500,372.405 110.262 C 372.191 110.048,371.702 110.000,369.738 110.000 L 367.333 110.000 367.333 107.333 L 367.333 104.667 370.000 104.667 L 372.667 104.667 372.667 107.595 M217.533 106.000 L 218.000 106.000 218.000 112.733 L 218.000 119.467 217.394 120.072 C 217.061 120.405,216.772 120.657,216.751 120.631 C 216.730 120.605,216.640 120.359,216.551 120.086 C 216.437 119.733,216.237 119.544,215.862 119.437 L 215.333 119.285 215.333 112.643 L 215.333 106.000 215.907 106.000 C 216.222 106.000,216.531 105.918,216.592 105.819 C 216.673 105.688,216.755 105.688,216.885 105.819 C 216.985 105.918,217.277 106.000,217.533 106.000 M167.333 107.338 L 167.333 108.640 166.822 108.752 C 166.523 108.818,166.251 109.014,166.166 109.224 C 166.070 109.462,166.018 108.961,166.011 107.746 L 166.000 105.908 166.667 105.971 L 167.333 106.035 167.333 107.338 M191.333 107.438 C 191.333 108.784,191.316 108.848,190.914 109.001 C 190.683 109.089,190.422 109.350,190.334 109.580 C 190.055 110.315,190.000 110.048,190.000 107.954 L 190.000 105.908 190.667 105.971 L 191.333 106.035 191.333 107.438 M299.333 107.351 C 299.333 108.633,299.323 108.667,298.929 108.667 C 298.706 108.667,298.406 108.785,298.262 108.929 C 298.024 109.167,298.000 109.041,298.000 107.549 L 298.000 105.908 298.667 105.971 L 299.333 106.035 299.333 107.351 M249.400 106.600 C 250.177 107.377,250.299 108.667,249.595 108.667 C 249.373 108.667,249.073 108.785,248.929 108.929 C 248.690 109.167,248.667 109.045,248.667 107.595 C 248.667 106.718,248.697 106.000,248.733 106.000 C 248.770 106.000,249.070 106.270,249.400 106.600 M70.822 107.248 L 71.333 107.360 71.333 113.329 L 71.333 119.298 70.667 119.362 L 70.000 119.425 70.011 112.921 C 70.017 109.060,70.080 106.563,70.166 106.776 C 70.251 106.986,70.523 107.182,70.822 107.248 M102.258 115.951 C 102.360 116.429,103.192 116.662,104.833 116.672 C 106.045 116.679,106.067 116.687,105.553 116.910 C 104.908 117.191,104.669 117.901,104.668 119.542 L 104.667 120.667 104.022 120.667 L 103.378 120.667 103.298 119.006 C 103.212 117.229,103.048 116.833,102.396 116.833 C 102.023 116.833,102.001 116.778,102.019 115.875 C 102.030 115.348,102.070 115.067,102.109 115.250 C 102.148 115.433,102.215 115.749,102.258 115.951 M372.667 117.875 L 372.667 120.750 370.000 120.700 L 367.333 120.651 367.333 117.992 L 367.333 115.333 369.823 115.333 C 371.304 115.333,372.355 115.266,372.417 115.167 C 372.640 114.806,372.667 115.100,372.667 117.875 " stroke="none" fill="#241c23" fill-rule="evenodd"></path></g></svg>